<svg id="Livello_1" data-name="Livello 1" xmlns="http://www.w3.org/2000/svg" viewBox="0 0 193 494"><defs><style>.cls-1,.cls-2{fill:none;stroke:#868686;stroke-miterlimit:10;stroke-width:0.5px;}.cls-2{stroke-dasharray:2.99 2.99;}.cls-3,.cls-6{fill:#517bbd;}.cls-4{font-size:10px;font-family:ProductSans-Regular, Product Sans;}.cls-16,.cls-33,.cls-34,.cls-4{fill:#343447;}.cls-5{letter-spacing:0.01em;}.cls-25,.cls-29,.cls-6{font-size:7px;}.cls-29,.cls-34,.cls-35,.cls-6{font-family:ProductSans-Bold, Product Sans;font-weight:700;}.cls-7{letter-spacing:-0.01em;}.cls-16,.cls-8{font-size:9px;}.cls-9{letter-spacing:0em;}.cls-10{letter-spacing:0em;}.cls-11{letter-spacing:0em;}.cls-12{letter-spacing:-0.01em;}.cls-13{letter-spacing:-0.03em;}.cls-14{letter-spacing:-0.01em;}.cls-15{letter-spacing:-0.02em;}.cls-17{letter-spacing:-0.02em;}.cls-18{letter-spacing:-0.03em;}.cls-19,.cls-25{letter-spacing:0em;}.cls-20{letter-spacing:-0.01em;}.cls-21{letter-spacing:0em;}.cls-22{letter-spacing:-0.02em;}.cls-23{letter-spacing:0em;}.cls-24{letter-spacing:-0.01em;}.cls-26{letter-spacing:-0.01em;}.cls-27{letter-spacing:-0.03em;}.cls-28,.cls-29{fill:#db4437;}.cls-30{letter-spacing:-0.03em;}.cls-31{letter-spacing:-0.02em;}.cls-32{letter-spacing:0em;}.cls-34,.cls-35{font-size:18px;}.cls-35{fill:#fff;}</style></defs><title>Tavola disegno 5 copia 4</title><line class="cls-1" x1="41" y1="38.55" x2="41" y2="40.05"/><line class="cls-2" x1="41" y1="43.03" x2="41" y2="441.56"/><line class="cls-1" x1="41" y1="443.05" x2="41" y2="444.55"/><circle class="cls-3" cx="40.91" cy="347.83" r="4"/><text class="cls-4" transform="translate(8 351.33)"><tspan class="cls-5">1</tspan><tspan x="3.94" y="0">5:</tspan><tspan class="cls-5" x="11.81" y="0">1</tspan><tspan x="15.75" y="0">5</tspan></text><text class="cls-6" transform="translate(57.5 351.33)"><tspan class="cls-7">C</tspan><tspan x="5.07" y="0">ODELAB</tspan><tspan class="cls-8"><tspan x="0" y="12.8">Primi p</tspan><tspan class="cls-9" x="28.92" y="12.8">a</tspan><tspan x="33.69" y="12.8">s</tspan><tspan class="cls-10" x="38.03" y="12.8">s</tspan><tspan class="cls-11" x="42.34" y="12.8">i </tspan><tspan class="cls-10" x="46.65" y="12.8">c</tspan><tspan class="cls-12" x="51.51" y="12.8">o</tspan><tspan x="56.6" y="12.8">n</tspan><tspan class="cls-9" x="0" y="23.6">G</tspan><tspan x="7.25" y="23.6">oog</tspan><tspan class="cls-9" x="22.99" y="23.6">l</tspan><tspan x="25.13" y="23.6">e</tspan><tspan class="cls-13" x="30.13" y="23.6"> </tspan><tspan x="31.84" y="23.6">As</tspan><tspan class="cls-10" x="42.63" y="23.6">s</tspan><tspan class="cls-11" x="46.93" y="23.6">i</tspan><tspan class="cls-10" x="49.27" y="23.6">s</tspan><tspan class="cls-14" x="53.57" y="23.6">t</tspan><tspan class="cls-11" x="57.09" y="23.6">a</tspan><tspan class="cls-15" x="61.9" y="23.6">n</tspan><tspan class="cls-11" x="66.84" y="23.6">t</tspan><tspan x="0" y="34.4">e D</tspan><tspan class="cls-9" x="13.45" y="34.4">i</tspan><tspan x="15.74" y="34.4">a</tspan><tspan class="cls-9" x="20.56" y="34.4">l</tspan><tspan x="22.7" y="34.4">og</tspan><tspan class="cls-10" x="33.25" y="34.4">fl</tspan><tspan class="cls-12" x="38.74" y="34.4">o</tspan><tspan x="43.84" y="34.4">w</tspan></tspan><tspan class="cls-16"><tspan x="0" y="45.2">Azzur</tspan><tspan class="cls-17" x="23.89" y="45.2">r</tspan><tspan x="27.38" y="45.2">a </tspan><tspan class="cls-9" x="34.17" y="45.2">Rag</tspan><tspan class="cls-14" x="49.81" y="45.2">o</tspan><tspan x="54.9" y="45.2">ne</tspan></tspan></text><circle class="cls-3" cx="40.91" cy="445.17" r="4"/><text class="cls-4" transform="translate(8 448.67)">17:00</text><text class="cls-6" transform="translate(57.5 448.67)"><tspan class="cls-18">KO<tspan class="cls-19" x="10.02" y="0">TLIN B</tspan><tspan class="cls-20" x="30.79" y="0">O</tspan><tspan x="36.48" y="0">OT</tspan><tspan class="cls-19" x="45.89" y="0">CAMP</tspan></tspan><tspan class="cls-8"><tspan class="cls-12" x="0" y="12.8">Jo</tspan><tspan class="cls-11" x="10" y="12.8">in </tspan><tspan class="cls-21" x="19.48" y="12.8">t</tspan><tspan x="23.13" y="12.8">he </tspan><tspan class="cls-17" x="35.28" y="12.8">K</tspan><tspan class="cls-22" x="41.12" y="12.8">o</tspan><tspan class="cls-21" x="46.17" y="12.8">t</tspan><tspan x="49.82" y="12.8">lin </tspan><tspan class="cls-10" x="61.49" y="12.8">sid</tspan><tspan x="73.43" y="12.8">e,</tspan><tspan class="cls-12" x="0" y="23.6">w</tspan><tspan class="cls-23" x="7.15" y="23.6">e </tspan><tspan class="cls-9" x="14.14" y="23.6">h</tspan><tspan class="cls-14" x="19.26" y="23.6">a</tspan><tspan class="cls-24" x="23.98" y="23.6">v</tspan><tspan x="28.86" y="23.6">e </tspan><tspan class="cls-9" x="35.85" y="23.6">c</tspan><tspan x="40.71" y="23.6">o</tspan><tspan class="cls-9" x="45.89" y="23.6">o</tspan><tspan class="cls-11" x="51.03" y="23.6">k</tspan><tspan class="cls-9" x="55.8" y="23.6">i</tspan><tspan class="cls-21" x="58.09" y="23.6">e</tspan><tspan class="cls-23" x="63.13" y="23.6">s</tspan><tspan class="cls-25" x="67.48" y="23.6"></tspan></tspan><tspan class="cls-16"><tspan class="cls-14" x="0" y="34.4">R</tspan><tspan class="cls-26" x="5.49" y="34.4">o</tspan><tspan x="10.63" y="34.4">be</tspan><tspan class="cls-9" x="21.03" y="34.4">rt</tspan><tspan x="28.3" y="34.4">o</tspan><tspan class="cls-17" x="33.49" y="34.4"> </tspan><tspan x="35.29" y="34.4">O</tspan><tspan class="cls-27" x="42.69" y="34.4">r</tspan><tspan x="46.12" y="34.4">giu</tspan></tspan></text><circle class="cls-3" cx="40.91" cy="218.67" r="4"/><text class="cls-4" transform="translate(8 222.17)">11:<tspan class="cls-5" x="10" y="0">1</tspan><tspan x="13.94" y="0">5</tspan></text><text class="cls-6" transform="translate(57.5 222.17)"><tspan class="cls-18">KO<tspan class="cls-19" x="10.02" y="0">TLIN B</tspan><tspan class="cls-20" x="30.79" y="0">O</tspan><tspan x="36.48" y="0">OT</tspan><tspan class="cls-19" x="45.89" y="0">CAMP</tspan></tspan><tspan class="cls-8"><tspan class="cls-12" x="0" y="12.8">Jo</tspan><tspan class="cls-11" x="10" y="12.8">in </tspan><tspan class="cls-21" x="19.48" y="12.8">t</tspan><tspan x="23.13" y="12.8">he </tspan><tspan class="cls-17" x="35.28" y="12.8">K</tspan><tspan class="cls-22" x="41.12" y="12.8">o</tspan><tspan class="cls-21" x="46.17" y="12.8">t</tspan><tspan x="49.82" y="12.8">lin </tspan><tspan class="cls-10" x="61.49" y="12.8">sid</tspan><tspan x="73.43" y="12.8">e,</tspan><tspan class="cls-12" x="0" y="23.6">w</tspan><tspan class="cls-23" x="7.15" y="23.6">e </tspan><tspan class="cls-9" x="14.14" y="23.6">h</tspan><tspan class="cls-14" x="19.26" y="23.6">a</tspan><tspan class="cls-24" x="23.98" y="23.6">v</tspan><tspan x="28.86" y="23.6">e </tspan><tspan class="cls-9" x="35.85" y="23.6">c</tspan><tspan x="40.71" y="23.6">o</tspan><tspan class="cls-9" x="45.89" y="23.6">o</tspan><tspan class="cls-11" x="51.03" y="23.6">k</tspan><tspan class="cls-9" x="55.8" y="23.6">i</tspan><tspan class="cls-21" x="58.09" y="23.6">e</tspan><tspan class="cls-23" x="63.13" y="23.6">s</tspan><tspan class="cls-25" x="67.48" y="23.6"></tspan></tspan><tspan class="cls-16"><tspan class="cls-14" x="0" y="34.4">R</tspan><tspan class="cls-26" x="5.49" y="34.4">o</tspan><tspan x="10.63" y="34.4">be</tspan><tspan class="cls-9" x="21.03" y="34.4">rt</tspan><tspan x="28.3" y="34.4">o</tspan><tspan class="cls-17" x="33.49" y="34.4"> </tspan><tspan x="35.29" y="34.4">O</tspan><tspan class="cls-27" x="42.69" y="34.4">r</tspan><tspan x="46.12" y="34.4">giu</tspan></tspan></text><circle class="cls-28" cx="40.91" cy="84.67" r="4"/><text class="cls-4" transform="translate(8 88.17)"><tspan xml:space="preserve"> 9:00</tspan></text><text class="cls-29" transform="translate(57.5 88.17)">MARKET<tspan class="cls-7" x="28.16" y="0">I</tspan><tspan x="30.04" y="0">G B</tspan><tspan class="cls-7" x="41.66" y="0">O</tspan><tspan class="cls-18" x="47.34" y="0">OT</tspan><tspan x="56.76" y="0">CAMP</tspan><tspan class="cls-8"><tspan class="cls-15" x="0" y="12.8">S</tspan><tspan x="4.95" y="12.8">t</tspan><tspan class="cls-17" x="8.56" y="12.8">r</tspan><tspan class="cls-14" x="12.04" y="12.8">a</tspan><tspan class="cls-9" x="16.77" y="12.8">t</tspan><tspan class="cls-21" x="20.33" y="12.8">e</tspan><tspan class="cls-11" x="25.38" y="12.8">gy P</tspan><tspan class="cls-30" x="43.04" y="12.8">r</tspan><tspan x="46.43" y="12.8">o</tspan><tspan class="cls-10" x="51.61" y="12.8">c</tspan><tspan class="cls-21" x="56.47" y="12.8">e</tspan><tspan x="61.52" y="12.8">ss.</tspan><tspan x="0" y="23.6">Q</tspan><tspan class="cls-9" x="7.4" y="23.6">u</tspan><tspan x="12.52" y="23.6">an</tspan><tspan class="cls-10" x="22.5" y="23.6">d</tspan><tspan class="cls-11" x="27.85" y="23.6">o l&apos;</tspan><tspan class="cls-9" x="39.07" y="23.6">id</tspan><tspan class="cls-21" x="46.71" y="23.6">e</tspan><tspan x="51.76" y="23.6">a</tspan><tspan x="0" y="34.4">in</tspan><tspan class="cls-10" x="7.5" y="34.4">c</tspan><tspan class="cls-12" x="12.36" y="34.4">o</tspan><tspan class="cls-27" x="17.45" y="34.4">n</tspan><tspan x="22.39" y="34.4">t</tspan><tspan class="cls-31" x="26" y="34.4">r</tspan><tspan x="29.48" y="34.4">a il me</tspan><tspan class="cls-13" x="55.7" y="34.4">r</tspan><tspan class="cls-9" x="59.09" y="34.4">c</tspan><tspan class="cls-14" x="63.95" y="34.4">a</tspan><tspan class="cls-9" x="68.68" y="34.4">t</tspan><tspan class="cls-11" x="72.24" y="34.4">o</tspan><tspan x="0" y="45.2">e </tspan><tspan class="cls-9" x="6.98" y="45.2">c</tspan><tspan class="cls-14" x="11.84" y="45.2">o</tspan><tspan x="16.94" y="45.2">minc</tspan><tspan class="cls-26" x="37.26" y="45.2">i</tspan><tspan x="39.55" y="45.2">ano i </tspan><tspan class="cls-26" x="61" y="45.2">gu</tspan><tspan x="71.45" y="45.2">ai</tspan></tspan><tspan class="cls-16"><tspan class="cls-24" x="0" y="56">M</tspan><tspan x="7.58" y="56">a</tspan><tspan class="cls-32" x="12.39" y="56">r</tspan><tspan class="cls-24" x="16.1" y="56">ke</tspan><tspan class="cls-26" x="25.6" y="56">t</tspan><tspan class="cls-23" x="29.17" y="56">e</tspan><tspan class="cls-17" x="34.17" y="56">r</tspan><tspan x="37.66" y="56">s</tspan><tspan class="cls-31" x="42" y="56" xml:space="preserve"> C</tspan><tspan class="cls-14" x="50.23" y="56">at</tspan><tspan x="58.47" y="56">an</tspan><tspan class="cls-9" x="68.45" y="56">i</tspan><tspan x="70.74" y="56">a</tspan></tspan></text><circle class="cls-33" cx="42" cy="28" r="20.43"/><text class="cls-34" transform="translate(74.75 35.17)">Sab</text><path d="M44.5,45.68A20.4,20.4,0,0,1,28.21,13,20.41,20.41,0,1,0,58.29,40.29,20.3,20.3,0,0,1,44.5,45.68Z"/><text class="cls-35" transform="translate(32.83 34.5)">18</text><circle class="cls-33" cx="42" cy="28" r="20.43"/><text class="cls-34" transform="translate(74.75 35.17)">Sab</text><path d="M44.5,45.68A20.4,20.4,0,0,1,28.21,13,20.41,20.41,0,1,0,58.29,40.29,20.3,20.3,0,0,1,44.5,45.68Z"/><text class="cls-35" transform="translate(32.83 34.5)">18</text></svg>