<svg id="Livello_1" data-name="Livello 1" xmlns="http://www.w3.org/2000/svg" viewBox="0 0 590 753"><defs><style>.cls-1,.cls-2,.cls-3,.cls-43{fill:none;stroke:#868686;stroke-miterlimit:10;stroke-width:0.5px;}.cls-2{stroke-dasharray:3.01 3.01;}.cls-3{stroke-dasharray:3 3;}.cls-4,.cls-7{fill:#517bbd;}.cls-5{font-size:10px;font-family:ProductSans-Regular, Product Sans;}.cls-17,.cls-44,.cls-45,.cls-5{fill:#343447;}.cls-6{letter-spacing:0.01em;}.cls-26,.cls-31,.cls-42,.cls-7{font-size:7px;}.cls-31,.cls-42,.cls-45,.cls-47,.cls-7{font-family:ProductSans-Bold, Product Sans;font-weight:700;}.cls-8{letter-spacing:-0.01em;}.cls-17,.cls-9{font-size:9px;}.cls-10{letter-spacing:0em;}.cls-11{letter-spacing:0em;}.cls-12{letter-spacing:0em;}.cls-13{letter-spacing:-0.01em;}.cls-14{letter-spacing:-0.03em;}.cls-15{letter-spacing:-0.01em;}.cls-16{letter-spacing:-0.02em;}.cls-18{letter-spacing:-0.02em;}.cls-19{letter-spacing:-0.03em;}.cls-20,.cls-26{letter-spacing:0em;}.cls-21{letter-spacing:-0.01em;}.cls-22{letter-spacing:0em;}.cls-23{letter-spacing:-0.02em;}.cls-24{letter-spacing:0em;}.cls-25{letter-spacing:-0.01em;}.cls-27{letter-spacing:-0.01em;}.cls-28{letter-spacing:-0.03em;}.cls-29{letter-spacing:-0.01em;}.cls-30{letter-spacing:-0.06em;}.cls-31,.cls-49{fill:#0a9a56;}.cls-32{letter-spacing:-0.01em;}.cls-33{letter-spacing:-0.02em;}.cls-34{letter-spacing:0em;}.cls-35{letter-spacing:-0.06em;}.cls-36{letter-spacing:-0.08em;}.cls-37{letter-spacing:0.01em;}.cls-38{letter-spacing:-0.03em;}.cls-39{letter-spacing:-0.02em;}.cls-40{letter-spacing:0em;}.cls-41,.cls-42{fill:#db4437;}.cls-43{stroke-dasharray:2.98 2.98;}.cls-45,.cls-47{font-size:18px;}.cls-46{letter-spacing:-0.05em;}.cls-47{fill:#fff;}.cls-48{letter-spacing:-0.02em;}</style></defs><title>Tavola disegno 13</title><line class="cls-1" x1="251.67" y1="23" x2="251.67" y2="24.5"/><line class="cls-2" x1="251.67" y1="27.51" x2="251.67" y2="441.99"/><line class="cls-1" x1="251.67" y1="443.5" x2="251.67" y2="445"/><line class="cls-1" x1="39.33" y1="51.27" x2="39.33" y2="52.77"/><line class="cls-3" x1="39.33" y1="55.77" x2="39.33" y2="715"/><line class="cls-1" x1="39.33" y1="716.5" x2="39.33" y2="718"/><circle class="cls-4" cx="251.58" cy="347.28" r="4"/><text class="cls-5" transform="translate(218.67 350.78)"><tspan class="cls-6">1</tspan><tspan x="3.94" y="0">5:</tspan><tspan class="cls-6" x="11.81" y="0">1</tspan><tspan x="15.75" y="0">5</tspan></text><text class="cls-7" transform="translate(268.17 350.78)"><tspan class="cls-8">C</tspan><tspan x="5.07" y="0">ODELAB</tspan><tspan class="cls-9"><tspan x="0" y="12.8">Primi p</tspan><tspan class="cls-10" x="28.92" y="12.8">a</tspan><tspan x="33.69" y="12.8">s</tspan><tspan class="cls-11" x="38.03" y="12.8">s</tspan><tspan class="cls-12" x="42.34" y="12.8">i </tspan><tspan class="cls-11" x="46.65" y="12.8">c</tspan><tspan class="cls-13" x="51.51" y="12.8">o</tspan><tspan x="56.6" y="12.8">n</tspan><tspan class="cls-10" x="0" y="23.6">G</tspan><tspan x="7.25" y="23.6">oog</tspan><tspan class="cls-10" x="22.99" y="23.6">l</tspan><tspan x="25.13" y="23.6">e</tspan><tspan class="cls-14" x="30.13" y="23.6"> </tspan><tspan x="31.84" y="23.6">As</tspan><tspan class="cls-11" x="42.63" y="23.6">s</tspan><tspan class="cls-12" x="46.93" y="23.6">i</tspan><tspan class="cls-11" x="49.27" y="23.6">s</tspan><tspan class="cls-15" x="53.57" y="23.6">t</tspan><tspan class="cls-12" x="57.09" y="23.6">a</tspan><tspan class="cls-16" x="61.9" y="23.6">n</tspan><tspan class="cls-12" x="66.84" y="23.6">t</tspan><tspan x="0" y="34.4">e D</tspan><tspan class="cls-10" x="13.45" y="34.4">i</tspan><tspan x="15.74" y="34.4">a</tspan><tspan class="cls-10" x="20.56" y="34.4">l</tspan><tspan x="22.7" y="34.4">og</tspan><tspan class="cls-11" x="33.25" y="34.4">fl</tspan><tspan class="cls-13" x="38.74" y="34.4">o</tspan><tspan x="43.84" y="34.4">w</tspan></tspan><tspan class="cls-17"><tspan x="0" y="45.2">Azzur</tspan><tspan class="cls-18" x="23.89" y="45.2">r</tspan><tspan x="27.38" y="45.2">a </tspan><tspan class="cls-10" x="34.17" y="45.2">Rag</tspan><tspan class="cls-15" x="49.81" y="45.2">o</tspan><tspan x="54.9" y="45.2">ne</tspan></tspan></text><circle class="cls-4" cx="251.58" cy="444.62" r="4"/><text class="cls-5" transform="translate(218.67 448.12)">17:00</text><text class="cls-7" transform="translate(268.17 448.12)"><tspan class="cls-19">KO<tspan class="cls-20" x="10.02" y="0">TLIN B</tspan><tspan class="cls-21" x="30.79" y="0">O</tspan><tspan x="36.48" y="0">OT</tspan><tspan class="cls-20" x="45.89" y="0">CAMP</tspan></tspan><tspan class="cls-9"><tspan class="cls-13" x="0" y="12.8">Jo</tspan><tspan class="cls-12" x="10" y="12.8">in </tspan><tspan class="cls-22" x="19.48" y="12.8">t</tspan><tspan x="23.13" y="12.8">he </tspan><tspan class="cls-18" x="35.28" y="12.8">K</tspan><tspan class="cls-23" x="41.12" y="12.8">o</tspan><tspan class="cls-22" x="46.17" y="12.8">t</tspan><tspan x="49.82" y="12.8">lin </tspan><tspan class="cls-11" x="61.49" y="12.8">sid</tspan><tspan x="73.43" y="12.8">e,</tspan><tspan class="cls-13" x="0" y="23.6">w</tspan><tspan class="cls-24" x="7.15" y="23.6">e </tspan><tspan class="cls-10" x="14.14" y="23.6">h</tspan><tspan class="cls-15" x="19.26" y="23.6">a</tspan><tspan class="cls-25" x="23.98" y="23.6">v</tspan><tspan x="28.86" y="23.6">e </tspan><tspan class="cls-10" x="35.85" y="23.6">c</tspan><tspan x="40.71" y="23.6">o</tspan><tspan class="cls-10" x="45.89" y="23.6">o</tspan><tspan class="cls-12" x="51.03" y="23.6">k</tspan><tspan class="cls-10" x="55.8" y="23.6">i</tspan><tspan class="cls-22" x="58.09" y="23.6">e</tspan><tspan class="cls-24" x="63.13" y="23.6">s</tspan><tspan class="cls-26" x="67.48" y="23.6"></tspan></tspan><tspan class="cls-17"><tspan class="cls-15" x="0" y="34.4">R</tspan><tspan class="cls-27" x="5.49" y="34.4">o</tspan><tspan x="10.63" y="34.4">be</tspan><tspan class="cls-10" x="21.03" y="34.4">rt</tspan><tspan x="28.3" y="34.4">o</tspan><tspan class="cls-18" x="33.49" y="34.4"> </tspan><tspan x="35.29" y="34.4">O</tspan><tspan class="cls-28" x="42.69" y="34.4">r</tspan><tspan x="46.12" y="34.4">giu</tspan></tspan></text><circle class="cls-4" cx="39.24" cy="577.95" r="4"/><text class="cls-5" transform="translate(6.33 581.45)"><tspan class="cls-29">2</tspan><tspan x="5.1" y="0">1:00</tspan></text><text class="cls-5" transform="translate(6.33 721.45)">22:00</text><text class="cls-7" transform="translate(55.83 580.78)"><tspan class="cls-19">KO<tspan class="cls-20" x="10.02" y="0">TLIN B</tspan><tspan class="cls-21" x="30.79" y="0">O</tspan><tspan x="36.48" y="0">OT</tspan><tspan class="cls-20" x="45.89" y="0">CAMP</tspan></tspan><tspan class="cls-9"><tspan class="cls-13" x="0" y="12.8">Jo</tspan><tspan class="cls-12" x="10" y="12.8">in </tspan><tspan class="cls-22" x="19.48" y="12.8">t</tspan><tspan x="23.13" y="12.8">he </tspan><tspan class="cls-18" x="35.28" y="12.8">K</tspan><tspan class="cls-23" x="41.12" y="12.8">o</tspan><tspan class="cls-22" x="46.17" y="12.8">t</tspan><tspan x="49.82" y="12.8">lin </tspan><tspan class="cls-11" x="61.49" y="12.8">sid</tspan><tspan x="73.43" y="12.8">e,</tspan><tspan class="cls-13" x="0" y="23.6">w</tspan><tspan class="cls-24" x="7.15" y="23.6">e </tspan><tspan class="cls-10" x="14.14" y="23.6">h</tspan><tspan class="cls-15" x="19.26" y="23.6">a</tspan><tspan class="cls-25" x="23.98" y="23.6">v</tspan><tspan x="28.86" y="23.6">e </tspan><tspan class="cls-10" x="35.85" y="23.6">c</tspan><tspan x="40.71" y="23.6">o</tspan><tspan class="cls-10" x="45.89" y="23.6">o</tspan><tspan class="cls-12" x="51.03" y="23.6">k</tspan><tspan class="cls-10" x="55.8" y="23.6">i</tspan><tspan class="cls-22" x="58.09" y="23.6">e</tspan><tspan class="cls-24" x="63.13" y="23.6">s</tspan><tspan class="cls-26" x="67.48" y="23.6"></tspan></tspan><tspan class="cls-17"><tspan class="cls-15" x="0" y="34.4">R</tspan><tspan class="cls-27" x="5.49" y="34.4">o</tspan><tspan x="10.63" y="34.4">be</tspan><tspan class="cls-10" x="21.03" y="34.4">rt</tspan><tspan x="28.3" y="34.4">o</tspan><tspan class="cls-18" x="33.49" y="34.4"> </tspan><tspan x="35.29" y="34.4">O</tspan><tspan class="cls-28" x="42.69" y="34.4">r</tspan><tspan x="46.12" y="34.4">giu</tspan><tspan x="0" y="45.2">e B</tspan><tspan class="cls-13" x="12.65" y="45.2">o</tspan><tspan x="17.74" y="45.2">ris </tspan><tspan class="cls-15" x="30.06" y="45.2">D</tspan><tspan class="cls-30" x="36.44" y="45.2">’</tspan><tspan x="38.32" y="45.2">A</tspan><tspan class="cls-10" x="44.77" y="45.2">m</tspan><tspan class="cls-15" x="52.64" y="45.2">a</tspan><tspan class="cls-10" x="57.37" y="45.2">t</tspan><tspan x="60.93" y="45.2">o</tspan></tspan></text><text class="cls-31" transform="translate(55.83 720.28)"><tspan class="cls-32">L</tspan><tspan class="cls-21" x="3.63" y="0">O</tspan><tspan x="9.32" y="0">CAL</tspan><tspan class="cls-33" x="23.2" y="0"> </tspan><tspan class="cls-8" x="24.6" y="0">G</tspan><tspan class="cls-34" x="30.2" y="0">AME</tspan><tspan class="cls-35" x="45.26" y="0"> </tspan><tspan class="cls-21" x="46.38" y="0">J</tspan><tspan class="cls-34" x="50.2" y="0">AM</tspan><tspan class="cls-9"><tspan class="cls-36" x="0" y="12.8">T</tspan><tspan class="cls-37" x="4.53" y="12.8">e</tspan><tspan class="cls-12" x="9.58" y="12.8">am </tspan><tspan class="cls-11" x="24.29" y="12.8">c</tspan><tspan class="cls-38" x="29.15" y="12.8">r</tspan><tspan class="cls-37" x="32.54" y="12.8">e</tspan><tspan class="cls-13" x="37.59" y="12.8">a</tspan><tspan class="cls-22" x="42.32" y="12.8">t</tspan><tspan class="cls-10" x="45.97" y="12.8">i</tspan><tspan class="cls-13" x="48.26" y="12.8">o</tspan><tspan x="53.35" y="12.8">n</tspan><tspan x="0" y="23.6">&amp;</tspan><tspan class="cls-14" x="5.82" y="23.6"> </tspan><tspan class="cls-16" x="7.53" y="23.6">S</tspan><tspan class="cls-15" x="12.48" y="23.6">t</tspan><tspan class="cls-12" x="16" y="23.6">art</tspan></tspan></text><text class="cls-31" transform="translate(484.83 494.78)"><tspan class="cls-19">KO<tspan class="cls-20" x="10.02" y="0">TLIN B</tspan><tspan class="cls-21" x="30.79" y="0">O</tspan><tspan x="36.48" y="0">OT</tspan><tspan class="cls-20" x="45.89" y="0">CAMP</tspan></tspan><tspan class="cls-32" x="0" y="10.8">L</tspan><tspan class="cls-21" x="3.63" y="10.8">O</tspan><tspan x="9.32" y="10.8">CAL</tspan><tspan class="cls-33" x="23.2" y="10.8"> </tspan><tspan class="cls-8" x="24.6" y="10.8">G</tspan><tspan class="cls-34" x="30.2" y="10.8">AME</tspan><tspan class="cls-35" x="45.26" y="10.8"> </tspan><tspan class="cls-21" x="46.38" y="10.8">J</tspan><tspan class="cls-34" x="50.2" y="10.8">AM</tspan><tspan class="cls-9"><tspan class="cls-39" x="0" y="23.6">C</tspan><tspan class="cls-13" x="6.43" y="23.6">o</tspan><tspan class="cls-10" x="11.52" y="23.6">n</tspan><tspan class="cls-22" x="16.64" y="23.6">se</tspan><tspan x="26.08" y="23.6">g</tspan><tspan class="cls-10" x="31.45" y="23.6">n</tspan><tspan x="36.58" y="23.6">a </tspan><tspan class="cls-11" x="43.37" y="23.6">p</tspan><tspan class="cls-14" x="48.69" y="23.6">r</tspan><tspan class="cls-12" x="52.08" y="23.6">o</tspan><tspan class="cls-10" x="57.27" y="23.6">g</tspan><tspan class="cls-25" x="62.59" y="23.6">e</tspan><tspan class="cls-40" x="67.46" y="23.6">tt</tspan><tspan x="73.99" y="23.6">i</tspan></tspan></text><circle class="cls-4" cx="251.58" cy="218.12" r="4"/><text class="cls-5" transform="translate(218.67 221.62)">11:<tspan class="cls-6" x="10" y="0">1</tspan><tspan x="13.94" y="0">5</tspan></text><text class="cls-7" transform="translate(268.17 221.62)"><tspan class="cls-19">KO<tspan class="cls-20" x="10.02" y="0">TLIN B</tspan><tspan class="cls-21" x="30.79" y="0">O</tspan><tspan x="36.48" y="0">OT</tspan><tspan class="cls-20" x="45.89" y="0">CAMP</tspan></tspan><tspan class="cls-9"><tspan class="cls-13" x="0" y="12.8">Jo</tspan><tspan class="cls-12" x="10" y="12.8">in </tspan><tspan class="cls-22" x="19.48" y="12.8">t</tspan><tspan x="23.13" y="12.8">he </tspan><tspan class="cls-18" x="35.28" y="12.8">K</tspan><tspan class="cls-23" x="41.12" y="12.8">o</tspan><tspan class="cls-22" x="46.17" y="12.8">t</tspan><tspan x="49.82" y="12.8">lin </tspan><tspan class="cls-11" x="61.49" y="12.8">sid</tspan><tspan x="73.43" y="12.8">e,</tspan><tspan class="cls-13" x="0" y="23.6">w</tspan><tspan class="cls-24" x="7.15" y="23.6">e </tspan><tspan class="cls-10" x="14.14" y="23.6">h</tspan><tspan class="cls-15" x="19.26" y="23.6">a</tspan><tspan class="cls-25" x="23.98" y="23.6">v</tspan><tspan x="28.86" y="23.6">e </tspan><tspan class="cls-10" x="35.85" y="23.6">c</tspan><tspan x="40.71" y="23.6">o</tspan><tspan class="cls-10" x="45.89" y="23.6">o</tspan><tspan class="cls-12" x="51.03" y="23.6">k</tspan><tspan class="cls-10" x="55.8" y="23.6">i</tspan><tspan class="cls-22" x="58.09" y="23.6">e</tspan><tspan class="cls-24" x="63.13" y="23.6">s</tspan><tspan class="cls-26" x="67.48" y="23.6"></tspan></tspan><tspan class="cls-17"><tspan class="cls-15" x="0" y="34.4">R</tspan><tspan class="cls-27" x="5.49" y="34.4">o</tspan><tspan x="10.63" y="34.4">be</tspan><tspan class="cls-10" x="21.03" y="34.4">rt</tspan><tspan x="28.3" y="34.4">o</tspan><tspan class="cls-18" x="33.49" y="34.4"> </tspan><tspan x="35.29" y="34.4">O</tspan><tspan class="cls-28" x="42.69" y="34.4">r</tspan><tspan x="46.12" y="34.4">giu</tspan></tspan></text><circle class="cls-41" cx="251.58" cy="84.12" r="4"/><text class="cls-5" transform="translate(218.67 87.62)"><tspan xml:space="preserve"> 9:00</tspan></text><text class="cls-42" transform="translate(268.17 87.62)">MARKET<tspan class="cls-8" x="28.16" y="0">I</tspan><tspan x="30.04" y="0">G B</tspan><tspan class="cls-8" x="41.66" y="0">O</tspan><tspan class="cls-19" x="47.34" y="0">OT</tspan><tspan x="56.76" y="0">CAMP</tspan><tspan class="cls-9"><tspan class="cls-16" x="0" y="12.8">S</tspan><tspan x="4.95" y="12.8">t</tspan><tspan class="cls-18" x="8.56" y="12.8">r</tspan><tspan class="cls-15" x="12.04" y="12.8">a</tspan><tspan class="cls-10" x="16.77" y="12.8">t</tspan><tspan class="cls-22" x="20.33" y="12.8">e</tspan><tspan class="cls-12" x="25.38" y="12.8">gy P</tspan><tspan class="cls-38" x="43.04" y="12.8">r</tspan><tspan x="46.43" y="12.8">o</tspan><tspan class="cls-11" x="51.61" y="12.8">c</tspan><tspan class="cls-22" x="56.47" y="12.8">e</tspan><tspan x="61.52" y="12.8">ss.</tspan><tspan x="0" y="23.6">Q</tspan><tspan class="cls-10" x="7.4" y="23.6">u</tspan><tspan x="12.52" y="23.6">an</tspan><tspan class="cls-11" x="22.5" y="23.6">d</tspan><tspan class="cls-12" x="27.85" y="23.6">o l&apos;</tspan><tspan class="cls-10" x="39.07" y="23.6">id</tspan><tspan class="cls-22" x="46.71" y="23.6">e</tspan><tspan x="51.76" y="23.6">a</tspan><tspan x="0" y="34.4">in</tspan><tspan class="cls-11" x="7.5" y="34.4">c</tspan><tspan class="cls-13" x="12.36" y="34.4">o</tspan><tspan class="cls-28" x="17.45" y="34.4">n</tspan><tspan x="22.39" y="34.4">t</tspan><tspan class="cls-39" x="26" y="34.4">r</tspan><tspan x="29.48" y="34.4">a il me</tspan><tspan class="cls-14" x="55.7" y="34.4">r</tspan><tspan class="cls-10" x="59.09" y="34.4">c</tspan><tspan class="cls-15" x="63.95" y="34.4">a</tspan><tspan class="cls-10" x="68.68" y="34.4">t</tspan><tspan class="cls-12" x="72.24" y="34.4">o</tspan><tspan x="0" y="45.2">e </tspan><tspan class="cls-10" x="6.98" y="45.2">c</tspan><tspan class="cls-15" x="11.84" y="45.2">o</tspan><tspan x="16.94" y="45.2">minc</tspan><tspan class="cls-27" x="37.26" y="45.2">i</tspan><tspan x="39.55" y="45.2">ano i </tspan><tspan class="cls-27" x="61" y="45.2">gu</tspan><tspan x="71.45" y="45.2">ai</tspan></tspan><tspan class="cls-17"><tspan class="cls-25" x="0" y="56">M</tspan><tspan x="7.58" y="56">a</tspan><tspan class="cls-40" x="12.39" y="56">r</tspan><tspan class="cls-25" x="16.1" y="56">ke</tspan><tspan class="cls-27" x="25.6" y="56">t</tspan><tspan class="cls-24" x="29.17" y="56">e</tspan><tspan class="cls-18" x="34.17" y="56">r</tspan><tspan x="37.66" y="56">s</tspan><tspan class="cls-39" x="42" y="56" xml:space="preserve"> C</tspan><tspan class="cls-15" x="50.23" y="56">at</tspan><tspan x="58.47" y="56">an</tspan><tspan class="cls-10" x="68.45" y="56">i</tspan><tspan x="70.74" y="56">a</tspan></tspan></text><line class="cls-1" x1="468.67" y1="23" x2="468.67" y2="24.5"/><line class="cls-43" x1="468.67" y1="27.48" x2="468.67" y2="491.01"/><line class="cls-1" x1="468.67" y1="492.5" x2="468.67" y2="494"/><circle class="cls-41" cx="468.58" cy="347.28" r="4"/><text class="cls-5" transform="translate(435.67 350.78)"><tspan class="cls-6">1</tspan><tspan x="3.94" y="0">5:</tspan><tspan class="cls-6" x="11.81" y="0">1</tspan><tspan x="15.75" y="0">5</tspan></text><text class="cls-5" transform="translate(434.67 496.28)">18:00</text><text class="cls-42" transform="translate(485.17 350.78)">MARKET<tspan class="cls-8" x="28.16" y="0">I</tspan><tspan x="30.04" y="0">G MINI</tspan><tspan class="cls-33" x="52.22" y="0">-</tspan><tspan class="cls-21" x="55.24" y="0">W</tspan><tspan x="61.84" y="0">ORKS</tspan><tspan class="cls-21" x="80.65" y="0">H</tspan><tspan x="85.58" y="0">OP</tspan><tspan class="cls-9"><tspan class="cls-39" x="0" y="12.8">C</tspan><tspan class="cls-13" x="6.43" y="12.8">o</tspan><tspan x="11.52" y="12.8">me sfr</tspan><tspan class="cls-22" x="38.01" y="12.8">u</tspan><tspan class="cls-15" x="43.22" y="12.8">tt</tspan><tspan x="49.61" y="12.8">a</tspan><tspan class="cls-38" x="54.42" y="12.8">r</tspan><tspan class="cls-24" x="57.81" y="12.8">e un </tspan><tspan class="cls-10" x="77.11" y="12.8">bl</tspan><tspan class="cls-12" x="84.61" y="12.8">og</tspan><tspan x="0" y="23.6">e </tspan><tspan class="cls-15" x="6.98" y="23.6">a</tspan><tspan class="cls-12" x="11.71" y="23.6">tt</tspan><tspan class="cls-39" x="18.19" y="23.6">r</tspan><tspan x="21.67" y="23.6">ar</tspan><tspan class="cls-14" x="30.15" y="23.6">r</tspan><tspan x="33.54" y="23.6">e t</tspan><tspan class="cls-39" x="44.14" y="23.6">r</tspan><tspan class="cls-13" x="47.62" y="23.6">aff</tspan><tspan class="cls-10" x="52.34" y="23.6">ic</tspan><tspan x="65.61" y="23.6">o</tspan><tspan x="0" y="34.4">q</tspan><tspan class="cls-10" x="5.36" y="34.4">u</tspan><tspan x="10.48" y="34.4">ali</tspan><tspan class="cls-10" x="19.82" y="34.4">fic</tspan><tspan class="cls-15" x="30.24" y="34.4">a</tspan><tspan class="cls-10" x="34.96" y="34.4">t</tspan><tspan class="cls-12" x="38.53" y="34.4">o </tspan><tspan class="cls-25" x="45.69" y="34.4">v</tspan><tspan x="50.57" y="34.4">e</tspan><tspan class="cls-39" x="55.57" y="34.4">r</tspan><tspan class="cls-22" x="59.06" y="34.4">s</tspan><tspan x="63.45" y="34.4">o</tspan><tspan x="0" y="45.2">il t</tspan><tspan class="cls-10" x="10.11" y="45.2">u</tspan><tspan x="15.23" y="45.2">o </tspan><tspan class="cls-10" x="22.39" y="45.2">sit</tspan><tspan class="cls-12" x="32.54" y="45.2">o </tspan><tspan class="cls-13" x="39.71" y="45.2">w</tspan><tspan class="cls-24" x="46.86" y="45.2">eb</tspan></tspan><tspan class="cls-17"><tspan class="cls-25" x="0" y="56">M</tspan><tspan x="7.58" y="56">ar</tspan><tspan class="cls-10" x="16.06" y="56">i</tspan><tspan x="18.34" y="56">alui</tspan><tspan class="cls-37" x="32.84" y="56">s</tspan><tspan x="37.23" y="56">a</tspan><tspan class="cls-38" x="42.05" y="56"> </tspan><tspan class="cls-24" x="43.76" y="56">Sa</tspan><tspan class="cls-13" x="53.75" y="56">n</tspan><tspan x="58.82" y="56">fili</tspan><tspan class="cls-15" x="68.95" y="56">p</tspan><tspan x="74.22" y="56">po</tspan><tspan x="0" y="66.8">e</tspan><tspan class="cls-39" x="5" y="66.8"> </tspan><tspan class="cls-12" x="6.8" y="66.8">G</tspan><tspan class="cls-10" x="14.09" y="66.8">i</tspan><tspan class="cls-15" x="16.38" y="66.8">ov</tspan><tspan x="26.4" y="66.8">anni</tspan><tspan class="cls-14" x="43.87" y="66.8"> </tspan><tspan x="45.58" y="66.8">A</tspan><tspan class="cls-10" x="52.03" y="66.8">m</tspan><tspan class="cls-15" x="59.9" y="66.8">a</tspan><tspan class="cls-27" x="64.63" y="66.8">t</tspan><tspan x="68.19" y="66.8">o</tspan></tspan></text><circle class="cls-41" cx="468.58" cy="173.12" r="4"/><text class="cls-5" transform="translate(435.67 176.62)">10:30</text><circle class="cls-4" cx="468.58" cy="103.12" r="4"/><text class="cls-5" transform="translate(435.67 106.62)"><tspan xml:space="preserve"> 9:30</tspan></text><text class="cls-7" transform="translate(485.17 106.62)"><tspan class="cls-19">KO<tspan class="cls-20" x="10.02" y="0">TLIN B</tspan><tspan class="cls-21" x="30.79" y="0">O</tspan><tspan x="36.48" y="0">OT</tspan><tspan class="cls-20" x="45.89" y="0">CAMP</tspan></tspan><tspan class="cls-9"><tspan class="cls-13" x="0" y="12.8">Jo</tspan><tspan class="cls-12" x="10" y="12.8">in </tspan><tspan class="cls-22" x="19.48" y="12.8">t</tspan><tspan x="23.13" y="12.8">he </tspan><tspan class="cls-18" x="35.28" y="12.8">K</tspan><tspan class="cls-23" x="41.12" y="12.8">o</tspan><tspan class="cls-22" x="46.17" y="12.8">t</tspan><tspan x="49.82" y="12.8">lin </tspan><tspan class="cls-11" x="61.49" y="12.8">sid</tspan><tspan x="73.43" y="12.8">e,</tspan><tspan class="cls-13" x="0" y="23.6">w</tspan><tspan class="cls-24" x="7.15" y="23.6">e </tspan><tspan class="cls-10" x="14.14" y="23.6">h</tspan><tspan class="cls-15" x="19.26" y="23.6">a</tspan><tspan class="cls-25" x="23.98" y="23.6">v</tspan><tspan x="28.86" y="23.6">e </tspan><tspan class="cls-10" x="35.85" y="23.6">c</tspan><tspan x="40.71" y="23.6">o</tspan><tspan class="cls-10" x="45.89" y="23.6">o</tspan><tspan class="cls-12" x="51.03" y="23.6">k</tspan><tspan class="cls-10" x="55.8" y="23.6">i</tspan><tspan class="cls-22" x="58.09" y="23.6">e</tspan><tspan class="cls-24" x="63.13" y="23.6">s</tspan><tspan class="cls-26" x="67.48" y="23.6"></tspan></tspan><tspan class="cls-17"><tspan class="cls-15" x="0" y="34.4">R</tspan><tspan class="cls-27" x="5.49" y="34.4">o</tspan><tspan x="10.63" y="34.4">be</tspan><tspan class="cls-10" x="21.03" y="34.4">rt</tspan><tspan x="28.3" y="34.4">o</tspan><tspan class="cls-18" x="33.49" y="34.4"> </tspan><tspan x="35.29" y="34.4">O</tspan><tspan class="cls-28" x="42.69" y="34.4">r</tspan><tspan x="46.12" y="34.4">giu</tspan><tspan x="0" y="45.2">e B</tspan><tspan class="cls-13" x="12.65" y="45.2">o</tspan><tspan x="17.74" y="45.2">ris </tspan><tspan class="cls-15" x="30.06" y="45.2">D</tspan><tspan class="cls-30" x="36.44" y="45.2">’</tspan><tspan x="38.32" y="45.2">A</tspan><tspan class="cls-10" x="44.77" y="45.2">m</tspan><tspan class="cls-15" x="52.64" y="45.2">a</tspan><tspan class="cls-10" x="57.37" y="45.2">t</tspan><tspan x="60.93" y="45.2">o</tspan></tspan></text><circle class="cls-44" cx="39.67" cy="27.45" r="20.43"/><text class="cls-45" transform="translate(72.42 34.62)"><tspan class="cls-46">V</tspan><tspan x="11.34" y="0">en</tspan></text><path d="M42.17,45.13a20.4,20.4,0,0,1-16.3-32.72A20.41,20.41,0,1,0,56,39.74,20.32,20.32,0,0,1,42.17,45.13Z"/><text class="cls-47" transform="translate(30.77 33.95)">17</text><circle class="cls-44" cx="252.67" cy="27.45" r="20.43"/><text class="cls-45" transform="translate(285.42 34.62)">Sab</text><path d="M255.17,45.13a20.4,20.4,0,0,1-16.3-32.72A20.41,20.41,0,1,0,269,39.74,20.32,20.32,0,0,1,255.17,45.13Z"/><text class="cls-47" transform="translate(243.5 33.95)">18</text><circle class="cls-44" cx="468.92" cy="27.45" r="20.43"/><text class="cls-45" transform="translate(501.67 34.62)"><tspan class="cls-48">D</tspan><tspan class="cls-15" x="12.67" y="0">o</tspan><tspan x="22.86" y="0">m</tspan></text><path d="M471.42,45.13a20.4,20.4,0,0,1-16.3-32.72,20.41,20.41,0,1,0,30.09,27.33A20.32,20.32,0,0,1,471.42,45.13Z"/><text class="cls-47" transform="translate(459.82 33.95)">19</text><circle class="cls-44" cx="39.67" cy="27.45" r="20.43"/><text class="cls-45" transform="translate(72.42 34.62)"><tspan class="cls-46">V</tspan><tspan x="11.34" y="0">en</tspan></text><path d="M42.17,45.13a20.4,20.4,0,0,1-16.3-32.72A20.41,20.41,0,1,0,56,39.74,20.32,20.32,0,0,1,42.17,45.13Z"/><text class="cls-47" transform="translate(30.77 33.95)">17</text><circle class="cls-44" cx="252.67" cy="27.45" r="20.43"/><text class="cls-45" transform="translate(285.42 34.62)">Sab</text><path d="M255.17,45.13a20.4,20.4,0,0,1-16.3-32.72A20.41,20.41,0,1,0,269,39.74,20.32,20.32,0,0,1,255.17,45.13Z"/><text class="cls-47" transform="translate(243.5 33.95)">18</text><circle class="cls-44" cx="468.92" cy="27.45" r="20.43"/><text class="cls-45" transform="translate(501.67 34.62)"><tspan class="cls-48">D</tspan><tspan class="cls-15" x="12.67" y="0">o</tspan><tspan x="22.86" y="0">m</tspan></text><path d="M471.42,45.13a20.4,20.4,0,0,1-16.3-32.72,20.41,20.41,0,1,0,30.09,27.33A20.32,20.32,0,0,1,471.42,45.13Z"/><text class="cls-47" transform="translate(459.82 33.95)">19</text><text class="cls-42" transform="translate(485.67 176.62)">MARKET<tspan class="cls-8" x="28.16" y="0">I</tspan><tspan x="30.04" y="0">G B</tspan><tspan class="cls-8" x="41.66" y="0">O</tspan><tspan class="cls-19" x="47.34" y="0">OT</tspan><tspan x="56.76" y="0">CAMP</tspan><tspan class="cls-9"><tspan class="cls-16" x="0" y="12.8">S</tspan><tspan x="4.95" y="12.8">t</tspan><tspan class="cls-18" x="8.56" y="12.8">r</tspan><tspan class="cls-15" x="12.04" y="12.8">a</tspan><tspan class="cls-10" x="16.77" y="12.8">t</tspan><tspan class="cls-22" x="20.33" y="12.8">e</tspan><tspan class="cls-12" x="25.38" y="12.8">gy P</tspan><tspan class="cls-38" x="43.04" y="12.8">r</tspan><tspan x="46.43" y="12.8">o</tspan><tspan class="cls-11" x="51.61" y="12.8">c</tspan><tspan class="cls-22" x="56.47" y="12.8">e</tspan><tspan x="61.52" y="12.8">ss.</tspan><tspan x="0" y="23.6">Q</tspan><tspan class="cls-10" x="7.4" y="23.6">u</tspan><tspan x="12.52" y="23.6">an</tspan><tspan class="cls-11" x="22.5" y="23.6">d</tspan><tspan class="cls-12" x="27.85" y="23.6">o l&apos;</tspan><tspan class="cls-10" x="39.07" y="23.6">id</tspan><tspan class="cls-22" x="46.71" y="23.6">e</tspan><tspan x="51.76" y="23.6">a</tspan><tspan x="0" y="34.4">in</tspan><tspan class="cls-11" x="7.5" y="34.4">c</tspan><tspan class="cls-13" x="12.36" y="34.4">o</tspan><tspan class="cls-28" x="17.45" y="34.4">n</tspan><tspan x="22.39" y="34.4">t</tspan><tspan class="cls-39" x="26" y="34.4">r</tspan><tspan x="29.48" y="34.4">a il me</tspan><tspan class="cls-14" x="55.7" y="34.4">r</tspan><tspan class="cls-10" x="59.09" y="34.4">c</tspan><tspan class="cls-15" x="63.95" y="34.4">a</tspan><tspan class="cls-10" x="68.68" y="34.4">t</tspan><tspan class="cls-12" x="72.24" y="34.4">o</tspan><tspan x="0" y="45.2">e </tspan><tspan class="cls-10" x="6.98" y="45.2">c</tspan><tspan class="cls-15" x="11.84" y="45.2">o</tspan><tspan x="16.94" y="45.2">minc</tspan><tspan class="cls-27" x="37.26" y="45.2">i</tspan><tspan x="39.55" y="45.2">ano i </tspan><tspan class="cls-27" x="61" y="45.2">gu</tspan><tspan x="71.45" y="45.2">ai</tspan></tspan><tspan class="cls-17"><tspan class="cls-25" x="0" y="56">M</tspan><tspan x="7.58" y="56">a</tspan><tspan class="cls-40" x="12.39" y="56">r</tspan><tspan class="cls-25" x="16.1" y="56">ke</tspan><tspan class="cls-27" x="25.6" y="56">t</tspan><tspan class="cls-24" x="29.17" y="56">e</tspan><tspan class="cls-18" x="34.17" y="56">r</tspan><tspan x="37.66" y="56">s</tspan><tspan class="cls-39" x="42" y="56" xml:space="preserve"> C</tspan><tspan class="cls-15" x="50.23" y="56">at</tspan><tspan x="58.47" y="56">an</tspan><tspan class="cls-10" x="68.45" y="56">i</tspan><tspan x="70.74" y="56">a</tspan></tspan></text><circle class="cls-49" cx="39.24" cy="717.95" r="4"/><circle class="cls-49" cx="468.24" cy="492.58" r="4"/></svg>