<svg id="Livello_1" data-name="Livello 1" xmlns="http://www.w3.org/2000/svg" viewBox="0 0 193 510"><defs><style>.cls-1,.cls-25,.cls-33,.cls-36{font-size:7px;}.cls-1,.cls-44{fill:#0a9a56;}.cls-1,.cls-25,.cls-33,.cls-40,.cls-42{font-family:ProductSans-Bold, Product Sans;font-weight:700;}.cls-2{letter-spacing:-0.03em;}.cls-3,.cls-36{letter-spacing:0em;}.cls-4{letter-spacing:-0.01em;}.cls-5{letter-spacing:-0.01em;}.cls-6{letter-spacing:-0.02em;}.cls-7{letter-spacing:-0.01em;}.cls-8{letter-spacing:0em;}.cls-9{letter-spacing:-0.06em;}.cls-10,.cls-29{font-size:9px;}.cls-11{letter-spacing:-0.02em;}.cls-12{letter-spacing:-0.01em;}.cls-13{letter-spacing:0em;}.cls-14{letter-spacing:0em;}.cls-15{letter-spacing:0em;}.cls-16{letter-spacing:-0.03em;}.cls-17{letter-spacing:0em;}.cls-18{letter-spacing:-0.01em;}.cls-19{letter-spacing:0em;}.cls-20,.cls-21{fill:none;stroke:#868686;stroke-miterlimit:10;stroke-width:0.5px;}.cls-21{stroke-dasharray:3.01 3.01;}.cls-22,.cls-25{fill:#db4437;}.cls-23{font-size:10px;font-family:ProductSans-Regular, Product Sans;}.cls-23,.cls-29,.cls-39,.cls-40{fill:#343447;}.cls-24{letter-spacing:0.01em;}.cls-26{letter-spacing:-0.01em;}.cls-27{letter-spacing:-0.03em;}.cls-28{letter-spacing:0em;}.cls-30{letter-spacing:0.01em;}.cls-31{letter-spacing:-0.01em;}.cls-32,.cls-33{fill:#517bbd;}.cls-34{letter-spacing:-0.02em;}.cls-35{letter-spacing:-0.02em;}.cls-37{letter-spacing:-0.03em;}.cls-38{letter-spacing:-0.06em;}.cls-40,.cls-42{font-size:18px;}.cls-41{letter-spacing:-0.02em;}.cls-42{fill:#fff;}.cls-43{letter-spacing:-0.02em;}</style></defs><title>Tavola disegno 5 copia 5</title><text class="cls-1" transform="translate(57.83 474.78)"><tspan class="cls-2">KO<tspan class="cls-3" x="10.02" y="0">TLIN B</tspan><tspan class="cls-4" x="30.79" y="0">O</tspan><tspan x="36.48" y="0">OT</tspan><tspan class="cls-3" x="45.89" y="0">CAMP</tspan></tspan><tspan class="cls-5" x="0" y="10.8">L</tspan><tspan class="cls-4" x="3.63" y="10.8">O</tspan><tspan x="9.32" y="10.8">CAL</tspan><tspan class="cls-6" x="23.2" y="10.8"> </tspan><tspan class="cls-7" x="24.6" y="10.8">G</tspan><tspan class="cls-8" x="30.2" y="10.8">AME</tspan><tspan class="cls-9" x="45.26" y="10.8"> </tspan><tspan class="cls-4" x="46.38" y="10.8">J</tspan><tspan class="cls-8" x="50.2" y="10.8">AM</tspan><tspan class="cls-10"><tspan class="cls-11" x="0" y="23.6">C</tspan><tspan class="cls-12" x="6.43" y="23.6">o</tspan><tspan class="cls-13" x="11.52" y="23.6">n</tspan><tspan class="cls-14" x="16.64" y="23.6">se</tspan><tspan x="26.08" y="23.6">g</tspan><tspan class="cls-13" x="31.45" y="23.6">n</tspan><tspan x="36.58" y="23.6">a </tspan><tspan class="cls-15" x="43.37" y="23.6">p</tspan><tspan class="cls-16" x="48.69" y="23.6">r</tspan><tspan class="cls-17" x="52.08" y="23.6">o</tspan><tspan class="cls-13" x="57.27" y="23.6">g</tspan><tspan class="cls-18" x="62.59" y="23.6">e</tspan><tspan class="cls-19" x="67.46" y="23.6">tt</tspan><tspan x="73.99" y="23.6">i</tspan></tspan></text><line class="cls-20" x1="41.67" y1="39" x2="41.67" y2="40.5"/><line class="cls-21" x1="41.67" y1="43.51" x2="41.67" y2="469.99"/><line class="cls-20" x1="41.67" y1="471.5" x2="41.67" y2="473"/><circle class="cls-22" cx="41.58" cy="327.28" r="4"/><text class="cls-23" transform="translate(8.67 330.78)"><tspan class="cls-24">1</tspan><tspan x="3.94" y="0">5:</tspan><tspan class="cls-24" x="11.81" y="0">1</tspan><tspan x="15.75" y="0">5</tspan></text><text class="cls-23" transform="translate(7.67 476.28)">18:00</text><text class="cls-25" transform="translate(58.17 330.78)">MARKET<tspan class="cls-7" x="28.16" y="0">I</tspan><tspan x="30.04" y="0">G MINI</tspan><tspan class="cls-6" x="52.22" y="0">-</tspan><tspan class="cls-4" x="55.24" y="0">W</tspan><tspan x="61.84" y="0">ORKS</tspan><tspan class="cls-4" x="80.65" y="0">H</tspan><tspan x="85.58" y="0">OP</tspan><tspan class="cls-10"><tspan class="cls-11" x="0" y="12.8">C</tspan><tspan class="cls-12" x="6.43" y="12.8">o</tspan><tspan x="11.52" y="12.8">me sfr</tspan><tspan class="cls-14" x="38.01" y="12.8">u</tspan><tspan class="cls-26" x="43.22" y="12.8">tt</tspan><tspan x="49.61" y="12.8">a</tspan><tspan class="cls-27" x="54.42" y="12.8">r</tspan><tspan class="cls-28" x="57.81" y="12.8">e un </tspan><tspan class="cls-13" x="77.11" y="12.8">bl</tspan><tspan class="cls-17" x="84.61" y="12.8">og</tspan><tspan x="0" y="23.6">e </tspan><tspan class="cls-26" x="6.98" y="23.6">a</tspan><tspan class="cls-17" x="11.71" y="23.6">tt</tspan><tspan class="cls-11" x="18.19" y="23.6">r</tspan><tspan x="21.67" y="23.6">ar</tspan><tspan class="cls-16" x="30.15" y="23.6">r</tspan><tspan x="33.54" y="23.6">e t</tspan><tspan class="cls-11" x="44.14" y="23.6">r</tspan><tspan class="cls-12" x="47.62" y="23.6">aff</tspan><tspan class="cls-13" x="52.34" y="23.6">ic</tspan><tspan x="65.61" y="23.6">o</tspan><tspan x="0" y="34.4">q</tspan><tspan class="cls-13" x="5.36" y="34.4">u</tspan><tspan x="10.48" y="34.4">ali</tspan><tspan class="cls-13" x="19.82" y="34.4">fic</tspan><tspan class="cls-26" x="30.24" y="34.4">a</tspan><tspan class="cls-13" x="34.96" y="34.4">t</tspan><tspan class="cls-17" x="38.53" y="34.4">o </tspan><tspan class="cls-18" x="45.69" y="34.4">v</tspan><tspan x="50.57" y="34.4">e</tspan><tspan class="cls-11" x="55.57" y="34.4">r</tspan><tspan class="cls-14" x="59.06" y="34.4">s</tspan><tspan x="63.45" y="34.4">o</tspan><tspan x="0" y="45.2">il t</tspan><tspan class="cls-13" x="10.11" y="45.2">u</tspan><tspan x="15.23" y="45.2">o </tspan><tspan class="cls-13" x="22.39" y="45.2">sit</tspan><tspan class="cls-17" x="32.54" y="45.2">o </tspan><tspan class="cls-12" x="39.71" y="45.2">w</tspan><tspan class="cls-28" x="46.86" y="45.2">eb</tspan></tspan><tspan class="cls-29"><tspan class="cls-18" x="0" y="56">M</tspan><tspan x="7.58" y="56">ar</tspan><tspan class="cls-13" x="16.06" y="56">i</tspan><tspan x="18.34" y="56">alui</tspan><tspan class="cls-30" x="32.84" y="56">s</tspan><tspan x="37.23" y="56">a</tspan><tspan class="cls-27" x="42.05" y="56"> </tspan><tspan class="cls-28" x="43.76" y="56">Sa</tspan><tspan class="cls-12" x="53.75" y="56">n</tspan><tspan x="58.82" y="56">fili</tspan><tspan class="cls-26" x="68.95" y="56">p</tspan><tspan x="74.22" y="56">po</tspan><tspan x="0" y="66.8">e</tspan><tspan class="cls-11" x="5" y="66.8"> </tspan><tspan class="cls-17" x="6.8" y="66.8">G</tspan><tspan class="cls-13" x="14.09" y="66.8">i</tspan><tspan class="cls-26" x="16.38" y="66.8">ov</tspan><tspan x="26.4" y="66.8">anni</tspan><tspan class="cls-16" x="43.87" y="66.8"> </tspan><tspan x="45.58" y="66.8">A</tspan><tspan class="cls-13" x="52.03" y="66.8">m</tspan><tspan class="cls-26" x="59.9" y="66.8">a</tspan><tspan class="cls-31" x="64.63" y="66.8">t</tspan><tspan x="68.19" y="66.8">o</tspan></tspan></text><circle class="cls-22" cx="41.58" cy="153.12" r="4"/><text class="cls-23" transform="translate(8.67 156.62)">10:30</text><circle class="cls-32" cx="41.58" cy="83.12" r="4"/><text class="cls-23" transform="translate(8.67 86.62)"><tspan xml:space="preserve"> 9:30</tspan></text><text class="cls-33" transform="translate(58.17 86.62)"><tspan class="cls-2">KO<tspan class="cls-3" x="10.02" y="0">TLIN B</tspan><tspan class="cls-4" x="30.79" y="0">O</tspan><tspan x="36.48" y="0">OT</tspan><tspan class="cls-3" x="45.89" y="0">CAMP</tspan></tspan><tspan class="cls-10"><tspan class="cls-12" x="0" y="12.8">Jo</tspan><tspan class="cls-17" x="10" y="12.8">in </tspan><tspan class="cls-14" x="19.48" y="12.8">t</tspan><tspan x="23.13" y="12.8">he </tspan><tspan class="cls-34" x="35.28" y="12.8">K</tspan><tspan class="cls-35" x="41.12" y="12.8">o</tspan><tspan class="cls-14" x="46.17" y="12.8">t</tspan><tspan x="49.82" y="12.8">lin </tspan><tspan class="cls-15" x="61.49" y="12.8">sid</tspan><tspan x="73.43" y="12.8">e,</tspan><tspan class="cls-12" x="0" y="23.6">w</tspan><tspan class="cls-28" x="7.15" y="23.6">e </tspan><tspan class="cls-13" x="14.14" y="23.6">h</tspan><tspan class="cls-26" x="19.26" y="23.6">a</tspan><tspan class="cls-18" x="23.98" y="23.6">v</tspan><tspan x="28.86" y="23.6">e </tspan><tspan class="cls-13" x="35.85" y="23.6">c</tspan><tspan x="40.71" y="23.6">o</tspan><tspan class="cls-13" x="45.89" y="23.6">o</tspan><tspan class="cls-17" x="51.03" y="23.6">k</tspan><tspan class="cls-13" x="55.8" y="23.6">i</tspan><tspan class="cls-14" x="58.09" y="23.6">e</tspan><tspan class="cls-28" x="63.13" y="23.6">s</tspan><tspan class="cls-36" x="67.48" y="23.6"></tspan></tspan><tspan class="cls-29"><tspan class="cls-26" x="0" y="34.4">R</tspan><tspan class="cls-31" x="5.49" y="34.4">o</tspan><tspan x="10.63" y="34.4">be</tspan><tspan class="cls-13" x="21.03" y="34.4">rt</tspan><tspan x="28.3" y="34.4">o</tspan><tspan class="cls-34" x="33.49" y="34.4"> </tspan><tspan x="35.29" y="34.4">O</tspan><tspan class="cls-37" x="42.69" y="34.4">r</tspan><tspan x="46.12" y="34.4">giu</tspan><tspan x="0" y="45.2">e B</tspan><tspan class="cls-12" x="12.65" y="45.2">o</tspan><tspan x="17.74" y="45.2">ris </tspan><tspan class="cls-26" x="30.06" y="45.2">D</tspan><tspan class="cls-38" x="36.44" y="45.2">’</tspan><tspan x="38.32" y="45.2">A</tspan><tspan class="cls-13" x="44.77" y="45.2">m</tspan><tspan class="cls-26" x="52.64" y="45.2">a</tspan><tspan class="cls-13" x="57.37" y="45.2">t</tspan><tspan x="60.93" y="45.2">o</tspan></tspan></text><circle class="cls-39" cx="41.92" cy="28.45" r="20.43"/><text class="cls-40" transform="translate(74.67 35.62)"><tspan class="cls-41">D</tspan><tspan class="cls-26" x="12.67" y="0">o</tspan><tspan x="22.86" y="0">m</tspan></text><path d="M44.42,46.13a20.4,20.4,0,0,1-16.3-32.72A20.41,20.41,0,1,0,58.21,40.74,20.32,20.32,0,0,1,44.42,46.13Z"/><text class="cls-42" transform="translate(32.82 34.95)">19</text><circle class="cls-39" cx="41.92" cy="28.45" r="20.43"/><text class="cls-40" transform="translate(74.67 35.62)"><tspan class="cls-41">D</tspan><tspan class="cls-26" x="12.67" y="0">o</tspan><tspan x="22.86" y="0">m</tspan></text><path d="M44.42,46.13a20.4,20.4,0,0,1-16.3-32.72A20.41,20.41,0,1,0,58.21,40.74,20.32,20.32,0,0,1,44.42,46.13Z"/><text class="cls-42" transform="translate(32.82 34.95)">19</text><text class="cls-25" transform="translate(58.67 156.62)">MARKET<tspan class="cls-7" x="28.16" y="0">I</tspan><tspan x="30.04" y="0">G B</tspan><tspan class="cls-7" x="41.66" y="0">O</tspan><tspan class="cls-2" x="47.34" y="0">OT</tspan><tspan x="56.76" y="0">CAMP</tspan><tspan class="cls-10"><tspan class="cls-43" x="0" y="12.8">S</tspan><tspan x="4.95" y="12.8">t</tspan><tspan class="cls-34" x="8.56" y="12.8">r</tspan><tspan class="cls-26" x="12.04" y="12.8">a</tspan><tspan class="cls-13" x="16.77" y="12.8">t</tspan><tspan class="cls-14" x="20.33" y="12.8">e</tspan><tspan class="cls-17" x="25.38" y="12.8">gy P</tspan><tspan class="cls-27" x="43.04" y="12.8">r</tspan><tspan x="46.43" y="12.8">o</tspan><tspan class="cls-15" x="51.61" y="12.8">c</tspan><tspan class="cls-14" x="56.47" y="12.8">e</tspan><tspan x="61.52" y="12.8">ss.</tspan><tspan x="0" y="23.6">Q</tspan><tspan class="cls-13" x="7.4" y="23.6">u</tspan><tspan x="12.52" y="23.6">an</tspan><tspan class="cls-15" x="22.5" y="23.6">d</tspan><tspan class="cls-17" x="27.85" y="23.6">o l&apos;</tspan><tspan class="cls-13" x="39.07" y="23.6">id</tspan><tspan class="cls-14" x="46.71" y="23.6">e</tspan><tspan x="51.76" y="23.6">a</tspan><tspan x="0" y="34.4">in</tspan><tspan class="cls-15" x="7.5" y="34.4">c</tspan><tspan class="cls-12" x="12.36" y="34.4">o</tspan><tspan class="cls-37" x="17.45" y="34.4">n</tspan><tspan x="22.39" y="34.4">t</tspan><tspan class="cls-11" x="26" y="34.4">r</tspan><tspan x="29.48" y="34.4">a il me</tspan><tspan class="cls-16" x="55.7" y="34.4">r</tspan><tspan class="cls-13" x="59.09" y="34.4">c</tspan><tspan class="cls-26" x="63.95" y="34.4">a</tspan><tspan class="cls-13" x="68.68" y="34.4">t</tspan><tspan class="cls-17" x="72.24" y="34.4">o</tspan><tspan x="0" y="45.2">e </tspan><tspan class="cls-13" x="6.98" y="45.2">c</tspan><tspan class="cls-26" x="11.84" y="45.2">o</tspan><tspan x="16.94" y="45.2">minc</tspan><tspan class="cls-31" x="37.26" y="45.2">i</tspan><tspan x="39.55" y="45.2">ano i </tspan><tspan class="cls-31" x="61" y="45.2">gu</tspan><tspan x="71.45" y="45.2">ai</tspan></tspan><tspan class="cls-29"><tspan class="cls-18" x="0" y="56">M</tspan><tspan x="7.58" y="56">a</tspan><tspan class="cls-19" x="12.39" y="56">r</tspan><tspan class="cls-18" x="16.1" y="56">ke</tspan><tspan class="cls-31" x="25.6" y="56">t</tspan><tspan class="cls-28" x="29.17" y="56">e</tspan><tspan class="cls-34" x="34.17" y="56">r</tspan><tspan x="37.66" y="56">s</tspan><tspan class="cls-11" x="42" y="56" xml:space="preserve"> C</tspan><tspan class="cls-26" x="50.23" y="56">at</tspan><tspan x="58.47" y="56">an</tspan><tspan class="cls-13" x="68.45" y="56">i</tspan><tspan x="70.74" y="56">a</tspan></tspan></text><circle class="cls-44" cx="41.24" cy="472.58" r="4"/></svg>