<svg id="Livello_1" data-name="Livello 1" xmlns="http://www.w3.org/2000/svg" viewBox="0 0 193 262"><defs><style>.cls-1,.cls-2{fill:none;stroke:#868686;stroke-miterlimit:10;stroke-width:0.5px;}.cls-2{stroke-dasharray:2.98 2.98;}.cls-3,.cls-6{fill:#517bbd;}.cls-4{font-size:10px;font-family:ProductSans-Regular, Product Sans;}.cls-22,.cls-37,.cls-38,.cls-4{fill:#343447;}.cls-5{letter-spacing:-0.01em;}.cls-21,.cls-26,.cls-6{font-size:7px;}.cls-26,.cls-38,.cls-40,.cls-6{font-family:ProductSans-Bold, Product Sans;font-weight:700;}.cls-7{letter-spacing:-0.03em;}.cls-21,.cls-8{letter-spacing:0em;}.cls-9{letter-spacing:-0.01em;}.cls-10,.cls-22{font-size:9px;}.cls-11{letter-spacing:-0.01em;}.cls-12{letter-spacing:0em;}.cls-13{letter-spacing:0em;}.cls-14{letter-spacing:-0.02em;}.cls-15{letter-spacing:-0.02em;}.cls-16{letter-spacing:0em;}.cls-17{letter-spacing:0em;}.cls-18{letter-spacing:0em;}.cls-19{letter-spacing:-0.01em;}.cls-20{letter-spacing:-0.01em;}.cls-23{letter-spacing:-0.01em;}.cls-24{letter-spacing:-0.03em;}.cls-25{letter-spacing:-0.06em;}.cls-26,.cls-41{fill:#0a9a56;}.cls-27{letter-spacing:-0.01em;}.cls-28{letter-spacing:-0.02em;}.cls-29{letter-spacing:-0.01em;}.cls-30{letter-spacing:0em;}.cls-31{letter-spacing:-0.06em;}.cls-32{letter-spacing:-0.08em;}.cls-33{letter-spacing:0.01em;}.cls-34{letter-spacing:-0.03em;}.cls-35{letter-spacing:-0.03em;}.cls-36{letter-spacing:-0.02em;}.cls-38,.cls-40{font-size:18px;}.cls-39{letter-spacing:-0.05em;}.cls-40{fill:#fff;}</style></defs><title>Tavola disegno 5 copia 3</title><line class="cls-1" x1="41.33" y1="52.27" x2="41.33" y2="53.77"/><line class="cls-2" x1="41.33" y1="56.75" x2="41.33" y2="222.01"/><line class="cls-1" x1="41.33" y1="223.5" x2="41.33" y2="225"/><circle class="cls-3" cx="41.24" cy="84.95" r="4"/><text class="cls-4" transform="translate(8.33 88.45)"><tspan class="cls-5">2</tspan><tspan x="5.1" y="0">1:00</tspan></text><text class="cls-4" transform="translate(8.33 228.45)">22:00</text><text class="cls-6" transform="translate(57.83 87.78)"><tspan class="cls-7">KO<tspan class="cls-8" x="10.02" y="0">TLIN B</tspan><tspan class="cls-9" x="30.79" y="0">O</tspan><tspan x="36.48" y="0">OT</tspan><tspan class="cls-8" x="45.89" y="0">CAMP</tspan></tspan><tspan class="cls-10"><tspan class="cls-11" x="0" y="12.8">Jo</tspan><tspan class="cls-12" x="10" y="12.8">in </tspan><tspan class="cls-13" x="19.48" y="12.8">t</tspan><tspan x="23.13" y="12.8">he </tspan><tspan class="cls-14" x="35.28" y="12.8">K</tspan><tspan class="cls-15" x="41.12" y="12.8">o</tspan><tspan class="cls-13" x="46.17" y="12.8">t</tspan><tspan x="49.82" y="12.8">lin </tspan><tspan class="cls-16" x="61.49" y="12.8">sid</tspan><tspan x="73.43" y="12.8">e,</tspan><tspan class="cls-11" x="0" y="23.6">w</tspan><tspan class="cls-17" x="7.15" y="23.6">e </tspan><tspan class="cls-18" x="14.14" y="23.6">h</tspan><tspan class="cls-19" x="19.26" y="23.6">a</tspan><tspan class="cls-20" x="23.98" y="23.6">v</tspan><tspan x="28.86" y="23.6">e </tspan><tspan class="cls-18" x="35.85" y="23.6">c</tspan><tspan x="40.71" y="23.6">o</tspan><tspan class="cls-18" x="45.89" y="23.6">o</tspan><tspan class="cls-12" x="51.03" y="23.6">k</tspan><tspan class="cls-18" x="55.8" y="23.6">i</tspan><tspan class="cls-13" x="58.09" y="23.6">e</tspan><tspan class="cls-17" x="63.13" y="23.6">s</tspan><tspan class="cls-21" x="67.48" y="23.6"></tspan></tspan><tspan class="cls-22"><tspan class="cls-19" x="0" y="34.4">R</tspan><tspan class="cls-23" x="5.49" y="34.4">o</tspan><tspan x="10.63" y="34.4">be</tspan><tspan class="cls-18" x="21.03" y="34.4">rt</tspan><tspan x="28.3" y="34.4">o</tspan><tspan class="cls-14" x="33.49" y="34.4"> </tspan><tspan x="35.29" y="34.4">O</tspan><tspan class="cls-24" x="42.69" y="34.4">r</tspan><tspan x="46.12" y="34.4">giu</tspan><tspan x="0" y="45.2">e B</tspan><tspan class="cls-11" x="12.65" y="45.2">o</tspan><tspan x="17.74" y="45.2">ris </tspan><tspan class="cls-19" x="30.06" y="45.2">D</tspan><tspan class="cls-25" x="36.44" y="45.2">’</tspan><tspan x="38.32" y="45.2">A</tspan><tspan class="cls-18" x="44.77" y="45.2">m</tspan><tspan class="cls-19" x="52.64" y="45.2">a</tspan><tspan class="cls-18" x="57.37" y="45.2">t</tspan><tspan x="60.93" y="45.2">o</tspan></tspan></text><text class="cls-26" transform="translate(57.83 227.28)"><tspan class="cls-27">L</tspan><tspan class="cls-9" x="3.63" y="0">O</tspan><tspan x="9.32" y="0">CAL</tspan><tspan class="cls-28" x="23.2" y="0"> </tspan><tspan class="cls-29" x="24.6" y="0">G</tspan><tspan class="cls-30" x="30.2" y="0">AME</tspan><tspan class="cls-31" x="45.26" y="0"> </tspan><tspan class="cls-9" x="46.38" y="0">J</tspan><tspan class="cls-30" x="50.2" y="0">AM</tspan><tspan class="cls-10"><tspan class="cls-32" x="0" y="12.8">T</tspan><tspan class="cls-33" x="4.53" y="12.8">e</tspan><tspan class="cls-12" x="9.58" y="12.8">am </tspan><tspan class="cls-16" x="24.29" y="12.8">c</tspan><tspan class="cls-34" x="29.15" y="12.8">r</tspan><tspan class="cls-33" x="32.54" y="12.8">e</tspan><tspan class="cls-11" x="37.59" y="12.8">a</tspan><tspan class="cls-13" x="42.32" y="12.8">t</tspan><tspan class="cls-18" x="45.97" y="12.8">i</tspan><tspan class="cls-11" x="48.26" y="12.8">o</tspan><tspan x="53.35" y="12.8">n</tspan><tspan x="0" y="23.6">&amp;</tspan><tspan class="cls-35" x="5.82" y="23.6"> </tspan><tspan class="cls-36" x="7.53" y="23.6">S</tspan><tspan class="cls-19" x="12.48" y="23.6">t</tspan><tspan class="cls-12" x="16" y="23.6">art</tspan></tspan></text><circle class="cls-37" cx="41.67" cy="28.45" r="20.43"/><text class="cls-38" transform="translate(74.42 35.62)"><tspan class="cls-39">V</tspan><tspan x="11.34" y="0">en</tspan></text><path d="M44.17,46.13a20.4,20.4,0,0,1-16.3-32.72A20.41,20.41,0,1,0,58,40.74,20.32,20.32,0,0,1,44.17,46.13Z"/><text class="cls-40" transform="translate(32.77 34.95)">17</text><circle class="cls-37" cx="41.67" cy="28.45" r="20.43"/><text class="cls-38" transform="translate(74.42 35.62)"><tspan class="cls-39">V</tspan><tspan x="11.34" y="0">en</tspan></text><path d="M44.17,46.13a20.4,20.4,0,0,1-16.3-32.72A20.41,20.41,0,1,0,58,40.74,20.32,20.32,0,0,1,44.17,46.13Z"/><text class="cls-40" transform="translate(32.77 34.95)">17</text><circle class="cls-41" cx="41.24" cy="224.95" r="4"/></svg>