<svg id="Livello_1" data-name="Livello 1" xmlns="http://www.w3.org/2000/svg" viewBox="0 0 193 749"><defs><style>.cls-1,.cls-47{fill:#0a9a56;}.cls-2,.cls-30{font-size:10px;font-family:ProductSans-Regular, Product Sans;}.cls-15,.cls-2,.cls-30,.cls-44,.cls-48{fill:#343447;}.cls-3{letter-spacing:-0.01em;}.cls-4,.cls-5{fill:none;stroke:#868686;stroke-miterlimit:10;stroke-width:0.5px;}.cls-5{stroke-dasharray:3 3;}.cls-6,.cls-8{fill:#517bbd;}.cls-7{letter-spacing:0.01em;}.cls-19,.cls-31,.cls-39,.cls-47,.cls-48,.cls-8{font-size:9px;}.cls-19,.cls-31,.cls-39,.cls-44,.cls-46,.cls-47,.cls-48,.cls-8{font-family:ProductSans-Bold, Product Sans;font-weight:700;}.cls-9{letter-spacing:-0.03em;}.cls-10{letter-spacing:0em;}.cls-11{letter-spacing:-0.02em;}.cls-12{letter-spacing:-0.01em;}.cls-13{letter-spacing:0em;}.cls-14{letter-spacing:-0.01em;}.cls-16{letter-spacing:-0.02em;}.cls-17{letter-spacing:-0.01em;}.cls-18,.cls-19{fill:#009c58;}.cls-20{letter-spacing:-0.02em;}.cls-21,.cls-30{letter-spacing:0em;}.cls-22{letter-spacing:0em;}.cls-23{letter-spacing:-0.01em;}.cls-24{letter-spacing:0.02em;}.cls-25{letter-spacing:0.01em;}.cls-26{letter-spacing:0em;}.cls-27{letter-spacing:0em;}.cls-28{letter-spacing:-0.03em;}.cls-29,.cls-31{fill:#db4437;}.cls-32{letter-spacing:0.01em;}.cls-33{letter-spacing:0em;}.cls-34{letter-spacing:0em;}.cls-35{letter-spacing:-0.03em;}.cls-36{letter-spacing:0.01em;}.cls-37{letter-spacing:-0.01em;}.cls-38,.cls-39{fill:#f3b301;}.cls-40{letter-spacing:-0.02em;}.cls-41{letter-spacing:-0.04em;}.cls-42{letter-spacing:-0.06em;}.cls-43{letter-spacing:0.01em;}.cls-44,.cls-46{font-size:18px;}.cls-45{letter-spacing:-0.02em;}.cls-46{fill:#fff;}.cls-49{letter-spacing:-0.03em;}.cls-50{letter-spacing:0.01em;}</style></defs><title>Tavola disegno 5 copia 2</title><circle class="cls-1" cx="40.58" cy="709.5" r="4"/><text class="cls-2" transform="translate(7.67 713)"><tspan class="cls-3">2</tspan><tspan x="5.1" y="0">1:00</tspan></text><circle class="cls-1" cx="40.58" cy="732.5" r="4"/><text class="cls-2" transform="translate(7.67 736)"><tspan class="cls-3">2</tspan><tspan x="5.1" y="0">1:20</tspan></text><circle class="cls-1" cx="40.91" cy="667" r="4"/><text class="cls-2" transform="translate(8 670.5)">20:00</text><line class="cls-4" x1="40.67" y1="32" x2="40.67" y2="33.5"/><line class="cls-5" x1="40.67" y1="36.5" x2="40.67" y2="730"/><line class="cls-4" x1="40.67" y1="731.5" x2="40.67" y2="733"/><circle class="cls-6" cx="40.58" cy="377.83" r="4"/><text class="cls-2" transform="translate(7.67 381.33)"><tspan class="cls-7">1</tspan><tspan x="3.94" y="0">5:</tspan><tspan class="cls-7" x="11.81" y="0">1</tspan><tspan x="15.75" y="0">5</tspan></text><text class="cls-8" transform="translate(57.17 381.33)">I <tspan class="cls-9" x="4.49" y="0">r</tspan><tspan class="cls-10" x="7.88" y="0">o</tspan><tspan x="13.02" y="0">b</tspan><tspan class="cls-11" x="18.42" y="0">o</tspan><tspan x="23.47" y="0">t </tspan><tspan class="cls-12" x="29.06" y="0">g</tspan><tspan x="34.39" y="0">u</tspan><tspan class="cls-10" x="39.55" y="0">id</tspan><tspan x="47.2" y="0">ano</tspan><tspan x="0" y="10.8">m</tspan><tspan class="cls-13" x="7.92" y="10.8">e</tspan><tspan x="12.97" y="10.8">gl</tspan><tspan class="cls-12" x="20.53" y="10.8">i</tspan><tspan x="22.81" y="10.8">o di n</tspan><tspan class="cls-14" x="44.85" y="10.8">o</tspan><tspan x="49.95" y="10.8">i?</tspan><tspan class="cls-15"><tspan class="cls-16" x="0" y="21.6">Fr</tspan><tspan x="8.33" y="21.6">an</tspan><tspan class="cls-10" x="18.31" y="21.6">c</tspan><tspan class="cls-13" x="23.17" y="21.6">es</tspan><tspan class="cls-10" x="32.61" y="21.6">c</tspan><tspan x="37.47" y="21.6">o </tspan><tspan class="cls-17" x="44.63" y="21.6">Ro</tspan><tspan class="cls-10" x="55.21" y="21.6">m</tspan><tspan x="63.09" y="21.6">ano</tspan></tspan></text><circle class="cls-18" cx="40.58" cy="355.17" r="4"/><text class="cls-2" transform="translate(7.67 358.67)">14:00</text><text class="cls-19" transform="translate(57.17 358.67)">P<tspan class="cls-20" x="5.33" y="0">r</tspan><tspan x="8.81" y="0">an</tspan><tspan class="cls-14" x="18.79" y="0">z</tspan><tspan x="23.01" y="0">o</tspan></text><circle class="cls-6" cx="40.58" cy="418.17" r="4"/><text class="cls-2" transform="translate(7.67 421.67)"><tspan class="cls-21">1</tspan><tspan class="cls-22" x="3.89" y="0">6:</tspan><tspan class="cls-7" x="11.7" y="0">1</tspan><tspan x="15.64" y="0">5</tspan></text><text class="cls-8" transform="translate(57.17 421.67)">L&apos;<tspan class="cls-17" x="6.67" y="0">e</tspan><tspan class="cls-23" x="11.58" y="0">v</tspan><tspan class="cls-12" x="16.46" y="0">o</tspan><tspan x="21.6" y="0">l</tspan><tspan class="cls-24" x="23.79" y="0">u</tspan><tspan class="cls-25" x="29.09" y="0">z</tspan><tspan class="cls-12" x="33.49" y="0">i</tspan><tspan class="cls-17" x="35.77" y="0">o</tspan><tspan class="cls-26" x="40.87" y="0">ne </tspan><tspan class="cls-10" x="53.02" y="0">d</tspan><tspan class="cls-27" x="58.37" y="0">el</tspan><tspan class="cls-10" x="65.56" y="0">l</tspan><tspan class="cls-27" x="67.71" y="0">e</tspan><tspan class="cls-10" x="0" y="10.8">c</tspan><tspan x="4.86" y="10.8">ri</tspan><tspan class="cls-16" x="10.85" y="10.8">p</tspan><tspan class="cls-10" x="16.04" y="10.8">t</tspan><tspan class="cls-14" x="19.6" y="10.8">ov</tspan><tspan x="29.62" y="10.8">al</tspan><tspan class="cls-13" x="36.62" y="10.8">u</tspan><tspan class="cls-10" x="41.83" y="10.8">t</tspan><tspan x="45.4" y="10.8">e</tspan><tspan class="cls-15"><tspan x="0" y="21.6">L</tspan><tspan class="cls-14" x="4.81" y="21.6">o</tspan><tspan class="cls-9" x="9.9" y="21.6">r</tspan><tspan x="13.29" y="21.6">en</tspan><tspan class="cls-14" x="23.46" y="21.6">z</tspan><tspan x="27.68" y="21.6">o</tspan><tspan class="cls-20" x="32.87" y="21.6" xml:space="preserve"> C</tspan><tspan class="cls-17" x="41.09" y="21.6">at</tspan><tspan x="49.34" y="21.6">an</tspan><tspan class="cls-10" x="59.32" y="21.6">i</tspan><tspan x="61.6" y="21.6">a</tspan><tspan x="0" y="32.4">e</tspan><tspan class="cls-9" x="5" y="32.4"> </tspan><tspan class="cls-28" x="6.71" y="32.4">A</tspan><tspan class="cls-10" x="12.93" y="32.4">us</tspan><tspan class="cls-26" x="22.36" y="32.4">il</tspan><tspan class="cls-10" x="26.87" y="32.4">i</tspan><tspan x="29.16" y="32.4">a </tspan><tspan class="cls-11" x="35.95" y="32.4">N</tspan><tspan x="42.33" y="32.4">ap</tspan><tspan class="cls-12" x="52.51" y="32.4">o</tspan><tspan x="57.64" y="32.4">li</tspan></tspan></text><circle class="cls-29" cx="40.58" cy="467.5" r="4"/><text class="cls-30" transform="translate(7.67 471)">1<tspan class="cls-22" x="3.89" y="0">6:55</tspan></text><text class="cls-31" transform="translate(57.17 471)">Bu<tspan class="cls-16" x="10.83" y="0">y</tspan><tspan x="15.62" y="0">er pe</tspan><tspan class="cls-20" x="36.64" y="0">r</tspan><tspan class="cls-32" x="40.12" y="0">s</tspan><tspan class="cls-14" x="44.51" y="0">o</tspan><tspan class="cls-10" x="49.61" y="0">n</tspan><tspan x="54.73" y="0">a</tspan><tspan class="cls-10" x="0" y="10.8">d</tspan><tspan class="cls-17" x="5.35" y="10.8">at</tspan><tspan class="cls-26" x="13.6" y="10.8">a dri</tspan><tspan class="cls-23" x="31.79" y="10.8">v</tspan><tspan x="36.67" y="10.8">en</tspan><tspan class="cls-15"><tspan x="0" y="21.6">G</tspan><tspan class="cls-10" x="7.29" y="21.6">i</tspan><tspan class="cls-26" x="9.58" y="21.6">an</tspan><tspan class="cls-33" x="19.56" y="21.6">c</tspan><tspan x="24.42" y="21.6">a</tspan><tspan class="cls-34" x="29.23" y="21.6">r</tspan><tspan class="cls-10" x="32.94" y="21.6">l</tspan><tspan x="35.08" y="21.6">o</tspan><tspan class="cls-9" x="40.27" y="21.6"> </tspan><tspan x="41.98" y="21.6">Sci</tspan><tspan class="cls-13" x="54.39" y="21.6">u</tspan><tspan class="cls-10" x="59.6" y="21.6">t</tspan><tspan x="63.16" y="21.6">o</tspan></tspan></text><circle class="cls-18" cx="40.58" cy="501.5" r="4"/><text class="cls-2" transform="translate(7.67 505)">17:<tspan class="cls-7" x="11.39" y="0">1</tspan><tspan x="15.33" y="0">5</tspan></text><text class="cls-19" transform="translate(57.17 505)">B<tspan class="cls-9" x="5.66" y="0">r</tspan><tspan class="cls-13" x="9.05" y="0">e</tspan><tspan x="14.1" y="0">ak</tspan></text><circle class="cls-29" cx="40.58" cy="529.83" r="4"/><text class="cls-2" transform="translate(7.67 533.33)">17:45</text><text class="cls-31" transform="translate(57.17 533.33)"><tspan class="cls-16">C</tspan><tspan class="cls-14" x="6.43" y="0">o</tspan><tspan x="11.52" y="0">me t</tspan><tspan class="cls-13" x="30.03" y="0">u</tspan><tspan class="cls-10" x="35.24" y="0">t</tspan><tspan x="38.81" y="0">e</tspan><tspan class="cls-10" x="43.81" y="0">l</tspan><tspan x="45.95" y="0">a</tspan><tspan class="cls-35" x="50.77" y="0">r</tspan><tspan class="cls-27" x="54.16" y="0">e</tspan><tspan x="0" y="10.8">un </tspan><tspan class="cls-32" x="12.31" y="10.8">s</tspan><tspan class="cls-11" x="16.7" y="10.8">o</tspan><tspan class="cls-36" x="21.75" y="10.8">ft</tspan><tspan class="cls-14" x="28.36" y="10.8">w</tspan><tspan x="35.51" y="10.8">a</tspan><tspan class="cls-9" x="40.33" y="10.8">r</tspan><tspan x="43.72" y="10.8">e?</tspan><tspan class="cls-15"><tspan x="0" y="21.6">Ben</tspan><tspan class="cls-13" x="15.83" y="21.6">e</tspan><tspan class="cls-10" x="20.88" y="21.6">d</tspan><tspan class="cls-23" x="26.23" y="21.6">e</tspan><tspan class="cls-12" x="31.1" y="21.6">tt</tspan><tspan x="37.54" y="21.6">o</tspan><tspan class="cls-9" x="42.72" y="21.6"> </tspan><tspan x="44.43" y="21.6">A</tspan><tspan class="cls-10" x="50.88" y="21.6">m</tspan><tspan class="cls-17" x="58.75" y="21.6">at</tspan><tspan x="67" y="21.6">a</tspan><tspan x="0" y="32.4">e </tspan><tspan class="cls-9" x="6.98" y="32.4">F</tspan><tspan class="cls-13" x="11.74" y="32.4">e</tspan><tspan class="cls-10" x="16.78" y="32.4">d</tspan><tspan x="22.14" y="32.4">er</tspan><tspan class="cls-10" x="30.81" y="32.4">ic</tspan><tspan x="37.95" y="32.4">o </tspan><tspan class="cls-20" x="45.12" y="32.4">P</tspan><tspan x="50.26" y="32.4">apa</tspan></tspan></text><circle class="cls-29" cx="40.58" cy="583.5" r="4"/><text class="cls-2" transform="translate(7.67 587)">18:45</text><text class="cls-31" transform="translate(57.17 587)"><tspan class="cls-16">C</tspan><tspan class="cls-14" x="6.43" y="0">o</tspan><tspan x="11.52" y="0">me im</tspan><tspan class="cls-37" x="36.67" y="0">p</tspan><tspan class="cls-10" x="41.95" y="0">l</tspan><tspan x="44.09" y="0">eme</tspan><tspan class="cls-28" x="62.02" y="0">n</tspan><tspan class="cls-17" x="66.96" y="0">t</tspan><tspan x="70.48" y="0">a</tspan><tspan class="cls-35" x="75.29" y="0">r</tspan><tspan class="cls-27" x="78.69" y="0">e</tspan><tspan x="0" y="10.8">il </tspan><tspan class="cls-16" x="6.5" y="10.8">F</tspan><tspan x="11.34" y="10.8">unnel </tspan><tspan class="cls-10" x="36.01" y="10.8">d</tspan><tspan x="41.36" y="10.8">ei Pi</tspan><tspan class="cls-20" x="58.34" y="10.8">r</tspan><tspan class="cls-17" x="61.82" y="10.8">a</tspan><tspan class="cls-13" x="66.54" y="10.8">t</tspan><tspan x="70.2" y="10.8">i</tspan><tspan x="0" y="21.6">nel t</tspan><tspan class="cls-12" x="17.95" y="21.6">u</tspan><tspan x="23.07" y="21.6">o </tspan><tspan class="cls-10" x="30.23" y="21.6">bus</tspan><tspan x="45.01" y="21.6">in</tspan><tspan class="cls-13" x="52.51" y="21.6">e</tspan><tspan x="57.55" y="21.6">ss</tspan><tspan class="cls-15"><tspan class="cls-23" x="0" y="32.4">M</tspan><tspan x="7.58" y="32.4">a</tspan><tspan class="cls-35" x="12.39" y="32.4">r</tspan><tspan class="cls-33" x="15.79" y="32.4">c</tspan><tspan class="cls-26" x="20.65" y="32.4">o</tspan><tspan class="cls-16" x="25.83" y="32.4" xml:space="preserve"> C</tspan><tspan x="34.06" y="32.4">a</tspan><tspan class="cls-9" x="38.87" y="32.4">r</tspan><tspan x="42.26" y="32.4">di</tspan><tspan class="cls-10" x="49.99" y="32.4">l</tspan><tspan x="52.14" y="32.4">e</tspan></tspan></text><circle class="cls-18" cx="40.58" cy="631.17" r="4"/><text class="cls-2" transform="translate(7.67 634.67)">19:30</text><text class="cls-19" transform="translate(57.17 634.67)">B<tspan class="cls-9" x="5.66" y="0">r</tspan><tspan class="cls-13" x="9.05" y="0">e</tspan><tspan x="14.1" y="0">ak</tspan></text><circle class="cls-6" cx="40.58" cy="284.17" r="4"/><text class="cls-2" transform="translate(7.67 287.67)"><tspan class="cls-7">1</tspan><tspan x="3.94" y="0">2:55</tspan></text><text class="cls-8" transform="translate(57.17 287.67)">P<tspan class="cls-9" x="5.33" y="0">r</tspan><tspan class="cls-11" x="8.72" y="0">o</tspan><tspan class="cls-10" x="13.77" y="0">t</tspan><tspan class="cls-26" x="17.33" y="0">o</tspan><tspan class="cls-33" x="22.52" y="0">co</tspan><tspan x="32.52" y="0">lli IoT </tspan><tspan class="cls-33" x="56.12" y="0">c</tspan><tspan class="cls-14" x="60.98" y="0">o</tspan><tspan x="66.08" y="0">n</tspan><tspan class="cls-10" x="0" y="10.8">s</tspan><tspan x="4.3" y="10.8">i</tspan><tspan class="cls-33" x="6.63" y="10.8">st</tspan><tspan x="14.5" y="10.8">emi </tspan><tspan class="cls-10" x="31.73" y="10.8">p</tspan><tspan x="37.05" y="10.8">u</tspan><tspan class="cls-28" x="42.22" y="10.8">n</tspan><tspan class="cls-10" x="47.16" y="10.8">t</tspan><tspan x="50.72" y="10.8">o a </tspan><tspan class="cls-33" x="64.68" y="10.8">p</tspan><tspan x="70" y="10.8">u</tspan><tspan class="cls-28" x="75.17" y="10.8">n</tspan><tspan class="cls-10" x="80.11" y="10.8">t</tspan><tspan class="cls-26" x="83.67" y="10.8">o</tspan><tspan class="cls-15"><tspan x="0" y="21.6">Dan</tspan><tspan class="cls-10" x="16.45" y="21.6">i</tspan><tspan x="18.74" y="21.6">e</tspan><tspan class="cls-10" x="23.74" y="21.6">l</tspan><tspan x="25.88" y="21.6">e Pir</tspan><tspan class="cls-9" x="44.19" y="21.6">r</tspan><tspan class="cls-14" x="47.58" y="21.6">o</tspan><tspan x="52.68" y="21.6">ne</tspan></tspan></text><circle class="cls-38" cx="40.58" cy="204.67" r="4"/><text class="cls-2" transform="translate(7.67 208.17)">11:55</text><text class="cls-39" transform="translate(57.17 208.17)">La <tspan class="cls-9" x="11.6" y="0">r</tspan><tspan class="cls-13" x="14.99" y="0">e</tspan><tspan x="20.04" y="0">a</tspan><tspan class="cls-13" x="24.86" y="0">l</tspan><tspan class="cls-17" x="27.09" y="0">t</tspan><tspan x="30.61" y="0">à virt</tspan><tspan class="cls-12" x="52.06" y="0">u</tspan><tspan x="57.18" y="0">a</tspan><tspan class="cls-10" x="62" y="0">l</tspan><tspan class="cls-27" x="64.14" y="0">e</tspan><tspan class="cls-16" x="0" y="10.8">f</tspan><tspan x="3.39" y="10.8">a </tspan><tspan class="cls-23" x="10.19" y="10.8">v</tspan><tspan class="cls-14" x="15.07" y="10.8">o</tspan><tspan x="20.16" y="10.8">m</tspan><tspan class="cls-10" x="28.08" y="10.8">i</tspan><tspan class="cls-14" x="30.37" y="10.8">t</tspan><tspan x="33.88" y="10.8">a</tspan><tspan class="cls-9" x="38.7" y="10.8">r</tspan><tspan x="42.09" y="10.8">e</tspan><tspan class="cls-15"><tspan class="cls-23" x="0" y="21.6">M</tspan><tspan x="7.58" y="21.6">a</tspan><tspan class="cls-35" x="12.39" y="21.6">r</tspan><tspan class="cls-33" x="15.79" y="21.6">c</tspan><tspan class="cls-26" x="20.65" y="21.6">o</tspan><tspan class="cls-16" x="25.83" y="21.6"> </tspan><tspan x="27.63" y="21.6">G</tspan><tspan class="cls-12" x="34.92" y="21.6">i</tspan><tspan x="37.21" y="21.6">amm</tspan><tspan class="cls-23" x="57.86" y="21.6">e</tspan><tspan class="cls-13" x="62.73" y="21.6">tt</tspan><tspan class="cls-26" x="69.25" y="21.6">i</tspan></tspan></text><circle class="cls-29" cx="40.58" cy="244" r="4"/><text class="cls-2" transform="translate(7.67 247.5)"><tspan class="cls-7">1</tspan><tspan x="3.94" y="0">2:25</tspan></text><text class="cls-31" transform="translate(57.17 247.5)"><tspan class="cls-16">F</tspan><tspan class="cls-26" x="4.84" y="0">ail - </tspan><tspan class="cls-9" x="22.19" y="0">r</tspan><tspan class="cls-13" x="25.59" y="0">e</tspan><tspan class="cls-10" x="30.64" y="0">d</tspan><tspan class="cls-17" x="35.99" y="0">e</tspan><tspan x="40.9" y="0">fin</tspan><tspan class="cls-10" x="51.68" y="0">i</tspan><tspan class="cls-13" x="53.96" y="0">t</tspan><tspan class="cls-12" x="57.62" y="0">i</tspan><tspan class="cls-17" x="59.9" y="0">o</tspan><tspan class="cls-26" x="65" y="0">n w</tspan><tspan class="cls-10" x="79.39" y="0">i</tspan><tspan class="cls-34" x="81.67" y="0">t</tspan><tspan x="85.33" y="0">h</tspan><tspan x="0" y="10.8">L</tspan><tspan class="cls-13" x="4.81" y="10.8">e</tspan><tspan x="9.85" y="10.8">an</tspan><tspan class="cls-9" x="19.84" y="10.8"> </tspan><tspan class="cls-40" x="21.55" y="10.8">S</tspan><tspan class="cls-17" x="26.5" y="10.8">t</tspan><tspan x="30.01" y="10.8">artup and</tspan><tspan class="cls-9" x="70.04" y="10.8"> </tspan><tspan class="cls-17" x="71.75" y="10.8">A</tspan><tspan x="78.1" y="10.8">gi</tspan><tspan class="cls-10" x="85.8" y="10.8">l</tspan><tspan x="87.95" y="10.8">e</tspan><tspan class="cls-15"><tspan x="0" y="21.6">Sal</tspan><tspan class="cls-23" x="12.18" y="21.6">v</tspan><tspan x="17.05" y="21.6">o</tspan><tspan class="cls-41" x="22.24" y="21.6"> </tspan><tspan class="cls-42" x="23.86" y="21.6">T</tspan><tspan class="cls-10" x="28.57" y="21.6">uc</tspan><tspan class="cls-27" x="38.55" y="21.6">ci</tspan></tspan></text><circle class="cls-29" cx="40.58" cy="319.33" r="4"/><text class="cls-2" transform="translate(7.67 322.83)">13:25</text><text class="cls-31" transform="translate(57.17 322.83)"><tspan class="cls-20">G</tspan><tspan class="cls-9" x="7.11" y="0">r</tspan><tspan class="cls-17" x="10.5" y="0">o</tspan><tspan class="cls-26" x="15.6" y="0">w</tspan><tspan class="cls-13" x="22.84" y="0">t</tspan><tspan x="26.5" y="0">h </tspan><tspan class="cls-17" x="33.64" y="0">E</tspan><tspan class="cls-10" x="38.75" y="0">n</tspan><tspan x="43.87" y="0">gine:</tspan><tspan class="cls-10" x="0" y="10.8">id</tspan><tspan class="cls-13" x="7.64" y="10.8">e</tspan><tspan x="12.69" y="10.8">a, </tspan><tspan class="cls-10" x="21.92" y="10.8">t</tspan><tspan class="cls-13" x="25.49" y="10.8">e</tspan><tspan class="cls-10" x="30.54" y="10.8">s</tspan><tspan x="34.84" y="10.8">t, s</tspan><tspan class="cls-10" x="47.21" y="10.8">ucc</tspan><tspan class="cls-13" x="62.05" y="10.8">e</tspan><tspan class="cls-27" x="67.1" y="10.8">ss</tspan><tspan class="cls-15"><tspan x="0" y="21.6">Gi</tspan><tspan class="cls-12" x="9.62" y="21.6">u</tspan><tspan class="cls-32" x="14.74" y="21.6">s</tspan><tspan x="19.13" y="21.6">e</tspan><tspan class="cls-17" x="24.14" y="21.6">p</tspan><tspan x="29.41" y="21.6">pe</tspan><tspan class="cls-20" x="39.78" y="21.6" xml:space="preserve"> C</tspan><tspan class="cls-10" x="48.01" y="21.6">o</tspan><tspan class="cls-17" x="53.14" y="21.6">p</tspan><tspan class="cls-27" x="58.42" y="21.6">p</tspan><tspan class="cls-12" x="63.78" y="21.6">ol</tspan><tspan x="71.06" y="21.6">a</tspan></tspan></text><circle class="cls-18" cx="40.58" cy="182.67" r="4"/><text class="cls-2" transform="translate(7.67 186.17)">11:40</text><text class="cls-19" transform="translate(57.17 186.17)">B<tspan class="cls-9" x="5.66" y="0">r</tspan><tspan class="cls-13" x="9.05" y="0">e</tspan><tspan x="14.1" y="0">ak</tspan></text><circle class="cls-6" cx="40.58" cy="133.67" r="4"/><text class="cls-2" transform="translate(7.67 137.17)">10:45</text><text class="cls-8" transform="translate(57.17 137.17)">3D mo<tspan class="cls-10" x="26.59" y="0">d</tspan><tspan x="31.95" y="0">eli</tspan><tspan class="cls-12" x="41.47" y="0">n</tspan><tspan x="46.59" y="0">g</tspan><tspan x="0" y="10.8">and </tspan><tspan class="cls-12" x="17.36" y="10.8">t</tspan><tspan class="cls-17" x="20.92" y="10.8">e</tspan><tspan x="25.84" y="10.8">xturi</tspan><tspan class="cls-12" x="45.23" y="10.8">n</tspan><tspan x="50.35" y="10.8">g</tspan><tspan class="cls-9" x="0" y="21.6">f</tspan><tspan class="cls-17" x="3.3" y="21.6">o</tspan><tspan x="8.4" y="21.6">r v</tspan><tspan class="cls-12" x="19.05" y="21.6">id</tspan><tspan class="cls-13" x="26.69" y="21.6">e</tspan><tspan class="cls-26" x="31.74" y="21.6">o</tspan><tspan class="cls-10" x="36.93" y="21.6">g</tspan><tspan x="42.25" y="21.6">am</tspan><tspan class="cls-13" x="54.99" y="21.6">e</tspan><tspan x="60.04" y="21.6">s</tspan><tspan class="cls-15" x="64.38" y="21.6" xml:space="preserve"> </tspan><tspan class="cls-15"><tspan class="cls-28" x="0" y="32.4">A</tspan><tspan x="6.22" y="32.4">u</tspan><tspan class="cls-9" x="11.38" y="32.4">r</tspan><tspan x="14.78" y="32.4">el</tspan><tspan class="cls-10" x="21.97" y="32.4">i</tspan><tspan class="cls-26" x="24.25" y="32.4">o La </tspan><tspan class="cls-9" x="43.02" y="32.4">F</tspan><tspan x="47.77" y="32.4">e</tspan><tspan class="cls-13" x="52.78" y="32.4">r</tspan><tspan class="cls-10" x="56.48" y="32.4">l</tspan><tspan class="cls-26" x="58.63" y="32.4">a</tspan></tspan></text><circle class="cls-38" cx="40.58" cy="84.67" r="4"/><text class="cls-2" transform="translate(7.67 88.17)"><tspan xml:space="preserve"> 9:45</tspan></text><text class="cls-39" transform="translate(57.17 88.17)"><tspan class="cls-9">T</tspan><tspan class="cls-26" x="4.98" y="0">i</tspan><tspan class="cls-33" x="7.31" y="0">p</tspan><tspan x="12.63" y="0">s and tr</tspan><tspan class="cls-10" x="43.59" y="0">i</tspan><tspan x="45.87" y="0">c</tspan><tspan class="cls-17" x="50.78" y="0">k</tspan><tspan x="55.46" y="0">s</tspan><tspan class="cls-16" x="59.8" y="0"> </tspan><tspan class="cls-9" x="61.6" y="0">f</tspan><tspan class="cls-17" x="64.91" y="0">o</tspan><tspan class="cls-26" x="70" y="0">r</tspan><tspan class="cls-10" x="0" y="10.8">g</tspan><tspan x="5.33" y="10.8">ame a</tspan><tspan class="cls-13" x="29.86" y="10.8">rt</tspan><tspan x="37.22" y="10.8">i</tspan><tspan class="cls-10" x="39.55" y="10.8">s</tspan><tspan class="cls-43" x="43.86" y="10.8">t</tspan><tspan x="47.56" y="10.8">s</tspan><tspan class="cls-15"><tspan class="cls-23" x="0" y="21.6">M</tspan><tspan x="7.58" y="21.6">ar</tspan><tspan class="cls-10" x="16.06" y="21.6">i</tspan><tspan x="18.34" y="21.6">o Priv</tspan><tspan class="cls-10" x="41.84" y="21.6">it</tspan><tspan x="47.69" y="21.6">e</tspan><tspan class="cls-20" x="52.69" y="21.6">r</tspan><tspan x="56.18" y="21.6">a e</tspan><tspan class="cls-16" x="0" y="32.4">Fr</tspan><tspan x="8.33" y="32.4">an</tspan><tspan class="cls-10" x="18.31" y="32.4">c</tspan><tspan class="cls-13" x="23.17" y="32.4">es</tspan><tspan class="cls-10" x="32.61" y="32.4">c</tspan><tspan x="37.47" y="32.4">o M</tspan><tspan class="cls-14" x="52.34" y="32.4">o</tspan><tspan x="57.44" y="32.4">r</tspan><tspan class="cls-9" x="61.1" y="32.4">r</tspan><tspan class="cls-13" x="64.49" y="32.4">e</tspan><tspan x="69.54" y="32.4">a</tspan><tspan class="cls-10" x="74.36" y="32.4">l</tspan><tspan x="76.5" y="32.4">e</tspan></tspan></text><circle class="cls-15" cx="40.92" cy="28" r="20.43"/><text class="cls-44" transform="translate(73.67 35.17)"><tspan class="cls-45">D</tspan><tspan class="cls-17" x="12.67" y="0">o</tspan><tspan x="22.86" y="0">m</tspan></text><path d="M43.42,45.68A20.4,20.4,0,0,1,27.12,13,20.41,20.41,0,1,0,57.21,40.29,20.32,20.32,0,0,1,43.42,45.68Z"/><text class="cls-46" transform="translate(31.82 34.5)">19</text><text class="cls-47" transform="translate(57.83 670.61)">P<tspan class="cls-9" x="5.33" y="0">r</tspan><tspan class="cls-12" x="8.72" y="0">oj</tspan><tspan class="cls-13" x="16.15" y="0">e</tspan><tspan class="cls-10" x="21.19" y="0">c</tspan><tspan x="26.05" y="0">t sh</tspan><tspan class="cls-17" x="41.16" y="0">ow</tspan><tspan class="cls-33" x="53.41" y="0">ca</tspan><tspan class="cls-13" x="63.04" y="0">s</tspan><tspan x="67.43" y="0">e</tspan></text><text class="cls-47" transform="translate(57.83 735.61)"><tspan class="cls-17">F</tspan><tspan class="cls-26" x="4.93" y="0">i</tspan><tspan class="cls-10" x="7.26" y="0">n</tspan><tspan x="12.38" y="0">al g</tspan><tspan class="cls-35" x="26.74" y="0">r</tspan><tspan class="cls-13" x="30.13" y="0">e</tspan><tspan class="cls-23" x="35.18" y="0">e</tspan><tspan class="cls-13" x="40.05" y="0">t</tspan><tspan x="43.7" y="0">i</tspan><tspan class="cls-10" x="46.03" y="0">ng</tspan><tspan class="cls-27" x="56.48" y="0">s</tspan></text><text class="cls-48" transform="translate(57.83 712.27)">A<tspan class="cls-28" x="6.44" y="0">n</tspan><tspan class="cls-10" x="11.38" y="0">t</tspan><tspan class="cls-17" x="14.95" y="0">o</tspan><tspan class="cls-26" x="20.04" y="0">n</tspan><tspan class="cls-10" x="25.21" y="0">i</tspan><tspan x="27.49" y="0">o </tspan><tspan class="cls-49" x="34.66" y="0">P</tspan><tspan x="39.67" y="0">e</tspan><tspan class="cls-9" x="44.68" y="0">r</tspan><tspan x="48.07" y="0">d</tspan><tspan class="cls-10" x="53.47" y="0">i</tspan><tspan x="55.75" y="0">chiz</tspan><tspan class="cls-50" x="72.47" y="0">z</tspan><tspan x="76.87" y="0">i</tspan></text></svg>