<svg id="Livello_1" data-name="Livello 1" xmlns="http://www.w3.org/2000/svg" viewBox="0 0 193 802"><defs><style>.cls-1,.cls-21,.cls-22{font-size:9px;}.cls-1,.cls-18{fill:#517bbd;}.cls-1,.cls-21,.cls-22,.cls-45,.cls-46{font-family:ProductSans-Bold, Product Sans;font-weight:700;}.cls-2{letter-spacing:-0.03em;}.cls-3{letter-spacing:-0.01em;}.cls-4{letter-spacing:0em;}.cls-5{letter-spacing:-0.04em;}.cls-6{letter-spacing:-0.01em;}.cls-7{letter-spacing:0em;}.cls-19,.cls-45,.cls-8{fill:#343447;}.cls-9{letter-spacing:-0.02em;}.cls-10{letter-spacing:0em;}.cls-11{letter-spacing:0em;}.cls-12{letter-spacing:-0.02em;}.cls-13{letter-spacing:-0.01em;}.cls-14{letter-spacing:-0.03em;}.cls-15{letter-spacing:0.01em;}.cls-16{letter-spacing:-0.06em;}.cls-17{letter-spacing:0.01em;}.cls-19{font-size:10px;font-family:ProductSans-Regular, Product Sans;}.cls-20,.cls-21{fill:#009c58;}.cls-22,.cls-29{fill:#0a9a56;}.cls-23{letter-spacing:-0.1em;}.cls-24{letter-spacing:0em;}.cls-25{letter-spacing:-0.07em;}.cls-26{letter-spacing:-0.01em;}.cls-27{letter-spacing:-0.01em;}.cls-28{letter-spacing:-0.02em;}.cls-30{letter-spacing:-0.01em;}.cls-31,.cls-32{fill:none;stroke:#868686;stroke-miterlimit:10;stroke-width:0.5px;}.cls-32{stroke-dasharray:3.01 3.01;}.cls-33{letter-spacing:0.01em;}.cls-34{letter-spacing:0em;}.cls-35{letter-spacing:0em;}.cls-36{letter-spacing:-0.08em;}.cls-37{letter-spacing:0.01em;}.cls-38{letter-spacing:-0.03em;}.cls-39{letter-spacing:-0.04em;}.cls-40{letter-spacing:-0.02em;}.cls-41{letter-spacing:-0.06em;}.cls-42{letter-spacing:-0.03em;}.cls-43{letter-spacing:-0.03em;}.cls-44{letter-spacing:-0.06em;}.cls-45,.cls-46{font-size:18px;}.cls-46{fill:#fff;}</style></defs><title>Tavola disegno 5 copia</title><text class="cls-1" transform="translate(57.17 576.67)">And<tspan class="cls-2" x="17.01" y="0">r</tspan><tspan class="cls-3" x="20.4" y="0">o</tspan><tspan class="cls-4" x="25.5" y="0">i</tspan><tspan x="27.78" y="0">d</tspan><tspan class="cls-5" x="33.18" y="0"> </tspan><tspan x="34.8" y="0">Thi</tspan><tspan class="cls-6" x="47.55" y="0">ng</tspan><tspan class="cls-7" x="58" y="0">s</tspan><tspan class="cls-8"><tspan class="cls-9" x="0" y="10.8">C</tspan><tspan class="cls-10" x="6.43" y="10.8">a</tspan><tspan class="cls-11" x="11.24" y="10.8">r</tspan><tspan class="cls-4" x="14.95" y="10.8">l</tspan><tspan x="17.09" y="10.8">o </tspan><tspan class="cls-3" x="24.25" y="10.8">L</tspan><tspan class="cls-4" x="28.97" y="10.8">uc</tspan><tspan x="38.95" y="10.8">e</tspan><tspan class="cls-9" x="43.96" y="10.8">r</tspan><tspan x="47.44" y="10.8">a</tspan></tspan></text><text class="cls-1" transform="translate(57.17 649)">B<tspan class="cls-12" x="5.66" y="0">r</tspan><tspan class="cls-4" x="9.14" y="0">ac</tspan><tspan class="cls-7" x="18.77" y="0">e </tspan><tspan class="cls-9" x="25.76" y="0">y</tspan><tspan class="cls-6" x="30.56" y="0">o</tspan><tspan x="35.69" y="0">ur</tspan><tspan class="cls-2" x="44.52" y="0"> </tspan><tspan x="46.23" y="0">And</tspan><tspan class="cls-2" x="63.24" y="0">r</tspan><tspan class="cls-3" x="66.64" y="0">o</tspan><tspan class="cls-4" x="71.73" y="0">i</tspan><tspan x="74.02" y="0">d a</tspan><tspan class="cls-13" x="86.21" y="0">p</tspan><tspan class="cls-7" x="91.48" y="0">p</tspan><tspan x="0" y="10.8">w</tspan><tspan class="cls-6" x="7.25" y="10.8">i</tspan><tspan class="cls-11" x="9.53" y="10.8">t</tspan><tspan x="13.18" y="10.8">h</tspan><tspan class="cls-2" x="18.35" y="10.8"> </tspan><tspan x="20.06" y="10.8">A</tspan><tspan class="cls-2" x="26.5" y="10.8">r</tspan><tspan x="29.9" y="10.8">ch</tspan><tspan class="cls-4" x="39.97" y="10.8">it</tspan><tspan class="cls-11" x="45.82" y="10.8">e</tspan><tspan class="cls-4" x="50.87" y="10.8">c</tspan><tspan x="55.73" y="10.8">tu</tspan><tspan class="cls-2" x="64.5" y="10.8">r</tspan><tspan x="67.9" y="10.8">e</tspan><tspan class="cls-9" x="0" y="21.6">C</tspan><tspan class="cls-3" x="6.43" y="21.6">o</tspan><tspan x="11.52" y="21.6">mp</tspan><tspan class="cls-13" x="24.8" y="21.6">o</tspan><tspan class="cls-10" x="29.9" y="21.6">ne</tspan><tspan class="cls-14" x="40.07" y="21.6">n</tspan><tspan class="cls-15" x="45.01" y="21.6">t</tspan><tspan x="48.71" y="21.6">s</tspan><tspan class="cls-8"><tspan x="0" y="32.4">M</tspan><tspan class="cls-4" x="7.71" y="32.4">i</tspan><tspan x="10" y="32.4">che</tspan><tspan class="cls-4" x="25.07" y="32.4">l</tspan><tspan x="27.22" y="32.4">a</tspan><tspan class="cls-14" x="32.03" y="32.4">n</tspan><tspan class="cls-4" x="36.97" y="32.4">t</tspan><tspan class="cls-13" x="40.54" y="32.4">o</tspan><tspan class="cls-10" x="45.63" y="32.4">n</tspan><tspan class="cls-4" x="50.8" y="32.4">i</tspan><tspan x="53.08" y="32.4">o</tspan><tspan class="cls-5" x="58.27" y="32.4"> </tspan><tspan class="cls-16" x="59.89" y="32.4">T</tspan><tspan x="64.59" y="32.4">ri</tspan><tspan class="cls-17" x="70.59" y="32.4">z</tspan><tspan class="cls-4" x="74.99" y="32.4">i</tspan><tspan x="77.27" y="32.4">o</tspan></tspan></text><circle class="cls-18" cx="40.58" cy="573.5" r="4"/><text class="cls-19" transform="translate(7.67 577)">18:35</text><circle class="cls-20" cx="40.58" cy="631.17" r="4"/><text class="cls-19" transform="translate(7.67 634.67)">19:30</text><text class="cls-21" transform="translate(57.17 634.67)">B<tspan class="cls-2" x="5.66" y="0">r</tspan><tspan class="cls-11" x="9.05" y="0">e</tspan><tspan x="14.1" y="0">ak</tspan></text><circle class="cls-18" cx="40.58" cy="645.83" r="4"/><text class="cls-19" transform="translate(7.67 649.33)">19:45</text><text class="cls-22" transform="translate(57.17 712.61)"><tspan class="cls-23">Y</tspan><tspan class="cls-4" x="4.83" y="0">o</tspan><tspan class="cls-10" x="9.97" y="0">u </tspan><tspan class="cls-24" x="17.12" y="0">c</tspan><tspan x="21.98" y="0">an </tspan><tspan class="cls-13" x="33.94" y="0">p</tspan><tspan class="cls-4" x="39.21" y="0">l</tspan><tspan class="cls-13" x="41.35" y="0">a</tspan><tspan class="cls-25" x="46.08" y="0">y</tspan><tspan x="50.43" y="0">, if </tspan><tspan class="cls-12" x="62.73" y="0">y</tspan><tspan class="cls-4" x="67.53" y="0">o</tspan><tspan x="72.67" y="0">u </tspan><tspan class="cls-4" x="79.81" y="0">m</tspan><tspan class="cls-3" x="87.69" y="0">a</tspan><tspan class="cls-25" x="92.41" y="0">y</tspan><tspan x="96.76" y="0">.</tspan><tspan class="cls-9" x="0" y="11">E</tspan><tspan class="cls-26" x="5.02" y="11">v</tspan><tspan x="9.9" y="11">en </tspan><tspan class="cls-11" x="22.05" y="11">s</tspan><tspan x="26.44" y="11">er</tspan><tspan class="cls-4" x="35.11" y="11">iou</tspan><tspan class="cls-7" x="47.65" y="11">s </tspan><tspan class="cls-11" x="53.98" y="11">t</tspan><tspan x="57.63" y="11">hi</tspan><tspan class="cls-4" x="65.13" y="11">ng</tspan><tspan class="cls-7" x="75.58" y="11">s</tspan><tspan class="cls-4" x="0" y="22">c</tspan><tspan x="4.86" y="22">an be</tspan><tspan class="cls-12" x="27.22" y="22"> </tspan><tspan class="cls-27" x="29.02" y="22">f</tspan><tspan class="cls-10" x="32.51" y="22">un</tspan><tspan class="cls-13" x="42.84" y="22">n</tspan><tspan class="cls-10" x="47.92" y="22">y</tspan><tspan class="cls-8"><tspan class="cls-4" x="0" y="33">c</tspan><tspan class="cls-13" x="4.86" y="33">o</tspan><tspan x="9.95" y="33">nd</tspan><tspan class="cls-6" x="20.52" y="33">uc</tspan><tspan x="30.5" y="33">e</tspan><tspan class="cls-2" x="35.5" y="33"> </tspan><tspan x="37.21" y="33">A</tspan><tspan class="cls-4" x="43.66" y="33">l</tspan><tspan class="cls-11" x="45.8" y="33">e</tspan><tspan class="cls-7" x="50.85" y="33">s</tspan><tspan class="cls-11" x="55.2" y="33">s</tspan><tspan x="59.59" y="33">and</tspan><tspan class="cls-12" x="74.97" y="33">r</tspan><tspan x="78.45" y="33">a R</tspan><tspan class="cls-4" x="90.83" y="33">ig</tspan><tspan x="98.44" y="33">ano,</tspan><tspan x="0" y="44">sul pa</tspan><tspan class="cls-4" x="23.86" y="44">lc</tspan><tspan class="cls-10" x="30.86" y="44">o t</tspan><tspan class="cls-11" x="41.63" y="44">utt</tspan><tspan x="53.37" y="44">i i </tspan><tspan class="cls-4" x="61.99" y="44">m</tspan><tspan x="69.87" y="44">a</tspan><tspan class="cls-4" x="74.68" y="44">ng</tspan><tspan x="85.13" y="44">er</tspan><tspan class="cls-4" x="0" y="55">d</tspan><tspan x="5.35" y="55">ei</tspan><tspan class="cls-12" x="12.69" y="55"> </tspan><tspan x="14.49" y="55">GDG </tspan><tspan class="cls-4" x="37.52" y="55">i</tspan><tspan class="cls-13" x="39.81" y="55">t</tspan><tspan x="43.33" y="55">al</tspan><tspan class="cls-6" x="50.33" y="55">i</tspan><tspan x="52.61" y="55">ani e in</tspan><tspan class="cls-4" x="0" y="66">co</tspan><tspan x="10" y="66">l</tspan><tspan class="cls-4" x="12.19" y="66">l</tspan><tspan class="cls-11" x="14.33" y="66">e</tspan><tspan class="cls-4" x="19.38" y="66">g</tspan><tspan x="24.71" y="66">ame</tspan><tspan class="cls-14" x="42.44" y="66">n</tspan><tspan class="cls-4" x="47.38" y="66">t</tspan><tspan x="50.95" y="66">o </tspan><tspan class="cls-4" x="58.11" y="66">d</tspan><tspan x="63.47" y="66">a </tspan><tspan class="cls-12" x="70.26" y="66">P</tspan><tspan x="75.41" y="66">ar</tspan><tspan class="cls-4" x="83.89" y="66">i</tspan><tspan class="cls-10" x="86.17" y="66">gi</tspan><tspan class="cls-28" x="0" y="77">G</tspan><tspan x="7.15" y="77">a</tspan><tspan class="cls-13" x="11.97" y="77">b</tspan><tspan x="17.28" y="77">r</tspan><tspan class="cls-4" x="20.94" y="77">i</tspan><tspan x="23.23" y="77">e</tspan><tspan class="cls-4" x="28.23" y="77">l</tspan><tspan x="30.38" y="77">e Ba</tspan><tspan class="cls-4" x="47.83" y="77">ld</tspan><tspan class="cls-13" x="55.33" y="77">o</tspan><tspan class="cls-10" x="60.43" y="77">ni</tspan></tspan></text><circle class="cls-29" cx="40.58" cy="709.83" r="4"/><text class="cls-19" transform="translate(7.67 713.33)"><tspan class="cls-30">2</tspan><tspan x="5.1" y="0">1:00</tspan></text><circle class="cls-29" cx="40.58" cy="691.17" r="4"/><text class="cls-19" transform="translate(7.67 694.67)">20:30</text><text class="cls-22" transform="translate(57.17 694.67)"><tspan class="cls-9">C</tspan><tspan x="6.43" y="0">e</tspan><tspan class="cls-4" x="11.43" y="0">n</tspan><tspan class="cls-10" x="16.55" y="0">a</tspan></text><line class="cls-31" x1="40.67" y1="32" x2="40.67" y2="33.5"/><line class="cls-32" x1="40.67" y1="36.51" x2="40.67" y2="709"/><line class="cls-31" x1="40.67" y1="710.5" x2="40.67" y2="712"/><circle class="cls-18" cx="40.58" cy="377.83" r="4"/><text class="cls-19" transform="translate(7.67 381.33)"><tspan class="cls-33">1</tspan><tspan x="3.94" y="0">5:</tspan><tspan class="cls-33" x="11.81" y="0">1</tspan><tspan x="15.75" y="0">5</tspan></text><circle class="cls-29" cx="40.58" cy="355.17" r="4"/><text class="cls-19" transform="translate(7.67 358.67)">14:00</text><text class="cls-22" transform="translate(57.17 358.67)">P<tspan class="cls-12" x="5.33" y="0">r</tspan><tspan x="8.81" y="0">an</tspan><tspan class="cls-3" x="18.79" y="0">z</tspan><tspan x="23.01" y="0">o</tspan></text><circle class="cls-18" cx="40.58" cy="418.17" r="4"/><text class="cls-19" transform="translate(7.67 421.67)"><tspan class="cls-34">1</tspan><tspan class="cls-35" x="3.89" y="0">6:</tspan><tspan class="cls-33" x="11.7" y="0">1</tspan><tspan x="15.64" y="0">5</tspan></text><circle class="cls-20" cx="40.58" cy="501.5" r="4"/><text class="cls-19" transform="translate(7.67 505)">17:<tspan class="cls-33" x="11.39" y="0">1</tspan><tspan x="15.33" y="0">5</tspan></text><text class="cls-21" transform="translate(57.17 505)">B<tspan class="cls-2" x="5.66" y="0">r</tspan><tspan class="cls-11" x="9.05" y="0">e</tspan><tspan x="14.1" y="0">ak</tspan></text><circle class="cls-18" cx="40.58" cy="516.83" r="4"/><text class="cls-19" transform="translate(7.67 520.33)">17:35</text><text class="cls-1" transform="translate(57.17 520.33)"><tspan class="cls-36">T</tspan><tspan class="cls-37" x="4.53" y="0">e</tspan><tspan class="cls-4" x="9.58" y="0">s</tspan><tspan x="13.88" y="0">t and a</tspan><tspan class="cls-11" x="41.64" y="0">u</tspan><tspan class="cls-4" x="46.85" y="0">t</tspan><tspan class="cls-3" x="50.42" y="0">o</tspan><tspan class="cls-4" x="55.51" y="0">m</tspan><tspan class="cls-13" x="63.39" y="0">a</tspan><tspan class="cls-4" x="68.11" y="0">t</tspan><tspan x="71.67" y="0">e</tspan><tspan x="0" y="10.8">And</tspan><tspan class="cls-2" x="17.01" y="10.8">r</tspan><tspan class="cls-3" x="20.4" y="10.8">o</tspan><tspan class="cls-4" x="25.5" y="10.8">i</tspan><tspan x="27.78" y="10.8">d </tspan><tspan class="cls-26" x="35.16" y="10.8">D</tspan><tspan class="cls-13" x="41.5" y="10.8">e</tspan><tspan class="cls-26" x="46.41" y="10.8">v</tspan><tspan x="51.29" y="10.8">e</tspan><tspan class="cls-4" x="56.29" y="10.8">lop</tspan><tspan x="68.89" y="10.8">me</tspan><tspan class="cls-14" x="81.82" y="10.8">n</tspan><tspan x="86.76" y="10.8">t</tspan><tspan x="0" y="21.6">w</tspan><tspan class="cls-6" x="7.25" y="21.6">i</tspan><tspan class="cls-11" x="9.53" y="21.6">t</tspan><tspan x="13.18" y="21.6">h</tspan><tspan class="cls-12" x="18.35" y="21.6"> </tspan><tspan x="20.15" y="21.6">CI </tspan><tspan class="cls-4" x="31.25" y="21.6">ma</tspan><tspan x="43.89" y="21.6">g</tspan><tspan class="cls-4" x="49.27" y="21.6">i</tspan><tspan x="51.55" y="21.6">c</tspan><tspan class="cls-8"><tspan class="cls-12" x="0" y="32.4">P</tspan><tspan class="cls-4" x="5.15" y="32.4">aol</tspan><tspan class="cls-10" x="17.2" y="32.4">o </tspan><tspan class="cls-13" x="24.36" y="32.4">R</tspan><tspan class="cls-28" x="29.85" y="32.4">o</tspan><tspan class="cls-4" x="34.9" y="32.4">tol</tspan><tspan x="45.75" y="32.4">o</tspan></tspan></text><text class="cls-1" transform="translate(57.17 381.33)"><tspan class="cls-38">P</tspan><tspan class="cls-6" x="5.01" y="0">os</tspan><tspan class="cls-11" x="14.45" y="0">t</tspan><tspan class="cls-4" x="18.11" y="0">m</tspan><tspan x="25.98" y="0">an &amp; Py</tspan><tspan class="cls-11" x="56.05" y="0">t</tspan><tspan class="cls-10" x="59.71" y="0">h</tspan><tspan class="cls-13" x="64.87" y="0">o</tspan><tspan x="69.96" y="0">n:</tspan><tspan x="0" y="10.8">Uno svilu</tspan><tspan class="cls-13" x="37.39" y="10.8">p</tspan><tspan class="cls-7" x="42.67" y="10.8">po arm</tspan><tspan class="cls-3" x="71.59" y="10.8">o</tspan><tspan x="76.69" y="10.8">n</tspan><tspan class="cls-4" x="81.85" y="10.8">io</tspan><tspan class="cls-37" x="89.28" y="10.8">s</tspan><tspan class="cls-10" x="93.67" y="10.8">o</tspan><tspan class="cls-8"><tspan x="0" y="21.6">M</tspan><tspan class="cls-4" x="7.71" y="21.6">i</tspan><tspan x="10" y="21.6">c</tspan><tspan class="cls-4" x="14.9" y="21.6">ha</tspan><tspan x="24.79" y="21.6">el</tspan><tspan class="cls-39" x="31.99" y="21.6"> </tspan><tspan class="cls-12" x="33.61" y="21.6">V</tspan><tspan x="39.55" y="21.6">in</tspan><tspan class="cls-24" x="47.04" y="21.6">c</tspan><tspan x="51.9" y="21.6">er</tspan><tspan class="cls-12" x="60.57" y="21.6">r</tspan><tspan x="64.05" y="21.6">a</tspan></tspan></text><text class="cls-1" transform="translate(57.17 420.67)">La p<tspan class="cls-28" x="16.96" y="0">o</tspan><tspan class="cls-4" x="22.01" y="0">t</tspan><tspan x="25.58" y="0">en</tspan><tspan class="cls-3" x="35.75" y="0">z</tspan><tspan x="39.97" y="0">a </tspan><tspan class="cls-4" x="46.76" y="0">d</tspan><tspan x="52.12" y="0">ei</tspan><tspan x="0" y="10.8">b</tspan><tspan class="cls-28" x="5.4" y="10.8">o</tspan><tspan x="10.45" y="10.8">t di </tspan><tspan class="cls-39" x="25.75" y="10.8"> </tspan><tspan class="cls-36" x="27.37" y="10.8">T</tspan><tspan class="cls-7" x="31.9" y="10.8">e</tspan><tspan class="cls-4" x="36.9" y="10.8">l</tspan><tspan class="cls-11" x="39.04" y="10.8">e</tspan><tspan class="cls-10" x="44.09" y="10.8">g</tspan><tspan class="cls-9" x="49.46" y="10.8">r</tspan><tspan x="52.95" y="10.8">am</tspan><tspan class="cls-8"><tspan class="cls-40" x="0" y="21.6">S</tspan><tspan class="cls-4" x="4.95" y="21.6">t</tspan><tspan class="cls-13" x="8.51" y="21.6">e</tspan><tspan class="cls-12" x="13.43" y="21.6">f</tspan><tspan x="16.82" y="21.6">ano B</tspan><tspan class="cls-13" x="39.63" y="21.6">or</tspan><tspan class="cls-11" x="48.29" y="21.6">z</tspan><tspan x="52.65" y="21.6">ì</tspan></tspan></text><circle class="cls-18" cx="40.58" cy="284.17" r="4"/><text class="cls-19" transform="translate(7.67 287.67)"><tspan class="cls-33">1</tspan><tspan x="3.94" y="0">2:55</tspan></text><text class="cls-1" transform="translate(57.17 287.67)">P<tspan class="cls-2" x="5.33" y="0">r</tspan><tspan class="cls-10" x="8.72" y="0">og</tspan><tspan class="cls-2" x="19.28" y="0">r</tspan><tspan class="cls-11" x="22.67" y="0">e</tspan><tspan x="27.72" y="0">s</tspan><tspan class="cls-24" x="32.07" y="0">s</tspan><tspan class="cls-10" x="36.37" y="0">i</tspan><tspan class="cls-26" x="38.7" y="0">v</tspan><tspan x="43.58" y="0">e</tspan><tspan class="cls-39" x="48.58" y="0"> </tspan><tspan class="cls-41" x="50.2" y="0">W</tspan><tspan class="cls-7" x="58.29" y="0">eb</tspan><tspan class="cls-2" x="68.7" y="0"> </tspan><tspan class="cls-11" x="70.41" y="0">A</tspan><tspan class="cls-13" x="76.9" y="0">p</tspan><tspan class="cls-4" x="82.17" y="0">p</tspan><tspan x="87.49" y="0">s:</tspan><tspan x="0" y="10.8">tr</tspan><tspan class="cls-6" x="7.27" y="10.8">i</tspan><tspan class="cls-7" x="9.56" y="10.8">ck </tspan><tspan class="cls-3" x="21.21" y="10.8">o</tspan><tspan x="26.31" y="10.8">r </tspan><tspan class="cls-42" x="31.95" y="10.8">r</tspan><tspan class="cls-37" x="35.34" y="10.8">e</tspan><tspan class="cls-10" x="40.39" y="10.8">al </tspan><tspan class="cls-4" x="49.37" y="10.8">ma</tspan><tspan x="62.02" y="10.8">g</tspan><tspan class="cls-6" x="67.39" y="10.8">i</tspan><tspan class="cls-7" x="69.68" y="10.8">c?</tspan><tspan class="cls-8"><tspan class="cls-26" x="0" y="21.6">M</tspan><tspan x="7.58" y="21.6">auri</tspan><tspan class="cls-15" x="23.55" y="21.6">z</tspan><tspan class="cls-6" x="27.95" y="21.6">i</tspan><tspan x="30.24" y="21.6">o </tspan><tspan class="cls-28" x="37.4" y="21.6">M</tspan><tspan x="44.98" y="21.6">a</tspan><tspan class="cls-4" x="49.8" y="21.6">n</tspan><tspan x="54.92" y="21.6">g</tspan><tspan class="cls-6" x="60.29" y="21.6">i</tspan><tspan class="cls-13" x="62.58" y="21.6">o</tspan><tspan x="67.67" y="21.6">ne</tspan></tspan></text><circle class="cls-18" cx="40.58" cy="204.67" r="4"/><text class="cls-19" transform="translate(7.67 208.17)">11:55</text><text class="cls-1" transform="translate(57.17 208.17)"><tspan class="cls-13">R</tspan><tspan class="cls-11" x="5.49" y="0">e</tspan><tspan class="cls-4" x="10.54" y="0">ac</tspan><tspan x="20.17" y="0">t-</tspan><tspan class="cls-28" x="27.84" y="0">N</tspan><tspan class="cls-13" x="34.21" y="0">a</tspan><tspan class="cls-11" x="38.93" y="0">t</tspan><tspan x="42.59" y="0">i</tspan><tspan class="cls-26" x="44.92" y="0">v</tspan><tspan x="49.8" y="0">e:</tspan><tspan x="0" y="10.8">svilu</tspan><tspan class="cls-13" x="19.04" y="10.8">p</tspan><tspan class="cls-7" x="24.32" y="10.8">pa</tspan><tspan class="cls-42" x="34.5" y="10.8">r</tspan><tspan class="cls-7" x="37.89" y="10.8">e a</tspan><tspan class="cls-13" x="49.69" y="10.8">p</tspan><tspan class="cls-7" x="54.96" y="10.8">p </tspan><tspan class="cls-6" x="62.31" y="10.8">n</tspan><tspan class="cls-13" x="67.43" y="10.8">a</tspan><tspan class="cls-11" x="72.15" y="10.8">t</tspan><tspan x="75.81" y="10.8">i</tspan><tspan class="cls-26" x="78.14" y="10.8">v</tspan><tspan x="83.01" y="10.8">e</tspan><tspan x="0" y="21.6">mu</tspan><tspan class="cls-11" x="13.09" y="21.6">lt</tspan><tspan class="cls-10" x="18.97" y="21.6">i</tspan><tspan class="cls-24" x="21.3" y="21.6">pi</tspan><tspan class="cls-13" x="28.91" y="21.6">atta</tspan><tspan class="cls-43" x="44.75" y="21.6">f</tspan><tspan class="cls-3" x="48.05" y="21.6">o</tspan><tspan x="53.14" y="21.6">r</tspan><tspan class="cls-4" x="56.81" y="21.6">m</tspan><tspan x="64.68" y="21.6">a</tspan><tspan class="cls-8"><tspan class="cls-13" x="0" y="32.4">E</tspan><tspan x="5.11" y="32.4">ri</tspan><tspan class="cls-3" x="11.11" y="32.4">k</tspan><tspan x="15.79" y="32.4">a M</tspan><tspan class="cls-4" x="30.29" y="32.4">o</tspan><tspan x="35.43" y="32.4">lino</tspan></tspan></text><circle class="cls-20" cx="40.58" cy="182.67" r="4"/><text class="cls-19" transform="translate(7.67 186.17)">11:40</text><text class="cls-21" transform="translate(57.17 186.17)">B<tspan class="cls-2" x="5.66" y="0">r</tspan><tspan class="cls-11" x="9.05" y="0">e</tspan><tspan x="14.1" y="0">ak</tspan></text><circle class="cls-18" cx="40.58" cy="133.67" r="4"/><text class="cls-19" transform="translate(7.67 137.17)">10:45</text><text class="cls-1" transform="translate(57.17 88.5)">B<tspan class="cls-11" x="5.66" y="0">e</tspan><tspan class="cls-4" x="10.71" y="0">c</tspan><tspan class="cls-13" x="15.57" y="0">o</tspan><tspan x="20.66" y="0">me a</tspan><tspan class="cls-44" x="40.38" y="0"> </tspan><tspan x="41.82" y="0">J</tspan><tspan class="cls-13" x="46.82" y="0">av</tspan><tspan x="56.47" y="0">aS</tspan><tspan class="cls-24" x="66.46" y="0">c</tspan><tspan class="cls-10" x="71.32" y="0">ri</tspan><tspan class="cls-9" x="77.31" y="0">p</tspan><tspan x="82.49" y="0">t</tspan><tspan class="cls-26" x="0" y="10.8">S</tspan><tspan x="5.04" y="10.8">upe</tspan><tspan class="cls-11" x="20.57" y="10.8">r</tspan><tspan x="24.28" y="10.8">he</tspan><tspan class="cls-2" x="34.45" y="10.8">r</tspan><tspan class="cls-10" x="37.84" y="10.8">o </tspan><tspan class="cls-26" x="45.01" y="10.8">D</tspan><tspan class="cls-13" x="51.34" y="10.8">e</tspan><tspan class="cls-7" x="56.26" y="10.8">v!</tspan><tspan class="cls-8"><tspan x="0" y="21.6">M</tspan><tspan class="cls-4" x="7.71" y="21.6">i</tspan><tspan x="10" y="21.6">chel </tspan><tspan class="cls-13" x="29.24" y="21.6">M</tspan><tspan x="36.86" y="21.6">u</tspan><tspan class="cls-12" x="42.03" y="21.6">r</tspan><tspan x="45.51" y="21.6">a</tspan><tspan class="cls-4" x="50.33" y="21.6">bit</tspan><tspan class="cls-10" x="61.53" y="21.6">o</tspan></tspan></text><circle class="cls-18" cx="40.58" cy="84.67" r="4"/><text class="cls-19" transform="translate(7.67 88.17)"><tspan xml:space="preserve"> 9:45</tspan></text><text class="cls-1" transform="translate(57.17 137.5)"><tspan class="cls-16">T</tspan><tspan x="4.71" y="0">ypeS</tspan><tspan class="cls-4" x="25.23" y="0">c</tspan><tspan x="30.09" y="0">ri</tspan><tspan class="cls-9" x="36.08" y="0">p</tspan><tspan x="41.26" y="0">t</tspan><tspan class="cls-9" x="44.87" y="0"> </tspan><tspan class="cls-4" x="46.67" y="0">O</tspan><tspan class="cls-26" x="54.03" y="0">v</tspan><tspan x="58.9" y="0">e</tspan><tspan class="cls-15" x="63.91" y="0">r</tspan><tspan x="67.66" y="0">v</tspan><tspan class="cls-4" x="72.67" y="0">i</tspan><tspan class="cls-13" x="74.96" y="0">e</tspan><tspan x="79.87" y="0">w</tspan><tspan class="cls-8"><tspan class="cls-9" x="0" y="10.8">Fr</tspan><tspan x="8.33" y="10.8">an</tspan><tspan class="cls-4" x="18.31" y="10.8">c</tspan><tspan class="cls-11" x="23.17" y="10.8">es</tspan><tspan class="cls-4" x="32.61" y="10.8">c</tspan><tspan x="37.47" y="10.8">o</tspan><tspan class="cls-2" x="42.65" y="10.8"> </tspan><tspan x="44.36" y="10.8">Sci</tspan><tspan class="cls-11" x="56.77" y="10.8">ut</tspan><tspan class="cls-10" x="65.64" y="10.8">i</tspan></tspan></text><circle class="cls-8" cx="41.67" cy="28" r="20.43"/><text class="cls-45" transform="translate(74.42 35.17)">Sab</text><path d="M44.17,45.68A20.4,20.4,0,0,1,27.87,13,20.41,20.41,0,1,0,58,40.29,20.32,20.32,0,0,1,44.17,45.68Z"/><text class="cls-46" transform="translate(32.5 34.5)">18</text></svg>