<svg id="Livello_1" data-name="Livello 1" xmlns="http://www.w3.org/2000/svg" viewBox="0 0 193 528"><defs><style>.cls-1,.cls-2{fill:none;stroke:#868686;stroke-miterlimit:10;stroke-width:0.5px;}.cls-2{stroke-dasharray:2.99 2.99;}.cls-3,.cls-6{fill:#0a9a56;}.cls-29,.cls-4{font-size:10px;font-family:ProductSans-Regular, Product Sans;}.cls-15,.cls-24,.cls-29,.cls-4,.cls-40{fill:#343447;}.cls-5{letter-spacing:0.01em;}.cls-15,.cls-19,.cls-25,.cls-32,.cls-6{font-size:9px;}.cls-15,.cls-19,.cls-25,.cls-32,.cls-40,.cls-42,.cls-6{font-family:ProductSans-Bold, Product Sans;font-weight:700;}.cls-7{letter-spacing:0em;}.cls-8{letter-spacing:0em;}.cls-9{letter-spacing:-0.01em;}.cls-10{letter-spacing:-0.03em;}.cls-11{letter-spacing:0em;}.cls-12{letter-spacing:-0.01em;}.cls-13{letter-spacing:0.01em;}.cls-14{letter-spacing:0em;}.cls-16{letter-spacing:-0.01em;}.cls-17{letter-spacing:-0.01em;}.cls-18{letter-spacing:-0.02em;}.cls-19,.cls-31{fill:#f3b301;}.cls-20{letter-spacing:-0.02em;}.cls-21{letter-spacing:0.01em;}.cls-22{letter-spacing:0em;}.cls-23{letter-spacing:-0.04em;}.cls-25,.cls-39{fill:#517bbd;}.cls-26{letter-spacing:-0.02em;}.cls-27{letter-spacing:-0.09em;}.cls-28{letter-spacing:-0.06em;}.cls-29{letter-spacing:0em;}.cls-30{letter-spacing:0em;}.cls-32,.cls-35{fill:#db4437;}.cls-33{letter-spacing:-0.03em;}.cls-34{letter-spacing:-0.03em;}.cls-36{letter-spacing:0.01em;}.cls-37{letter-spacing:0.01em;}.cls-38{letter-spacing:-0.01em;}.cls-40,.cls-42{font-size:18px;}.cls-41{letter-spacing:-0.05em;}.cls-42{fill:#fff;}</style></defs><title>Tavola disegno 5</title><line class="cls-1" x1="41.33" y1="30.82" x2="41.33" y2="32.32"/><line class="cls-2" x1="41.33" y1="35.31" x2="41.33" y2="465"/><line class="cls-1" x1="41.33" y1="466.5" x2="41.33" y2="468"/><circle class="cls-3" cx="41.24" cy="91.83" r="4"/><text class="cls-4" transform="translate(8.33 95.33)"><tspan class="cls-5">1</tspan><tspan x="3.94" y="0">5:00</tspan></text><text class="cls-6" transform="translate(57.83 95.33)">Openi<tspan class="cls-7" x="25.26" y="0">ng</tspan><tspan class="cls-8" x="35.71" y="0">s</tspan></text><text class="cls-6" transform="translate(57.83 120.83)"><tspan class="cls-9">C</tspan><tspan class="cls-10" x="6.52" y="0">r</tspan><tspan class="cls-11" x="9.91" y="0">e</tspan><tspan x="14.96" y="0">d</tspan><tspan class="cls-12" x="20.36" y="0">i</tspan><tspan class="cls-13" x="22.64" y="0">t</tspan><tspan x="26.34" y="0">s</tspan></text><text class="cls-6" transform="translate(57.83 174.33)"><tspan class="cls-9">A</tspan><tspan class="cls-7" x="6.35" y="0">g</tspan><tspan x="11.68" y="0">en</tspan><tspan class="cls-7" x="21.85" y="0">d</tspan><tspan class="cls-14" x="27.21" y="0">a </tspan><tspan class="cls-9" x="34" y="0">e</tspan><tspan x="38.92" y="0">x</tspan><tspan class="cls-9" x="43.54" y="0">p</tspan><tspan class="cls-7" x="48.82" y="0">l</tspan><tspan x="50.96" y="0">a</tspan><tspan class="cls-7" x="55.77" y="0">n</tspan><tspan class="cls-9" x="60.89" y="0">a</tspan><tspan class="cls-11" x="65.62" y="0">t</tspan><tspan class="cls-12" x="69.27" y="0">i</tspan><tspan class="cls-9" x="71.56" y="0">o</tspan><tspan class="cls-14" x="76.65" y="0">n</tspan></text><text class="cls-15" transform="translate(57.83 193.33)"><tspan class="cls-16">L</tspan><tspan class="cls-7" x="4.72" y="0">uc</tspan><tspan x="14.7" y="0">a </tspan><tspan class="cls-17" x="21.49" y="0">N</tspan><tspan class="cls-7" x="27.86" y="0">a</tspan><tspan class="cls-11" x="32.63" y="0">s</tspan><tspan x="37.03" y="0">o</tspan></text><text class="cls-15" transform="translate(57.83 246.83)"><tspan class="cls-18">P</tspan><tspan class="cls-7" x="5.15" y="0">aol</tspan><tspan x="17.2" y="0">a Di </tspan><tspan class="cls-9" x="34.78" y="0">R</tspan><tspan class="cls-7" x="40.27" y="0">o</tspan><tspan class="cls-11" x="45.4" y="0">s</tspan><tspan x="49.8" y="0">a</tspan></text><text class="cls-19" transform="translate(57.83 280.33)"><tspan class="cls-20">C</tspan><tspan class="cls-16" x="6.43" y="0">o</tspan><tspan x="11.52" y="0">me </tspan><tspan class="cls-7" x="26.42" y="0">s</tspan><tspan x="30.73" y="0">i </tspan><tspan class="cls-7" x="35.04" y="0">c</tspan><tspan class="cls-10" x="39.9" y="0">r</tspan><tspan class="cls-11" x="43.29" y="0">e</tspan><tspan x="48.34" y="0">a un v</tspan><tspan class="cls-12" x="72.46" y="0">id</tspan><tspan class="cls-21" x="80.1" y="0">e</tspan><tspan class="cls-14" x="85.15" y="0">og</tspan><tspan class="cls-7" x="95.7" y="0">i</tspan><tspan class="cls-14" x="97.99" y="0">o</tspan><tspan class="cls-22" x="103.17" y="0">c</tspan><tspan class="cls-23" x="108.03" y="0">o</tspan><tspan x="112.86" y="0">?</tspan><tspan class="cls-24"><tspan x="0" y="11">Sam</tspan><tspan class="cls-7" x="17.91" y="11">u</tspan><tspan x="23.03" y="11">e</tspan><tspan class="cls-7" x="28.03" y="11">l</tspan><tspan x="30.18" y="11">e </tspan><tspan class="cls-18" x="37.16" y="11">P</tspan><tspan class="cls-7" x="42.31" y="11">ad</tspan><tspan x="52.43" y="11">alino</tspan></tspan></text><text class="cls-25" transform="translate(57.83 372.83)"><tspan class="cls-26">D</tspan><tspan x="6.34" y="0">oc</tspan><tspan class="cls-17" x="16.42" y="0">k</tspan><tspan x="21.06" y="0">e</tspan><tspan class="cls-27" x="26.06" y="0">r</tspan><tspan x="28.92" y="0">, </tspan><tspan class="cls-20" x="33.34" y="0">K</tspan><tspan x="39.18" y="0">ubern</tspan><tspan class="cls-17" x="63.58" y="0">e</tspan><tspan class="cls-7" x="68.44" y="0">t</tspan><tspan class="cls-11" x="72.01" y="0">e</tspan><tspan class="cls-8" x="77.06" y="0">s &amp;</tspan><tspan class="cls-10" x="89.21" y="0"> </tspan><tspan x="90.92" y="0">Azu</tspan><tspan class="cls-10" x="106.84" y="0">r</tspan><tspan x="110.23" y="0">e</tspan><tspan class="cls-24"><tspan x="0" y="11">Dan</tspan><tspan class="cls-7" x="16.45" y="11">i</tspan><tspan x="18.74" y="11">e</tspan><tspan class="cls-7" x="23.74" y="11">l</tspan><tspan x="25.88" y="11">e </tspan><tspan class="cls-17" x="32.87" y="11">M</tspan><tspan class="cls-7" x="40.45" y="11">ag</tspan><tspan x="50.54" y="11">g</tspan><tspan class="cls-7" x="55.92" y="11">i</tspan><tspan class="cls-14" x="58.2" y="11">o</tspan><tspan x="0" y="22">e</tspan><tspan class="cls-28" x="5" y="22"> </tspan><tspan class="cls-9" x="6.44" y="22">J</tspan><tspan class="cls-11" x="11.35" y="22">e</tspan><tspan x="16.4" y="22">s</tspan><tspan class="cls-7" x="20.74" y="22">sic</tspan><tspan x="32.19" y="22">a</tspan><tspan class="cls-23" x="37.01" y="22"> </tspan><tspan class="cls-10" x="38.63" y="22">T</tspan><tspan x="43.6" y="22">iba</tspan><tspan class="cls-12" x="56.15" y="22">l</tspan><tspan x="58.29" y="22">di</tspan></tspan></text><text class="cls-6" transform="translate(57.83 228.33)">B<tspan class="cls-10" x="5.66" y="0">r</tspan><tspan class="cls-11" x="9.05" y="0">e</tspan><tspan x="14.1" y="0">ak</tspan></text><circle class="cls-3" cx="41.24" cy="117.33" r="4"/><text class="cls-4" transform="translate(8.33 120.83)"><tspan class="cls-5">1</tspan><tspan x="3.94" y="0">5:30</tspan></text><circle class="cls-3" cx="41.24" cy="170.33" r="4"/><text class="cls-29" transform="translate(8.33 173.83)">1<tspan class="cls-30" x="3.89" y="0">6:40</tspan></text><circle class="cls-3" cx="41.24" cy="189.33" r="4"/><text class="cls-29" transform="translate(8.33 192.83)">1<tspan class="cls-30" x="3.89" y="0">6:55</tspan></text><circle class="cls-3" cx="41.24" cy="224.33" r="4"/><text class="cls-4" transform="translate(8.33 227.83)">17:<tspan class="cls-5" x="11.39" y="0">1</tspan><tspan x="15.33" y="0">5</tspan></text><circle class="cls-3" cx="41.24" cy="243.33" r="4"/><text class="cls-4" transform="translate(8.33 246.83)">17:35</text><circle class="cls-31" cx="41.24" cy="277" r="4"/><text class="cls-4" transform="translate(8.33 280.5)">18:05</text><text class="cls-32" transform="translate(57.83 328)">G<tspan class="cls-7" x="7.29" y="0">i</tspan><tspan class="cls-16" x="9.58" y="0">o</tspan><tspan x="14.67" y="0">r</tspan><tspan class="cls-7" x="18.33" y="0">n</tspan><tspan class="cls-14" x="23.45" y="0">ali</tspan><tspan class="cls-7" x="32.79" y="0">s</tspan><tspan x="37.09" y="0">mo v</tspan><tspan class="cls-7" x="57.19" y="0">id</tspan><tspan class="cls-11" x="64.83" y="0">e</tspan><tspan class="cls-7" x="69.88" y="0">o</tspan><tspan x="75.01" y="0">l</tspan><tspan class="cls-7" x="77.2" y="0">u</tspan><tspan x="82.32" y="0">d</tspan><tspan class="cls-12" x="87.72" y="0">ic</tspan><tspan class="cls-14" x="94.87" y="0">o</tspan><tspan x="0" y="11">e di</tspan><tspan class="cls-33" x="14.71" y="11">n</tspan><tspan class="cls-7" x="19.66" y="11">t</tspan><tspan class="cls-16" x="23.22" y="11">o</tspan><tspan x="28.31" y="11">rni</tspan><tspan class="cls-24"><tspan class="cls-20" x="0" y="22">E</tspan><tspan class="cls-7" x="5.02" y="22">d</tspan><tspan x="10.38" y="22">oa</tspan><tspan class="cls-34" x="20.38" y="22">r</tspan><tspan class="cls-22" x="23.77" y="22">d</tspan><tspan class="cls-14" x="29.12" y="22">o</tspan><tspan class="cls-20" x="34.31" y="22"> </tspan><tspan class="cls-14" x="36.11" y="22">Ul</tspan><tspan class="cls-7" x="44.32" y="22">l</tspan><tspan x="46.46" y="22">o</tspan></tspan></text><circle class="cls-35" cx="41.24" cy="324.67" r="4"/><text class="cls-4" transform="translate(8.33 328.17)">19:05</text><text class="cls-32" transform="translate(57.83 471.33)"><tspan class="cls-17">N</tspan><tspan class="cls-7" x="6.37" y="0">a</tspan><tspan class="cls-11" x="11.14" y="0">s</tspan><tspan x="15.53" y="0">c</tspan><tspan class="cls-7" x="20.44" y="0">i</tspan><tspan class="cls-9" x="22.72" y="0">t</tspan><tspan x="26.24" y="0">a, </tspan><tspan class="cls-9" x="35.48" y="0">e</tspan><tspan class="cls-17" x="40.39" y="0">v</tspan><tspan class="cls-12" x="45.27" y="0">o</tspan><tspan x="50.41" y="0">l</tspan><tspan class="cls-36" x="52.6" y="0">u</tspan><tspan class="cls-37" x="57.9" y="0">z</tspan><tspan class="cls-7" x="62.3" y="0">i</tspan><tspan class="cls-16" x="64.58" y="0">o</tspan><tspan x="69.68" y="0">ne, v</tspan><tspan class="cls-12" x="89.28" y="0">i</tspan><tspan class="cls-9" x="91.56" y="0">t</tspan><tspan x="95.08" y="0">a di un</tspan><tspan class="cls-11" x="0" y="11">s</tspan><tspan class="cls-17" x="4.39" y="11">e</tspan><tspan class="cls-7" x="9.26" y="11">tt</tspan><tspan class="cls-16" x="15.7" y="11">o</tspan><tspan class="cls-10" x="20.79" y="11">r</tspan><tspan x="24.18" y="11">e in </tspan><tspan class="cls-22" x="40.64" y="11">c</tspan><tspan class="cls-16" x="45.5" y="11">o</tspan><tspan x="50.6" y="11">m</tspan><tspan class="cls-9" x="58.52" y="11">p</tspan><tspan class="cls-7" x="63.79" y="11">l</tspan><tspan class="cls-17" x="65.93" y="11">e</tspan><tspan class="cls-9" x="70.8" y="11">t</tspan><tspan x="74.32" y="11">a </tspan><tspan class="cls-9" x="81.12" y="11">e</tspan><tspan class="cls-17" x="86.03" y="11">v</tspan><tspan class="cls-7" x="90.91" y="11">o</tspan><tspan x="96.05" y="11">l</tspan><tspan class="cls-36" x="98.23" y="11">u</tspan><tspan class="cls-37" x="103.53" y="11">z</tspan><tspan class="cls-7" x="107.94" y="11">i</tspan><tspan class="cls-16" x="110.22" y="11">o</tspan><tspan x="115.32" y="11">ne</tspan><tspan class="cls-24"><tspan class="cls-16" x="0" y="22">L</tspan><tspan class="cls-7" x="4.72" y="22">uc</tspan><tspan x="14.7" y="22">a</tspan><tspan class="cls-18" x="19.51" y="22" xml:space="preserve"> C</tspan><tspan x="27.74" y="22">a</tspan><tspan class="cls-7" x="32.55" y="22">l</tspan><tspan x="34.69" y="22">a</tspan><tspan class="cls-9" x="39.51" y="22">b</tspan><tspan class="cls-10" x="44.82" y="22">r</tspan><tspan class="cls-11" x="48.21" y="22">es</tspan><tspan class="cls-8" x="57.65" y="22">e,</tspan><tspan x="0" y="33">Giul</tspan><tspan class="cls-7" x="16.97" y="33">i</tspan><tspan x="19.26" y="33">o</tspan><tspan class="cls-18" x="24.44" y="33"> </tspan><tspan x="26.24" y="33">G</tspan><tspan class="cls-12" x="33.53" y="33">iac</tspan><tspan class="cls-16" x="45.45" y="33">o</tspan><tspan x="50.54" y="33">mo</tspan><tspan class="cls-18" x="63.65" y="33" xml:space="preserve"> C</tspan><tspan x="71.87" y="33">a</tspan><tspan class="cls-33" x="76.69" y="33">n</tspan><tspan class="cls-7" x="81.63" y="33">t</tspan><tspan class="cls-16" x="85.19" y="33">o</tspan><tspan x="90.29" y="33">ne</tspan><tspan x="0" y="44">e</tspan><tspan class="cls-20" x="5" y="44" xml:space="preserve"> Gr</tspan><tspan class="cls-37" x="17.4" y="44">az</tspan><tspan class="cls-7" x="26.7" y="44">i</tspan><tspan x="28.99" y="44">a </tspan><tspan class="cls-26" x="35.78" y="44">M</tspan><tspan x="43.36" y="44">ammino</tspan></tspan></text><circle class="cls-35" cx="41.24" cy="468" r="4"/><text class="cls-4" transform="translate(8.33 471.5)"><tspan class="cls-38">2</tspan><tspan x="5.1" y="0">1:45</tspan></text><circle class="cls-39" cx="41.24" cy="369.5" r="4"/><text class="cls-4" transform="translate(8.33 373)">19:45</text><circle class="cls-3" cx="41.24" cy="424" r="4"/><text class="cls-4" transform="translate(8.33 427.5)">20:45</text><text class="cls-6" transform="translate(57.83 427.33)"><tspan class="cls-20">C</tspan><tspan x="6.43" y="0">e</tspan><tspan class="cls-7" x="11.43" y="0">n</tspan><tspan class="cls-14" x="16.55" y="0">a</tspan></text><circle class="cls-24" cx="41.67" cy="28" r="20.43"/><text class="cls-40" transform="translate(74.42 35.17)"><tspan class="cls-41">V</tspan><tspan x="11.34" y="0">en</tspan></text><path d="M44.17,45.68A20.4,20.4,0,0,1,27.87,13,20.41,20.41,0,1,0,58,40.29,20.32,20.32,0,0,1,44.17,45.68Z"/><text class="cls-42" transform="translate(32.77 34.5)">17</text></svg>