<?xml version="1.0" encoding="UTF-8" standalone="no"?><!DOCTYPE svg PUBLIC "-//W3C//DTD SVG 1.1//EN" "http://www.w3.org/Graphics/SVG/1.1/DTD/svg11.dtd"><svg width="100%" height="100%" viewBox="0 0 557 240" version="1.1" xmlns="http://www.w3.org/2000/svg" xmlns:xlink="http://www.w3.org/1999/xlink" xml:space="preserve" xmlns:serif="http://www.serif.com/" style="fill-rule:evenodd;clip-rule:evenodd;stroke-linejoin:round;stroke-miterlimit:1.41421;"><rect x="-231" y="-191" width="1920" height="11591" style="fill:#fff;"/><path d="M409.493,202.221l0,-20.796l-4.937,1.975l-1.975,-4.382l8.208,-3.702l4.073,0l0,26.905l-5.369,0Z" style="fill:#353447;fill-rule:nonzero;"/><path d="M421.279,200.493l11.664,-19.994l-0.124,-0.247l-12.897,0l0.061,-4.875l19.007,0l0,5.122l-13.206,22.401l-4.505,-2.407Z" style="fill:#353447;fill-rule:nonzero;"/><path d="M467.191,202.221l0,-20.796l-4.936,1.975l-1.975,-4.382l8.207,-3.702l4.073,0l0,26.905l-5.369,0Z" style="fill:#353447;fill-rule:nonzero;"/><path d="M487.802,202.9c-1.481,0 -2.9,-0.185 -4.134,-0.617c-1.234,-0.432 -2.283,-0.988 -3.209,-1.728c-0.926,-0.741 -1.605,-1.543 -2.098,-2.53c-0.494,-0.988 -0.741,-2.037 -0.741,-3.209c0,-0.802 0.124,-1.543 0.37,-2.222c0.247,-0.678 0.556,-1.296 0.926,-1.851c0.37,-0.555 0.864,-1.049 1.358,-1.481c0.493,-0.432 1.049,-0.802 1.666,-1.049l0,-0.309c-0.926,-0.555 -1.666,-1.357 -2.345,-2.283c-0.679,-0.925 -0.987,-2.036 -0.987,-3.27c0,-1.05 0.246,-2.099 0.678,-3.024c0.494,-0.926 1.111,-1.728 1.913,-2.407c0.803,-0.679 1.79,-1.234 2.901,-1.604c1.111,-0.371 2.345,-0.556 3.702,-0.556c1.358,0 2.592,0.185 3.703,0.556c1.111,0.37 2.098,0.925 2.9,1.604c0.803,0.679 1.481,1.481 1.913,2.407c0.494,0.925 0.679,1.913 0.679,3.024c0,1.234 -0.309,2.345 -0.987,3.27c-0.679,0.926 -1.481,1.728 -2.345,2.283l0,0.309c0.555,0.309 1.111,0.617 1.666,1.049c0.494,0.432 0.987,0.926 1.358,1.481c0.37,0.555 0.678,1.173 0.925,1.851c0.247,0.679 0.37,1.42 0.37,2.222c0,1.172 -0.246,2.221 -0.74,3.209c-0.494,0.987 -1.173,1.851 -2.098,2.53c-0.926,0.74 -1.975,1.296 -3.209,1.728c-1.296,0.37 -2.654,0.617 -4.135,0.617Zm0,-4.752c1.42,0 2.531,-0.37 3.456,-1.049c0.926,-0.679 1.358,-1.604 1.358,-2.838c0,-0.556 -0.124,-1.05 -0.371,-1.543c-0.246,-0.432 -0.555,-0.864 -0.987,-1.173c-0.432,-0.37 -0.925,-0.617 -1.543,-0.802c-0.617,-0.185 -1.234,-0.247 -1.913,-0.247c-0.678,0 -1.295,0.062 -1.913,0.247c-0.617,0.185 -1.11,0.432 -1.542,0.802c-0.432,0.371 -0.741,0.741 -0.988,1.173c-0.247,0.432 -0.37,0.987 -0.37,1.543c0,1.172 0.432,2.098 1.358,2.838c0.925,0.679 2.036,1.049 3.455,1.049Zm0,-12.157c1.173,0 2.099,-0.308 2.839,-0.925c0.741,-0.617 1.173,-1.42 1.173,-2.407c0,-1.049 -0.371,-1.851 -1.173,-2.407c-0.741,-0.617 -1.728,-0.863 -2.839,-0.863c-1.11,0 -2.098,0.308 -2.838,0.863c-0.741,0.618 -1.173,1.42 -1.173,2.407c0,0.987 0.37,1.79 1.173,2.407c0.74,0.617 1.666,0.925 2.838,0.925Z" style="fill:#353447;fill-rule:nonzero;"/><path d="M526.124,202.221l0,-20.796l-4.937,1.975l-1.974,-4.382l8.207,-3.702l4.073,0l0,26.905l-5.369,0Z" style="fill:#353447;fill-rule:nonzero;"/><path d="M545.007,192.533c-1.049,0 -2.098,-0.185 -3.085,-0.617c-0.988,-0.432 -1.913,-0.988 -2.716,-1.79c-0.802,-0.741 -1.419,-1.666 -1.912,-2.715c-0.494,-1.049 -0.741,-2.222 -0.741,-3.518c0,-1.357 0.247,-2.53 0.802,-3.702c0.556,-1.111 1.296,-2.098 2.16,-2.901c0.926,-0.802 1.975,-1.419 3.147,-1.913c1.173,-0.493 2.407,-0.678 3.765,-0.678c1.48,0 2.9,0.246 4.134,0.74c1.234,0.494 2.283,1.173 3.209,2.036c0.864,0.864 1.543,1.852 2.036,2.962c0.494,1.111 0.741,2.345 0.741,3.58c0,1.789 -0.37,3.455 -1.111,4.936c-0.74,1.481 -1.728,3.024 -2.839,4.567l-6.788,9.256l-4.134,-2.715l5.739,-7.775l-0.185,-0.247c-0.679,0.37 -1.42,0.494 -2.222,0.494Zm1.543,-13.021c-0.617,0 -1.234,0.123 -1.79,0.308c-0.555,0.186 -1.049,0.494 -1.481,0.864c-0.432,0.371 -0.802,0.864 -1.049,1.358c-0.247,0.555 -0.37,1.111 -0.37,1.79c0,0.678 0.123,1.295 0.37,1.789c0.247,0.556 0.617,0.988 1.049,1.358c0.432,0.37 0.926,0.679 1.481,0.864c0.556,0.185 1.173,0.308 1.79,0.308c0.617,0 1.172,-0.123 1.79,-0.308c0.617,-0.185 1.11,-0.494 1.542,-0.864c0.432,-0.37 0.803,-0.864 1.049,-1.358c0.247,-0.555 0.371,-1.111 0.371,-1.789c0,-0.618 -0.124,-1.235 -0.371,-1.79c-0.246,-0.555 -0.617,-0.987 -1.049,-1.358c-0.432,-0.37 -0.987,-0.678 -1.542,-0.864c-0.618,-0.246 -1.173,-0.308 -1.79,-0.308Z" style="fill:#353447;fill-rule:nonzero;"/><path d="M406.469,216.846l4.937,0l9.071,14.502l0.247,0l-0.247,-4.196l0,-10.306l4.196,0l0,21.66l-4.443,0l-9.565,-15.304l-0.247,0l0.247,4.197l0,11.169l-4.196,0l0,-21.722Z" style="fill:#353447;fill-rule:nonzero;"/><path d="M436.028,223.202c1.172,0 2.283,0.186 3.27,0.617c0.988,0.432 1.852,0.926 2.592,1.605c0.741,0.679 1.296,1.543 1.728,2.468c0.432,0.988 0.617,2.037 0.617,3.148c0,1.172 -0.185,2.221 -0.617,3.147c-0.432,0.987 -0.987,1.789 -1.728,2.468c-0.74,0.679 -1.604,1.234 -2.592,1.605c-0.987,0.37 -2.098,0.617 -3.27,0.617c-1.173,0 -2.283,-0.185 -3.271,-0.617c-0.987,-0.432 -1.851,-0.926 -2.592,-1.605c-0.74,-0.679 -1.295,-1.543 -1.727,-2.468c-0.432,-0.988 -0.617,-2.037 -0.617,-3.147c0,-1.173 0.185,-2.222 0.617,-3.148c0.432,-0.987 0.987,-1.789 1.727,-2.468c0.741,-0.679 1.605,-1.234 2.592,-1.605c0.988,-0.37 2.037,-0.617 3.271,-0.617Zm0,12.157c0.494,0 1.049,-0.123 1.543,-0.308c0.493,-0.185 0.925,-0.494 1.296,-0.803c0.37,-0.308 0.678,-0.802 0.925,-1.357c0.247,-0.494 0.309,-1.111 0.309,-1.79c0,-0.679 -0.124,-1.234 -0.309,-1.789c-0.247,-0.494 -0.494,-0.988 -0.925,-1.358c-0.432,-0.37 -0.803,-0.617 -1.296,-0.802c-0.494,-0.185 -0.988,-0.309 -1.543,-0.309c-0.556,0 -1.049,0.124 -1.543,0.309c-0.493,0.185 -0.925,0.493 -1.296,0.802c-0.37,0.37 -0.679,0.802 -0.925,1.358c-0.247,0.493 -0.309,1.11 -0.309,1.789c0,0.679 0.124,1.234 0.309,1.79c0.246,0.493 0.493,0.987 0.925,1.357c0.371,0.371 0.803,0.618 1.296,0.803c0.494,0.185 0.987,0.308 1.543,0.308Z" style="fill:#353447;fill-rule:nonzero;"/><path d="M444.914,223.696l4.69,0l3.826,9.442l0.247,0l3.888,-9.442l4.628,0l-6.665,14.81l-4.073,0l-6.541,-14.81Z" style="fill:#353447;fill-rule:nonzero;"/><path d="M478.176,234.927c-0.741,1.234 -1.667,2.16 -2.901,2.962c-1.234,0.741 -2.653,1.111 -4.443,1.111c-1.172,0 -2.283,-0.185 -3.27,-0.617c-0.988,-0.432 -1.852,-0.926 -2.592,-1.666c-0.741,-0.679 -1.296,-1.543 -1.728,-2.469c-0.432,-0.925 -0.617,-2.036 -0.617,-3.147c0,-1.049 0.185,-2.098 0.617,-3.024c0.37,-0.925 0.926,-1.789 1.666,-2.53c0.741,-0.74 1.543,-1.296 2.53,-1.728c0.987,-0.432 2.037,-0.617 3.209,-0.617c1.234,0 2.345,0.185 3.332,0.617c0.988,0.432 1.79,0.926 2.407,1.605c0.679,0.679 1.173,1.543 1.481,2.468c0.309,0.926 0.494,1.975 0.494,3.086c0,0.123 0,0.247 0,0.37c0,0.123 -0.062,0.247 -0.062,0.309c0,0.123 -0.062,0.185 -0.062,0.308l-11.478,0c0.062,0.617 0.247,1.111 0.494,1.543c0.247,0.432 0.617,0.802 0.987,1.111c0.371,0.308 0.803,0.493 1.296,0.617c0.432,0.123 0.926,0.185 1.42,0.185c0.925,0 1.727,-0.185 2.345,-0.617c0.617,-0.432 1.11,-0.926 1.481,-1.543l3.394,1.666Zm-3.765,-5.739c0,-0.247 -0.123,-0.555 -0.247,-0.864c-0.185,-0.308 -0.37,-0.617 -0.678,-0.925c-0.309,-0.309 -0.679,-0.494 -1.111,-0.679c-0.432,-0.185 -0.987,-0.247 -1.604,-0.247c-0.864,0 -1.667,0.247 -2.345,0.741c-0.679,0.493 -1.173,1.172 -1.42,2.036l7.405,0l0,-0.062Z" style="fill:#353447;fill-rule:nonzero;"/><path d="M481.076,223.696l3.888,0l0,1.913l0.246,0c0.494,-0.74 1.111,-1.296 1.975,-1.728c0.803,-0.432 1.728,-0.679 2.777,-0.679c1.173,0 2.16,0.247 2.962,0.803c0.802,0.555 1.358,1.172 1.728,1.913c0.494,-0.741 1.173,-1.358 2.037,-1.913c0.863,-0.556 1.974,-0.803 3.208,-0.803c0.926,0 1.79,0.124 2.469,0.432c0.679,0.309 1.234,0.679 1.728,1.235c0.432,0.493 0.802,1.172 1.049,1.913c0.247,0.74 0.37,1.542 0.37,2.406l0,9.318l-4.135,0l0,-8.639c0,-2.036 -0.864,-3.024 -2.591,-3.024c-0.556,0 -1.049,0.124 -1.42,0.371c-0.432,0.246 -0.74,0.555 -1.049,0.925c-0.308,0.37 -0.493,0.864 -0.678,1.419c-0.186,0.556 -0.247,1.111 -0.247,1.728l0,7.22l-4.135,0l0,-8.639c0,-2.036 -0.926,-3.024 -2.715,-3.024c-0.556,0 -0.988,0.124 -1.358,0.371c-0.37,0.246 -0.74,0.555 -0.987,0.925c-0.247,0.37 -0.494,0.864 -0.617,1.419c-0.124,0.556 -0.247,1.111 -0.247,1.728l0,7.22l-4.135,0l0,-14.81l-0.123,0Z" style="fill:#353447;fill-rule:nonzero;"/><path d="M508.784,216.846l4.134,0l0,6.48l-0.247,2.098l0.247,0c0.37,-0.617 0.988,-1.173 1.79,-1.605c0.802,-0.432 1.789,-0.678 2.962,-0.678c0.987,0 1.913,0.185 2.838,0.617c0.926,0.432 1.667,0.925 2.345,1.604c0.679,0.679 1.235,1.543 1.605,2.469c0.37,0.987 0.617,2.036 0.617,3.147c0,1.172 -0.185,2.221 -0.617,3.147c-0.37,0.987 -0.926,1.79 -1.605,2.468c-0.678,0.679 -1.481,1.235 -2.345,1.605c-0.863,0.37 -1.851,0.617 -2.838,0.617c-1.173,0 -2.16,-0.247 -2.962,-0.679c-0.802,-0.432 -1.358,-0.987 -1.79,-1.604l-0.247,0l0,1.789l-3.887,0l0,-21.475Zm8.022,18.513c0.555,0 1.049,-0.123 1.543,-0.308c0.493,-0.186 0.925,-0.494 1.296,-0.864c0.37,-0.371 0.678,-0.803 0.925,-1.358c0.247,-0.494 0.37,-1.111 0.37,-1.728c0,-0.617 -0.123,-1.234 -0.37,-1.728c-0.247,-0.493 -0.555,-0.987 -0.925,-1.357c-0.371,-0.371 -0.803,-0.617 -1.296,-0.864c-0.494,-0.185 -0.988,-0.309 -1.543,-0.309c-0.556,0 -1.049,0.124 -1.543,0.309c-0.494,0.185 -0.926,0.493 -1.296,0.802c-0.37,0.37 -0.679,0.802 -0.925,1.358c-0.247,0.493 -0.371,1.11 -0.371,1.789c0,0.679 0.124,1.234 0.371,1.79c0.246,0.493 0.555,0.987 0.925,1.357c0.37,0.371 0.802,0.617 1.296,0.803c0.432,0.185 0.987,0.308 1.543,0.308Z" style="fill:#353447;fill-rule:nonzero;"/><path d="M527.358,223.696l3.888,0l0,2.036l0.247,0c0.185,-0.37 0.432,-0.678 0.74,-0.987c0.309,-0.308 0.679,-0.555 1.049,-0.802c0.371,-0.247 0.803,-0.432 1.235,-0.556c0.432,-0.123 0.925,-0.185 1.357,-0.185c0.556,0 0.988,0.062 1.42,0.185c0.37,0.124 0.74,0.247 0.987,0.432l-1.111,3.518c-0.247,-0.123 -0.555,-0.247 -0.864,-0.309c-0.308,-0.061 -0.679,-0.123 -1.111,-0.123c-0.555,0 -1.11,0.123 -1.542,0.309c-0.432,0.185 -0.864,0.493 -1.173,0.925c-0.308,0.37 -0.555,0.864 -0.74,1.358c-0.185,0.493 -0.247,1.049 -0.247,1.666l0,7.282l-4.135,0l0,-14.749Z" style="fill:#353447;fill-rule:nonzero;"/><path d="M553.832,234.927c-0.741,1.234 -1.666,2.16 -2.901,2.962c-1.234,0.741 -2.653,1.111 -4.443,1.111c-1.172,0 -2.283,-0.185 -3.27,-0.617c-0.988,-0.432 -1.852,-0.926 -2.592,-1.666c-0.741,-0.679 -1.296,-1.543 -1.728,-2.469c-0.432,-0.925 -0.617,-2.036 -0.617,-3.147c0,-1.049 0.185,-2.098 0.617,-3.024c0.37,-0.925 0.926,-1.789 1.666,-2.53c0.741,-0.74 1.543,-1.296 2.53,-1.728c0.987,-0.432 2.037,-0.617 3.209,-0.617c1.234,0 2.345,0.185 3.332,0.617c0.988,0.432 1.79,0.926 2.407,1.605c0.679,0.679 1.173,1.543 1.481,2.468c0.309,0.926 0.494,1.975 0.494,3.086c0,0.123 0,0.247 0,0.37c0,0.123 -0.062,0.247 -0.062,0.309c0,0.123 -0.062,0.185 -0.062,0.308l-11.601,0c0.062,0.617 0.247,1.111 0.494,1.543c0.247,0.432 0.617,0.802 0.987,1.111c0.37,0.308 0.802,0.493 1.296,0.617c0.432,0.123 0.926,0.185 1.419,0.185c0.926,0 1.728,-0.185 2.345,-0.617c0.617,-0.432 1.111,-0.926 1.481,-1.543l3.518,1.666Zm-3.764,-5.739c0,-0.247 -0.124,-0.555 -0.247,-0.864c-0.186,-0.308 -0.371,-0.617 -0.679,-0.925c-0.309,-0.309 -0.679,-0.494 -1.111,-0.679c-0.432,-0.185 -0.987,-0.247 -1.604,-0.247c-0.864,0 -1.667,0.247 -2.345,0.741c-0.679,0.493 -1.173,1.172 -1.42,2.036l7.406,0l0,-0.062Z" style="fill:#353447;fill-rule:nonzero;"/><path d="M453.985,190.064c0,2.674 -1.378,4.011 -4.134,4.011c-2.756,0 -4.135,-1.337 -4.135,-4.011c0,-2.674 1.379,-4.011 4.135,-4.011c2.756,0 4.134,1.337 4.134,4.011Z" style="fill:#353447;fill-rule:nonzero;"/><path d="M513.412,190.064c0,2.674 -1.378,4.011 -4.135,4.011c-2.756,0 -4.134,-1.337 -4.134,-4.011c0,-2.674 1.378,-4.011 4.134,-4.011c2.757,0 4.135,1.337 4.135,4.011Z" style="fill:#353447;fill-rule:nonzero;"/><path d="M-1,-0.125l22.215,0c5.184,0 9.874,0.741 14.07,2.283c4.135,1.543 7.714,3.703 10.614,6.48c2.962,2.777 5.184,6.109 6.727,9.997c1.542,3.888 2.345,8.145 2.345,12.774c0,4.69 -0.803,9.009 -2.345,12.835c-1.543,3.888 -3.826,7.22 -6.727,9.997c-2.962,2.777 -6.479,4.875 -10.614,6.418c-4.134,1.543 -8.824,2.283 -14.07,2.283l-22.215,0l0,-63.067Zm21.66,51.774c3.579,0 6.788,-0.493 9.565,-1.481c2.777,-0.987 5.06,-2.345 6.912,-4.072c1.851,-1.79 3.208,-3.888 4.134,-6.418c0.926,-2.469 1.358,-5.245 1.358,-8.331c0,-3.024 -0.432,-5.801 -1.358,-8.331c-0.926,-2.468 -2.283,-4.628 -4.134,-6.418c-1.852,-1.789 -4.135,-3.147 -6.912,-4.072c-2.777,-0.988 -5.924,-1.481 -9.565,-1.481l-9.256,0l0,40.543l9.256,0l0,0.061Z" style="fill:#353447;fill-rule:nonzero;"/><path d="M104.709,52.513c-2.098,3.518 -4.875,6.357 -8.393,8.578c-3.517,2.16 -7.837,3.271 -12.897,3.271c-3.456,0 -6.603,-0.556 -9.503,-1.728c-2.901,-1.173 -5.431,-2.715 -7.591,-4.814c-2.16,-2.036 -3.826,-4.504 -4.998,-7.281c-1.173,-2.777 -1.79,-5.863 -1.79,-9.195c0,-3.086 0.556,-6.048 1.728,-8.886c1.173,-2.777 2.777,-5.246 4.875,-7.344c2.098,-2.098 4.567,-3.764 7.405,-4.998c2.839,-1.234 5.986,-1.851 9.38,-1.851c3.579,0 6.85,0.555 9.627,1.727c2.839,1.173 5.183,2.716 7.096,4.752c1.913,2.036 3.333,4.443 4.32,7.158c0.988,2.777 1.481,5.739 1.481,9.01c0,0.432 0,0.741 0,1.049c-0.062,0.37 -0.062,0.679 -0.062,0.987c-0.061,0.309 -0.061,0.618 -0.061,0.988l-33.879,0c0.247,1.789 0.741,3.27 1.543,4.566c0.74,1.234 1.728,2.345 2.839,3.147c1.11,0.864 2.345,1.482 3.702,1.852c1.358,0.37 2.715,0.555 4.135,0.555c2.777,0 5.06,-0.617 6.849,-1.789c1.79,-1.173 3.209,-2.716 4.258,-4.567l9.936,4.813Zm-10.923,-16.723c-0.062,-0.74 -0.308,-1.604 -0.802,-2.53c-0.432,-0.926 -1.111,-1.79 -2.037,-2.654c-0.864,-0.802 -1.974,-1.481 -3.332,-2.036c-1.296,-0.555 -2.9,-0.802 -4.752,-0.802c-2.591,0 -4.813,0.679 -6.788,2.098c-1.974,1.419 -3.332,3.394 -4.134,5.924l21.845,0l0,0Z" style="fill:#353447;fill-rule:nonzero;"/><path d="M107.486,19.746l13.699,0l11.17,27.522l0.617,0l11.293,-27.522l13.576,0l-19.377,43.196l-11.848,0l-19.13,-43.196Z" style="fill:#353447;fill-rule:nonzero;"/><path d="M164.814,-0.125l41.654,0l0,11.293l-29.25,0l0,15.304l26.35,0l0,11.293l-26.35,0l0,25.177l-12.404,0l0,-63.067Z" style="fill:#353447;fill-rule:nonzero;"/><path d="M254.416,52.513c-2.098,3.518 -4.875,6.357 -8.392,8.578c-3.518,2.16 -7.837,3.271 -12.898,3.271c-3.455,0 -6.602,-0.556 -9.503,-1.728c-2.9,-1.173 -5.43,-2.715 -7.59,-4.814c-2.16,-2.036 -3.826,-4.504 -4.999,-7.281c-1.172,-2.777 -1.789,-5.863 -1.789,-9.195c0,-3.086 0.555,-6.048 1.728,-8.886c1.172,-2.777 2.777,-5.246 4.875,-7.344c2.098,-2.098 4.566,-3.764 7.405,-4.998c2.839,-1.234 5.986,-1.851 9.38,-1.851c3.579,0 6.85,0.555 9.627,1.727c2.838,1.173 5.183,2.716 7.096,4.752c1.913,2.036 3.332,4.443 4.32,7.158c0.987,2.777 1.481,5.739 1.481,9.01c0,0.432 0,0.741 0,1.049c-0.062,0.37 -0.062,0.679 -0.062,0.987c-0.062,0.309 -0.062,0.618 -0.062,0.988l-33.878,0c0.247,1.789 0.74,3.27 1.543,4.566c0.74,1.234 1.727,2.345 2.838,3.147c1.111,0.864 2.345,1.482 3.703,1.852c1.357,0.37 2.715,0.555 4.134,0.555c2.777,0 5.061,-0.617 6.85,-1.789c1.79,-1.173 3.209,-2.716 4.258,-4.567l9.935,4.813Zm-10.922,-16.723c-0.062,-0.74 -0.309,-1.604 -0.802,-2.53c-0.432,-0.926 -1.111,-1.79 -2.037,-2.654c-0.864,-0.802 -1.975,-1.481 -3.332,-2.036c-1.296,-0.555 -2.901,-0.802 -4.752,-0.802c-2.592,0 -4.813,0.679 -6.788,2.098c-1.975,1.419 -3.332,3.394 -4.134,5.924l21.845,0l0,0Z" style="fill:#353447;fill-rule:nonzero;"/><path d="M281.075,64.362c-2.962,0 -5.554,-0.371 -7.837,-1.049c-2.283,-0.679 -4.258,-1.605 -5.986,-2.777c-1.666,-1.173 -3.086,-2.469 -4.258,-3.95c-1.173,-1.481 -2.036,-3.024 -2.654,-4.566l10.738,-4.382c1.049,2.222 2.407,3.888 4.196,4.999c1.728,1.111 3.703,1.604 5.801,1.604c2.221,0 3.949,-0.37 5.245,-1.172c1.296,-0.741 1.913,-1.666 1.913,-2.715c0,-1.173 -0.555,-2.099 -1.604,-2.839c-1.049,-0.741 -2.901,-1.419 -5.554,-1.975l-6.356,-1.296c-1.42,-0.308 -2.839,-0.74 -4.382,-1.419c-1.481,-0.617 -2.838,-1.481 -4.072,-2.468c-1.235,-0.988 -2.222,-2.222 -3.024,-3.641c-0.802,-1.42 -1.173,-3.024 -1.173,-4.937c0,-2.098 0.494,-4.011 1.42,-5.616c0.925,-1.666 2.221,-3.023 3.887,-4.196c1.666,-1.172 3.58,-2.036 5.801,-2.653c2.222,-0.617 4.628,-0.926 7.22,-0.926c4.258,0 8.084,0.802 11.478,2.407c3.394,1.604 5.863,4.196 7.405,7.713l-10.367,4.073c-0.864,-1.728 -2.098,-2.962 -3.764,-3.702c-1.666,-0.741 -3.333,-1.173 -4.937,-1.173c-1.728,0 -3.209,0.309 -4.505,0.988c-1.296,0.678 -1.913,1.542 -1.913,2.591c0,0.988 0.556,1.79 1.605,2.407c1.049,0.617 2.53,1.111 4.381,1.604l6.912,1.605c4.566,1.049 8.022,2.777 10.243,5.06c2.222,2.345 3.333,5.06 3.333,8.269c0,1.851 -0.432,3.703 -1.358,5.369c-0.926,1.728 -2.222,3.209 -3.888,4.566c-1.666,1.296 -3.702,2.345 -6.047,3.148c-2.407,0.678 -4.999,1.049 -7.899,1.049Z" style="fill:#353447;fill-rule:nonzero;"/><path d="M312.115,29.619l-7.899,0l0,-9.873l7.899,0l0,-13.206l12.033,0l0,13.206l10.985,0l0,9.873l-10.985,0l0,17.279c0,1.049 0.124,1.975 0.309,2.838c0.185,0.864 0.617,1.605 1.234,2.222c0.864,0.987 2.098,1.481 3.641,1.481c1.049,0 1.851,-0.123 2.468,-0.308c0.617,-0.186 1.173,-0.494 1.728,-0.864l3.394,10.12c-1.419,0.617 -2.9,1.111 -4.566,1.481c-1.605,0.309 -3.394,0.494 -5.369,0.494c-2.283,0 -4.32,-0.371 -6.109,-1.049c-1.79,-0.679 -3.333,-1.605 -4.567,-2.839c-2.9,-2.715 -4.32,-6.541 -4.32,-11.54l0,-19.315l0.124,0Z" style="fill:#353447;fill-rule:nonzero;"/><path d="M7.084,146.065l-8.084,0l0,-60.599l8.084,0l21.969,36.903l0.37,0l21.969,-36.903l8.083,0l0,60.599l-8.145,0l0,-35.976l0.37,-10.183l-0.37,0l-19.747,33.262l-4.752,0l-19.747,-33.262l-0.37,0l0.37,10.183l0,35.976l0,0Z" style="fill:#353447;fill-rule:nonzero;"/><path d="M90.145,147.423c-6.356,0 -11.601,-2.098 -15.674,-6.294c-4.135,-4.197 -6.171,-9.442 -6.171,-15.798c0,-6.295 1.975,-11.602 5.986,-15.798c4.011,-4.196 9.133,-6.294 15.366,-6.294c6.417,0 11.478,1.974 15.304,5.986c3.764,3.949 5.677,9.565 5.677,16.723l-0.062,0.864l-33.94,0c0.123,4.073 1.542,7.343 4.258,9.812c2.715,2.468 5.924,3.702 9.688,3.702c5.184,0 9.195,-2.468 12.157,-7.467l7.22,3.394c-1.913,3.518 -4.628,6.233 -8.084,8.208c-3.456,1.975 -7.405,2.962 -11.725,2.962Zm-12.959,-27.091l24.746,0c-0.247,-2.9 -1.481,-5.245 -3.641,-7.158c-2.222,-1.913 -5.184,-2.839 -8.886,-2.839c-3.086,0 -5.678,0.926 -7.899,2.716c-2.16,1.789 -3.641,4.258 -4.32,7.281Z" style="fill:#353447;fill-rule:nonzero;"/><path d="M136.489,147.423c-5.615,0 -10.49,-2.16 -14.563,-6.418c-4.011,-4.32 -5.986,-9.565 -5.986,-15.674c0,-6.109 1.975,-11.293 5.986,-15.674c4.073,-4.258 8.886,-6.418 14.563,-6.418c3.147,0 6.048,0.679 8.701,1.974c2.592,1.296 4.628,3.024 6.048,5.184l0.37,0l-0.37,-5.739l0,-19.13l8.084,0l0,60.599l-7.776,0l0,-5.801l-0.37,0c-1.419,2.16 -3.394,3.888 -6.047,5.184c-2.531,1.234 -5.431,1.913 -8.64,1.913Zm1.358,-7.097c4.011,0 7.282,-1.357 9.812,-4.134c2.653,-2.777 3.949,-6.356 3.949,-10.861c0,-4.32 -1.296,-7.899 -3.949,-10.738c-2.592,-2.838 -5.863,-4.258 -9.812,-4.258c-3.888,0 -7.159,1.42 -9.812,4.258c-2.654,2.839 -3.949,6.418 -3.949,10.738c0,4.381 1.295,7.96 3.949,10.737c2.653,2.839 5.924,4.258 9.812,4.258Z" style="fill:#353447;fill-rule:nonzero;"/><path d="M179.686,90.28c0,1.542 -0.555,2.838 -1.666,3.887c-1.111,1.05 -2.469,1.605 -4.073,1.605c-1.605,0 -2.962,-0.555 -4.073,-1.605c-1.111,-1.049 -1.666,-2.345 -1.666,-3.887c0,-1.543 0.555,-2.839 1.666,-3.888c1.111,-1.049 2.468,-1.604 4.073,-1.604c1.604,0 2.962,0.555 4.073,1.604c1.111,1.049 1.666,2.345 1.666,3.888Zm-1.666,14.316l0,41.469l-8.084,0l0,-41.469l8.084,0Z" style="fill:#353447;fill-rule:nonzero;"/><path d="M205.234,146.744c-3.518,0 -6.48,-1.049 -8.763,-3.147c-2.345,-2.098 -3.517,-4.999 -3.579,-8.701l0,-23.203l-7.529,0l0,-7.097l7.591,0l0,-12.712l8.084,0l0,12.712l10.552,0l0,7.097l-10.552,0l0,20.673c0,2.777 0.555,4.628 1.666,5.615c1.11,0.988 2.406,1.481 3.764,1.481c0.617,0 1.296,-0.061 1.913,-0.185c0.617,-0.123 1.172,-0.308 1.728,-0.555l2.53,6.911c-2.098,0.741 -4.567,1.111 -7.405,1.111Z" style="fill:#353447;fill-rule:nonzero;"/><path d="M238.31,147.423c-6.356,0 -11.601,-2.098 -15.674,-6.294c-4.135,-4.197 -6.171,-9.442 -6.171,-15.798c0,-6.295 1.975,-11.602 5.986,-15.798c4.011,-4.196 9.133,-6.294 15.365,-6.294c6.418,0 11.478,1.974 15.304,5.986c3.765,3.949 5.678,9.565 5.678,16.723l-0.062,0.864l-33.94,0c0.123,4.073 1.542,7.343 4.258,9.812c2.715,2.468 5.924,3.702 9.688,3.702c5.184,0 9.195,-2.468 12.157,-7.467l7.22,3.394c-1.913,3.518 -4.628,6.233 -8.084,8.208c-3.456,1.975 -7.343,2.962 -11.725,2.962Zm-12.959,-27.091l24.746,0c-0.247,-2.9 -1.481,-5.245 -3.641,-7.158c-2.222,-1.913 -5.184,-2.839 -8.886,-2.839c-3.086,0 -5.678,0.926 -7.899,2.716c-2.16,1.789 -3.579,4.258 -4.32,7.281Z" style="fill:#353447;fill-rule:nonzero;"/><path d="M274.287,146.065l-8.084,0l0,-41.469l7.775,0l0,6.788l0.371,0c0.802,-2.221 2.53,-4.072 5.06,-5.615c2.53,-1.543 5.06,-2.345 7.528,-2.345c2.345,0 4.32,0.308 5.986,0.987l-2.468,7.529c-0.988,-0.37 -2.592,-0.617 -4.752,-0.617c-3.085,0 -5.739,1.172 -7.96,3.579c-2.284,2.345 -3.394,5.122 -3.394,8.269l0,22.894l-0.062,0Z" style="fill:#353447;fill-rule:nonzero;"/><path d="M306.253,146.065l-8.085,0l0,-41.469l7.776,0l0,6.788l0.37,0c0.802,-2.221 2.53,-4.072 5.06,-5.615c2.53,-1.543 5.061,-2.345 7.529,-2.345c2.345,0 4.32,0.308 5.986,0.987l-2.469,7.529c-0.987,-0.37 -2.591,-0.617 -4.751,-0.617c-3.086,0 -5.739,1.172 -7.961,3.579c-2.283,2.345 -3.394,5.122 -3.394,8.269l0,22.894l-0.061,0Z" style="fill:#353447;fill-rule:nonzero;"/><path d="M344.821,103.239c5.986,0 10.737,1.543 14.193,4.628c3.456,3.086 5.184,7.282 5.184,12.65l0,25.548l-7.775,0l0,-5.739l-0.371,0c-3.332,4.752 -7.837,7.097 -13.391,7.097c-4.751,0 -8.763,-1.358 -11.971,-4.073c-3.209,-2.715 -4.814,-6.109 -4.814,-10.182c0,-4.258 1.666,-7.714 5.06,-10.244c3.394,-2.53 7.899,-3.826 13.515,-3.826c4.813,0 8.763,0.864 11.91,2.53l0,-1.789c0,-2.716 -1.111,-4.999 -3.333,-6.912c-2.221,-1.913 -4.875,-2.838 -7.837,-2.838c-4.505,0 -8.084,1.851 -10.737,5.492l-7.159,-4.32c4.012,-5.307 9.812,-8.022 17.526,-8.022Zm-10.491,30.114c0,2.037 0.926,3.703 2.716,5.06c1.789,1.358 3.887,2.037 6.294,2.037c3.394,0 6.48,-1.234 9.133,-3.641c2.654,-2.407 4.011,-5.245 4.011,-8.578c-2.53,-1.913 -6.047,-2.9 -10.552,-2.9c-3.271,0 -6.048,0.74 -8.269,2.283c-2.284,1.605 -3.333,3.518 -3.333,5.739Z" style="fill:#353447;fill-rule:nonzero;"/><path d="M373.331,104.596l7.775,0l0,5.739l0.371,0c1.234,-2.036 3.147,-3.702 5.677,-5.06c2.53,-1.357 5.245,-2.036 7.96,-2.036c5.307,0 9.38,1.481 12.219,4.381c2.839,2.901 4.258,7.035 4.258,12.404l0,26.041l-8.084,0l0,-25.547c-0.185,-6.789 -3.703,-10.183 -10.676,-10.183c-3.209,0 -5.924,1.235 -8.084,3.765c-2.16,2.53 -3.27,5.492 -3.27,9.009l0,22.956l-8.084,0l0,-41.469l-0.062,0Z" style="fill:#353447;fill-rule:nonzero;"/><path d="M440.533,147.423c-6.356,0 -11.602,-2.098 -15.675,-6.294c-4.134,-4.197 -6.171,-9.442 -6.171,-15.798c0,-6.295 1.975,-11.602 5.986,-15.798c4.011,-4.196 9.133,-6.294 15.366,-6.294c6.418,0 11.478,1.974 15.304,5.986c3.764,3.949 5.677,9.565 5.677,16.723l-0.061,0.864l-33.941,0c0.124,4.073 1.543,7.343 4.258,9.812c2.715,2.468 5.924,3.702 9.689,3.702c5.183,0 9.194,-2.468 12.157,-7.467l7.22,3.394c-1.913,3.518 -4.629,6.233 -8.084,8.208c-3.518,1.975 -7.406,2.962 -11.725,2.962Zm-12.959,-27.091l24.745,0c-0.247,-2.9 -1.481,-5.245 -3.641,-7.158c-2.221,-1.913 -5.183,-2.839 -8.886,-2.839c-3.085,0 -5.677,0.926 -7.899,2.716c-2.16,1.789 -3.641,4.258 -4.319,7.281Z" style="fill:#353447;fill-rule:nonzero;"/><path d="M485.211,103.239c5.985,0 10.737,1.543 14.193,4.628c3.455,3.086 5.183,7.282 5.183,12.65l0,25.548l-7.775,0l0,-5.739l-0.37,0c-3.333,4.752 -7.837,7.097 -13.391,7.097c-4.752,0 -8.763,-1.358 -11.972,-4.073c-3.209,-2.715 -4.813,-6.109 -4.813,-10.182c0,-4.258 1.666,-7.714 5.06,-10.244c3.394,-2.53 7.899,-3.826 13.514,-3.826c4.814,0 8.763,0.864 11.91,2.53l0,-1.789c0,-2.716 -1.11,-4.999 -3.332,-6.912c-2.222,-1.913 -4.875,-2.838 -7.837,-2.838c-4.505,0 -8.084,1.851 -10.738,5.492l-7.158,-4.32c4.011,-5.307 9.812,-8.022 17.526,-8.022Zm-10.491,30.114c0,2.037 0.926,3.703 2.715,5.06c1.79,1.358 3.888,2.037 6.295,2.037c3.394,0 6.479,-1.234 9.133,-3.641c2.653,-2.407 4.011,-5.245 4.011,-8.578c-2.53,-1.913 -6.048,-2.9 -10.553,-2.9c-3.27,0 -6.047,0.74 -8.269,2.283c-2.221,1.543 -3.332,3.518 -3.332,5.739Z" style="fill:#353447;fill-rule:nonzero;"/><path d="M513.782,104.596l7.775,0l0,5.739l0.371,0c1.234,-2.036 3.147,-3.702 5.677,-5.06c2.53,-1.357 5.245,-2.036 7.961,-2.036c5.307,0 9.379,1.481 12.218,4.381c2.839,2.901 4.258,7.035 4.258,12.404l0,26.041l-8.146,0l0,-25.547c-0.185,-6.789 -3.702,-10.183 -10.675,-10.183c-3.209,0 -5.925,1.235 -8.084,3.765c-2.16,2.53 -3.271,5.492 -3.271,9.009l0,22.956l-8.084,0l0,-41.469Z" style="fill:#353447;fill-rule:nonzero;"/><path d="M0.913,236.717l0,-10.553c3.641,-3.455 6.973,-6.664 10.059,-9.626c1.296,-1.234 2.591,-2.53 3.949,-3.826c1.358,-1.296 2.592,-2.53 3.764,-3.641c1.173,-1.111 2.222,-2.16 3.148,-3.086c0.925,-0.925 1.604,-1.666 2.098,-2.159c0.987,-1.111 1.851,-2.16 2.653,-3.024c0.741,-0.864 1.358,-1.79 1.852,-2.592c0.493,-0.864 0.802,-1.728 1.049,-2.592c0.246,-0.864 0.37,-1.789 0.37,-2.777c0,-1.974 -0.802,-3.641 -2.407,-5.122c-1.604,-1.481 -3.764,-2.159 -6.541,-2.159c-2.777,0 -4.937,0.74 -6.48,2.283c-1.542,1.481 -2.591,3.209 -3.147,5.122l-10.984,-4.382c0.494,-1.604 1.296,-3.27 2.407,-4.937c1.11,-1.666 2.53,-3.208 4.258,-4.504c1.727,-1.358 3.764,-2.407 6.171,-3.271c2.344,-0.864 5.06,-1.296 8.022,-1.296c3.209,0 6.109,0.432 8.701,1.358c2.592,0.925 4.751,2.16 6.541,3.764c1.79,1.605 3.147,3.456 4.196,5.616c0.988,2.16 1.481,4.505 1.481,6.973c0,3.764 -0.987,7.282 -2.9,10.429c-1.913,3.147 -4.32,6.109 -7.097,8.824l-7.96,7.652c-2.098,2.037 -4.505,4.258 -7.097,6.727l0.37,0.555l25.61,0l0,10.244l-42.086,0Z" style="fill:#353447;fill-rule:nonzero;"/><path d="M77.68,238.136c-4.073,0 -7.714,-0.802 -10.984,-2.468c-3.271,-1.605 -6.048,-3.888 -8.393,-6.727c-2.345,-2.838 -4.073,-6.232 -5.307,-10.058c-1.234,-3.888 -1.851,-8.084 -1.851,-12.589c0,-4.505 0.617,-8.701 1.851,-12.589c1.234,-3.887 3.024,-7.22 5.307,-10.058c2.283,-2.839 5.122,-5.061 8.393,-6.727c3.27,-1.604 6.911,-2.468 10.984,-2.468c4.073,0 7.714,0.802 10.984,2.468c3.271,1.605 6.048,3.888 8.393,6.727c2.283,2.838 4.073,6.232 5.307,10.058c1.234,3.888 1.851,8.084 1.851,12.589c0,4.505 -0.617,8.701 -1.851,12.589c-1.234,3.887 -3.024,7.22 -5.307,10.058c-2.345,2.839 -5.122,5.061 -8.393,6.727c-3.209,1.666 -6.911,2.468 -10.984,2.468Zm0,-11.046c2.221,0 4.196,-0.494 5.986,-1.543c1.789,-1.049 3.332,-2.468 4.566,-4.381c1.234,-1.851 2.222,-4.073 2.839,-6.603c0.617,-2.53 0.987,-5.307 0.987,-8.269c0,-3.024 -0.308,-5.801 -0.987,-8.331c-0.617,-2.53 -1.605,-4.69 -2.839,-6.603c-1.296,-1.851 -2.777,-3.332 -4.566,-4.381c-1.79,-1.049 -3.765,-1.543 -5.986,-1.543c-2.283,0 -4.32,0.494 -6.109,1.543c-1.79,1.049 -3.333,2.468 -4.505,4.381c-1.234,1.851 -2.16,4.073 -2.839,6.603c-0.617,2.53 -0.987,5.307 -0.987,8.331c0,2.962 0.308,5.739 0.987,8.269c0.617,2.53 1.605,4.752 2.839,6.603c1.234,1.851 2.715,3.332 4.505,4.381c1.789,1.049 3.826,1.543 6.109,1.543Z" style="fill:#353447;fill-rule:nonzero;"/><path d="M126.739,236.717l0,-47.085l-11.169,4.505l-4.444,-9.873l18.575,-8.331l9.133,0l0,60.784l-12.095,0Z" style="fill:#353447;fill-rule:nonzero;"/><path d="M153.398,232.706l26.35,-45.233l-0.247,-0.556l-29.127,0l0.185,-11.046l42.95,0l0,11.54l-29.868,50.663l-10.243,-5.368Z" style="fill:#353447;fill-rule:nonzero;"/><rect x="410.85" y="-0.372" width="138.847" height="30.361" style="fill:#353447;"/><rect x="410.85" y="36.777" width="138.847" height="30.361" style="fill:#353447;"/><path d="M441.458,20.116c-0.925,1.049 -1.974,1.851 -3.209,2.407c-1.234,0.555 -2.591,0.802 -4.134,0.802c-1.358,0 -2.654,-0.247 -3.826,-0.741c-1.173,-0.493 -2.222,-1.111 -3.086,-1.974c-0.863,-0.803 -1.542,-1.79 -2.036,-2.963c-0.494,-1.172 -0.741,-2.345 -0.741,-3.64c0,-1.296 0.247,-2.531 0.741,-3.641c0.494,-1.111 1.173,-2.098 2.036,-2.962c0.864,-0.803 1.852,-1.481 3.086,-1.975c1.172,-0.494 2.468,-0.741 3.826,-0.741c1.481,0 2.777,0.247 3.888,0.741c1.11,0.494 2.098,1.234 3.023,2.16l-2.468,2.283c-0.555,-0.617 -1.173,-1.111 -1.913,-1.481c-0.74,-0.37 -1.543,-0.555 -2.53,-0.555c-0.864,0 -1.666,0.123 -2.407,0.432c-0.74,0.308 -1.419,0.678 -1.974,1.234c-0.556,0.555 -0.988,1.172 -1.358,1.913c-0.37,0.74 -0.494,1.604 -0.494,2.53c0,0.926 0.185,1.789 0.494,2.53c0.308,0.74 0.74,1.419 1.358,1.913c0.617,0.494 1.234,0.926 1.974,1.234c0.741,0.309 1.543,0.432 2.407,0.432c1.049,0 1.975,-0.185 2.715,-0.617c0.802,-0.432 1.481,-0.987 2.098,-1.728l2.53,2.407Z" style="fill:#fff;fill-rule:nonzero;"/><path d="M449.666,5.244l3.949,0l6.973,17.71l-3.826,0l-1.542,-4.257l-7.097,0l-1.543,4.257l-3.826,0l6.912,-17.71Zm4.381,10.429l-1.666,-4.443l-0.679,-2.16l-0.185,0l-0.679,2.16l-1.666,4.443l4.875,0Z" style="fill:#fff;fill-rule:nonzero;"/><path d="M462.748,22.954l0,-17.71l6.48,0c0.864,0 1.666,0.123 2.468,0.432c0.741,0.247 1.42,0.679 1.975,1.172c0.555,0.494 0.987,1.111 1.358,1.79c0.308,0.679 0.493,1.419 0.493,2.283c0,0.864 -0.185,1.605 -0.493,2.283c-0.309,0.679 -0.803,1.296 -1.358,1.79c-0.555,0.494 -1.234,0.864 -1.975,1.172c-0.74,0.247 -1.604,0.432 -2.468,0.432l-3.024,0l0,6.48l-3.456,0l0,-0.124Zm6.541,-9.626c0.926,0 1.605,-0.247 2.037,-0.741c0.494,-0.493 0.679,-1.049 0.679,-1.728c0,-0.308 -0.062,-0.617 -0.185,-0.925c-0.124,-0.309 -0.309,-0.556 -0.494,-0.802c-0.247,-0.247 -0.494,-0.371 -0.864,-0.556c-0.37,-0.123 -0.74,-0.185 -1.234,-0.185l-3.086,0l0,4.875l3.147,0l0,0.062Z" style="fill:#fff;fill-rule:nonzero;"/><path d="M484.655,22.954l0.741,-4.751l-2.962,0l0.432,-2.53l2.962,0l0.37,-2.592l-2.962,0l0.432,-2.53l2.962,0l0.74,-4.505l2.839,0l-0.741,4.505l2.901,0l0.74,-4.505l2.839,0l-0.679,4.505l2.962,0l-0.432,2.53l-2.962,0l-0.432,2.592l3.024,0l-0.432,2.53l-2.962,0l-0.741,4.751l-2.838,0l0.74,-4.751l-2.9,0l-0.741,4.751l-2.9,0Zm3.888,-7.22l2.962,0l0.432,-2.715l-2.962,0l-0.432,2.715Z" style="fill:#fff;fill-rule:nonzero;"/><path d="M499.897,22.954l0,-2.962c0.988,-0.987 1.975,-1.851 2.839,-2.653c0.37,-0.37 0.741,-0.679 1.111,-1.049c0.37,-0.37 0.74,-0.679 1.049,-0.988c0.309,-0.308 0.617,-0.617 0.864,-0.863c0.247,-0.247 0.432,-0.432 0.617,-0.618c0.247,-0.308 0.494,-0.617 0.74,-0.863c0.185,-0.247 0.371,-0.494 0.494,-0.741c0.124,-0.247 0.247,-0.494 0.309,-0.741c0.061,-0.246 0.123,-0.493 0.123,-0.802c0,-0.555 -0.247,-1.049 -0.679,-1.419c-0.432,-0.432 -1.049,-0.617 -1.851,-0.617c-0.802,0 -1.358,0.185 -1.79,0.617c-0.432,0.432 -0.74,0.926 -0.864,1.419l-3.085,-1.234c0.123,-0.432 0.37,-0.926 0.679,-1.358c0.308,-0.493 0.679,-0.863 1.172,-1.234c0.494,-0.37 1.049,-0.679 1.728,-0.925c0.679,-0.247 1.419,-0.371 2.222,-0.371c0.864,0 1.727,0.124 2.406,0.371c0.741,0.246 1.358,0.617 1.852,1.049c0.493,0.432 0.864,0.987 1.172,1.542c0.247,0.618 0.432,1.235 0.432,1.913c0,1.049 -0.247,2.037 -0.802,2.901c-0.556,0.864 -1.173,1.728 -1.975,2.468l-2.221,2.098c-0.556,0.556 -1.234,1.173 -1.975,1.852l0.123,0.123l7.159,0l0,2.839l-11.849,0l0,0.246Z" style="fill:#fff;fill-rule:nonzero;"/><path d="M441.458,57.265c-0.925,1.049 -1.974,1.851 -3.209,2.407c-1.234,0.555 -2.591,0.802 -4.134,0.802c-1.358,0 -2.654,-0.247 -3.826,-0.741c-1.173,-0.493 -2.222,-1.11 -3.086,-1.974c-0.863,-0.802 -1.542,-1.79 -2.036,-2.962c-0.494,-1.173 -0.741,-2.345 -0.741,-3.641c0,-1.296 0.247,-2.53 0.741,-3.641c0.494,-1.111 1.173,-2.098 2.036,-2.962c0.864,-0.802 1.852,-1.481 3.086,-1.975c1.172,-0.494 2.468,-0.74 3.826,-0.74c1.481,0 2.777,0.246 3.888,0.74c1.11,0.494 2.098,1.234 3.023,2.16l-2.468,2.283c-0.555,-0.617 -1.173,-1.111 -1.913,-1.481c-0.74,-0.37 -1.543,-0.555 -2.53,-0.555c-0.864,0 -1.666,0.123 -2.407,0.432c-0.74,0.308 -1.419,0.679 -1.974,1.234c-0.556,0.555 -0.988,1.172 -1.358,1.913c-0.37,0.741 -0.494,1.604 -0.494,2.53c0,0.926 0.185,1.79 0.494,2.53c0.308,0.741 0.74,1.42 1.358,1.913c0.617,0.494 1.234,0.926 1.974,1.234c0.741,0.309 1.543,0.432 2.407,0.432c1.049,0 1.975,-0.185 2.715,-0.617c0.802,-0.432 1.481,-0.987 2.098,-1.728l2.53,2.407Z" style="fill:#fff;fill-rule:nonzero;"/><path d="M449.666,42.393l3.949,0l6.973,17.711l-3.826,0l-1.542,-4.258l-7.097,0l-1.543,4.258l-3.826,0l6.912,-17.711Zm4.381,10.429l-1.666,-4.443l-0.679,-2.16l-0.185,0l-0.679,2.16l-1.666,4.443l4.875,0Z" style="fill:#fff;fill-rule:nonzero;"/><path d="M464.97,60.104l0,-14.564l-5.184,0l0,-3.147l13.761,0l0,3.147l-5.183,0l0,14.564l-3.394,0Z" style="fill:#fff;fill-rule:nonzero;"/><path d="M479.78,42.393l3.949,0l6.974,17.711l-3.826,0l-1.543,-4.258l-7.097,0l-1.542,4.258l-3.826,0l6.911,-17.711Zm4.443,10.429l-1.666,-4.443l-0.679,-2.16l-0.185,0l-0.679,2.16l-1.666,4.443l4.875,0Z" style="fill:#fff;fill-rule:nonzero;"/><path d="M492.862,42.393l4.073,0l7.406,11.91l0.185,0l-0.185,-3.394l0,-8.516l3.455,0l0,17.711l-3.641,0l-7.837,-12.527l-0.185,0l0.185,3.394l0,9.133l-3.456,0l0,-17.711Z" style="fill:#fff;fill-rule:nonzero;"/><rect x="511.499" y="42.393" width="3.456" height="17.711" style="fill:#fff;"/><path d="M524.088,42.393l3.949,0l6.973,17.711l-3.826,0l-1.543,-4.258l-7.096,0l-1.543,4.258l-3.826,0l6.912,-17.711Zm4.381,10.429l-1.666,-4.443l-0.679,-2.16l-0.185,0l-0.679,2.16l-1.666,4.443l4.875,0Z" style="fill:#fff;fill-rule:nonzero;"/></svg>