<svg id="Group_311" data-name="Group 311" xmlns="http://www.w3.org/2000/svg" viewBox="230 190.628 557.547 300.262">
  <defs>
    <style>
      .cls-1 {
        fill: #353447;
      }

      .cls-2 {
        fill: #db4437;
      }

      .cls-3 {
        fill: #fff;
      }

      .cls-4 {
        fill: #343447;
      }
    </style>
  </defs>
  <g id="Group_26" data-name="Group 26" transform="translate(-34 -526)">
    <g id="Group_14" data-name="Group 14" transform="translate(264 716.628)">
      <g id="Group_3" data-name="Group 3" transform="translate(403.581 175.07)">
        <g id="Group_2" data-name="Group 2">
          <g id="Group_1" data-name="Group 1">
            <path id="Path_1" data-name="Path 1" class="cls-1" d="M660.911,311.605v-20.8l-4.937,1.975L654,288.4l8.207-3.7h4.073v26.905Z" transform="translate(-654 -284.083)"/>
            <path id="Path_2" data-name="Path 2" class="cls-1" d="M683.458,309.916l11.663-19.994-.123-.247H682.1l.062-4.875h19.007v5.122l-13.206,22.4Z" transform="translate(-664.76 -284.121)"/>
            <path id="Path_3" data-name="Path 3" class="cls-1" d="M754.411,311.605v-20.8l-4.937,1.975L747.5,288.4l8.207-3.7h4.073v26.905Z" transform="translate(-689.801 -284.083)"/>
            <path id="Path_4" data-name="Path 4" class="cls-1" d="M785.782,311.94a12.636,12.636,0,0,1-4.134-.617,10.665,10.665,0,0,1-3.209-1.728,7.439,7.439,0,0,1-2.1-2.53,7.013,7.013,0,0,1-.74-3.209,6.457,6.457,0,0,1,.37-2.222,8.655,8.655,0,0,1,.926-1.851,7.741,7.741,0,0,1,1.358-1.481,5.853,5.853,0,0,1,1.666-1.049v-.309a8.243,8.243,0,0,1-2.345-2.283,5.4,5.4,0,0,1-.987-3.271,7.223,7.223,0,0,1,.679-3.024,8.049,8.049,0,0,1,1.913-2.407,8.8,8.8,0,0,1,2.9-1.6,12.621,12.621,0,0,1,7.405,0,8.805,8.805,0,0,1,2.9,1.6,7.187,7.187,0,0,1,1.913,2.407,6.225,6.225,0,0,1,.679,3.024,5.4,5.4,0,0,1-.987,3.271,9.122,9.122,0,0,1-2.345,2.283v.309a12.37,12.37,0,0,1,1.666,1.049,7.748,7.748,0,0,1,1.358,1.481,8.643,8.643,0,0,1,.926,1.851,6.454,6.454,0,0,1,.37,2.222,7.014,7.014,0,0,1-.74,3.209,6.9,6.9,0,0,1-2.1,2.53,10.667,10.667,0,0,1-3.209,1.728A14.868,14.868,0,0,1,785.782,311.94Zm0-4.752a5.614,5.614,0,0,0,3.456-1.049A3.271,3.271,0,0,0,790.6,303.3a3.346,3.346,0,0,0-.37-1.543,3.584,3.584,0,0,0-.987-1.172,4.079,4.079,0,0,0-1.543-.8,7.537,7.537,0,0,0-3.826,0,4.081,4.081,0,0,0-1.543.8,4.348,4.348,0,0,0-.987,1.172,3.169,3.169,0,0,0-.37,1.543,3.422,3.422,0,0,0,1.358,2.839A5.614,5.614,0,0,0,785.782,307.188Zm0-12.157a4.247,4.247,0,0,0,2.839-.926,3.041,3.041,0,0,0,1.172-2.407,2.723,2.723,0,0,0-1.172-2.407,4.327,4.327,0,0,0-2.839-.864,4.7,4.7,0,0,0-2.839.864,3.041,3.041,0,0,0-1.173,2.407,2.87,2.87,0,0,0,1.173,2.407A4.247,4.247,0,0,0,785.782,295.031Z" transform="translate(-700.561 -283.738)"/>
            <path id="Path_5" data-name="Path 5" class="cls-1" d="M849.911,311.605v-20.8l-4.937,1.975L843,288.4l8.207-3.7h4.073v26.905Z" transform="translate(-726.369 -284.083)"/>
            <path id="Path_6" data-name="Path 6" class="cls-1" d="M879.554,301.534a7.656,7.656,0,0,1-3.086-.617,8.832,8.832,0,0,1-4.628-4.5,8.158,8.158,0,0,1-.74-3.517,8.328,8.328,0,0,1,.8-3.7,10.18,10.18,0,0,1,2.16-2.9,11.613,11.613,0,0,1,3.147-1.913,9.5,9.5,0,0,1,3.764-.679,11.2,11.2,0,0,1,4.135.74,10.162,10.162,0,0,1,3.209,2.036,9.76,9.76,0,0,1,2.037,2.962,8.853,8.853,0,0,1,.74,3.579,10.945,10.945,0,0,1-1.111,4.937,34.212,34.212,0,0,1-2.839,4.567l-6.788,9.256-4.135-2.715,5.739-7.775-.185-.247A4.518,4.518,0,0,1,879.554,301.534Zm1.543-13.021a5.733,5.733,0,0,0-1.79.309,4.485,4.485,0,0,0-2.53,2.222,4.219,4.219,0,0,0-.37,1.79,4.028,4.028,0,0,0,.37,1.79,3.824,3.824,0,0,0,1.049,1.358,4.452,4.452,0,0,0,1.481.864,5.734,5.734,0,0,0,1.79.309,6.059,6.059,0,0,0,1.789-.309,4.18,4.18,0,0,0,1.543-.864,4.461,4.461,0,0,0,1.049-1.358,4.219,4.219,0,0,0,.37-1.79,4.428,4.428,0,0,0-.37-1.79,3.827,3.827,0,0,0-1.049-1.358,4.739,4.739,0,0,0-1.543-.864A4.563,4.563,0,0,0,881.1,288.513Z" transform="translate(-737.128 -283.7)"/>
            <path id="Path_7" data-name="Path 7" class="cls-1" d="M660.3,352h4.937l9.071,14.5h.247l-.247-4.2V352h4.2v21.66h-4.443l-9.565-15.3h-.247l.247,4.2v11.169h-4.2Z" transform="translate(-656.412 -309.852)"/>
            <path id="Path_8" data-name="Path 8" class="cls-1" d="M703.107,362.3a8.13,8.13,0,0,1,3.271.617,9.174,9.174,0,0,1,2.592,1.6,7.512,7.512,0,0,1,2.345,5.616,7.35,7.35,0,0,1-.617,3.147,7.119,7.119,0,0,1-1.728,2.468,7.968,7.968,0,0,1-2.592,1.6,9.343,9.343,0,0,1-3.271.617,8.13,8.13,0,0,1-3.271-.617,9.175,9.175,0,0,1-2.592-1.6,7.511,7.511,0,0,1-2.345-5.616,7.351,7.351,0,0,1,.617-3.147,7.119,7.119,0,0,1,1.728-2.468,7.969,7.969,0,0,1,2.592-1.6A9.078,9.078,0,0,1,703.107,362.3Zm0,12.157a4.362,4.362,0,0,0,2.839-1.111,3.766,3.766,0,0,0,.926-1.358,4.041,4.041,0,0,0,.309-1.79,5.436,5.436,0,0,0-.309-1.79,3.816,3.816,0,0,0-2.221-2.16,4.011,4.011,0,0,0-3.085,0,4.587,4.587,0,0,0-1.3.8,4.394,4.394,0,0,0-.926,1.358,4.038,4.038,0,0,0-.309,1.79,5.435,5.435,0,0,0,.309,1.79,4.086,4.086,0,0,0,.926,1.358,3.523,3.523,0,0,0,1.3.8A4.3,4.3,0,0,0,703.107,374.457Z" transform="translate(-669.661 -313.796)"/>
            <path id="Path_9" data-name="Path 9" class="cls-1" d="M722.6,363.1h4.69l3.826,9.442h.247l3.888-9.442h4.628l-6.664,14.81h-4.073Z" transform="translate(-680.267 -314.102)"/>
            <path id="Path_10" data-name="Path 10" class="cls-1" d="M766.851,374.025a8.869,8.869,0,0,1-2.9,2.962,8.327,8.327,0,0,1-4.443,1.111,8.379,8.379,0,0,1-5.862-2.283,7.748,7.748,0,0,1-1.728-2.468,7.543,7.543,0,0,1-.617-3.147,7.172,7.172,0,0,1,.617-3.024,7.52,7.52,0,0,1,1.666-2.53,8.017,8.017,0,0,1,2.53-1.728,7.833,7.833,0,0,1,3.209-.617,8.228,8.228,0,0,1,3.332.617,6.852,6.852,0,0,1,2.407,1.6,6.3,6.3,0,0,1,1.481,2.468,9.8,9.8,0,0,1,.494,3.086v.37a2.67,2.67,0,0,1-.062.309c0,.123-.062.185-.062.309H755.435a3.79,3.79,0,0,0,.494,1.543,4.254,4.254,0,0,0,.987,1.111,3.158,3.158,0,0,0,1.3.617,5.259,5.259,0,0,0,1.419.185,4.03,4.03,0,0,0,2.345-.617,5.034,5.034,0,0,0,1.481-1.543Zm-3.764-5.739a2.649,2.649,0,0,0-.247-.864,4.417,4.417,0,0,0-.679-.926,3.359,3.359,0,0,0-1.111-.679,4.179,4.179,0,0,0-1.6-.247,3.927,3.927,0,0,0-2.345.74,3.734,3.734,0,0,0-1.419,2.036h7.405Z" transform="translate(-691.256 -313.796)"/>
            <path id="Path_11" data-name="Path 11" class="cls-1" d="M781.2,362.794h3.888v1.913h.247a4.909,4.909,0,0,1,1.975-1.728,5.778,5.778,0,0,1,2.777-.679,5.008,5.008,0,0,1,4.69,2.715,6.761,6.761,0,0,1,2.036-1.913,5.9,5.9,0,0,1,3.209-.8,6.088,6.088,0,0,1,2.468.432,4.932,4.932,0,0,1,1.728,1.234,5.689,5.689,0,0,1,1.049,1.913,7.563,7.563,0,0,1,.37,2.407V377.6H801.5v-8.639c0-2.036-.864-3.024-2.592-3.024a2.555,2.555,0,0,0-1.419.37,3.776,3.776,0,0,0-1.049.926,4.338,4.338,0,0,0-.679,1.419,5.323,5.323,0,0,0-.247,1.728v7.22h-4.135v-8.639c0-2.036-.926-3.024-2.715-3.024a2.347,2.347,0,0,0-1.358.37,3.53,3.53,0,0,0-.987.926,4.29,4.29,0,0,0-.617,1.419,7.773,7.773,0,0,0-.247,1.728v7.22h-4.135v-14.81Z" transform="translate(-702.705 -313.796)"/>
            <path id="Path_12" data-name="Path 12" class="cls-1" d="M826.1,352h4.135v6.479l-.247,2.1h.247a4.581,4.581,0,0,1,1.79-1.6,6.179,6.179,0,0,1,2.962-.679,6.544,6.544,0,0,1,2.839.617,7.9,7.9,0,0,1,2.345,1.6,7.422,7.422,0,0,1,1.6,2.468,8.931,8.931,0,0,1,.617,3.147,7.352,7.352,0,0,1-.617,3.147,6.846,6.846,0,0,1-1.6,2.468,7.558,7.558,0,0,1-2.345,1.6,7.32,7.32,0,0,1-2.839.617,6.179,6.179,0,0,1-2.962-.679,5.062,5.062,0,0,1-1.79-1.6h-.247v1.79H826.1Zm8.022,18.513a4.3,4.3,0,0,0,1.543-.309,3.677,3.677,0,0,0,1.3-.864,4.4,4.4,0,0,0,.926-1.358,4.217,4.217,0,0,0,0-3.456,5.282,5.282,0,0,0-.926-1.358,4.755,4.755,0,0,0-1.3-.864,4.011,4.011,0,0,0-3.086,0,4.587,4.587,0,0,0-1.3.8,4.395,4.395,0,0,0-.926,1.358,4.028,4.028,0,0,0-.37,1.79,4.221,4.221,0,0,0,.37,1.79,5.277,5.277,0,0,0,.926,1.358,3.524,3.524,0,0,0,1.3.8A4.041,4.041,0,0,0,834.122,370.513Z" transform="translate(-719.898 -309.852)"/>
            <path id="Path_13" data-name="Path 13" class="cls-1" d="M856.2,362.794h3.888v2.036h.247a3.762,3.762,0,0,1,.74-.987,6.742,6.742,0,0,1,1.049-.8,4.454,4.454,0,0,1,1.234-.555,5.14,5.14,0,0,1,1.358-.185,4.949,4.949,0,0,1,1.419.185,3.659,3.659,0,0,1,.987.432l-1.111,3.517a3.569,3.569,0,0,0-.864-.309,5.533,5.533,0,0,0-1.111-.123,4.043,4.043,0,0,0-1.543.309,2.8,2.8,0,0,0-1.172.926,4.785,4.785,0,0,0-.74,1.358,4.728,4.728,0,0,0-.247,1.666v7.282H856.2Z" transform="translate(-731.423 -313.796)"/>
            <path id="Path_14" data-name="Path 14" class="cls-1" d="M889.451,374.025a8.869,8.869,0,0,1-2.9,2.962,8.327,8.327,0,0,1-4.443,1.111,8.379,8.379,0,0,1-5.862-2.283,7.749,7.749,0,0,1-1.728-2.468,7.543,7.543,0,0,1-.617-3.147,7.171,7.171,0,0,1,.617-3.024,7.517,7.517,0,0,1,1.666-2.53,8.016,8.016,0,0,1,2.53-1.728,7.833,7.833,0,0,1,3.209-.617,8.228,8.228,0,0,1,3.332.617,6.852,6.852,0,0,1,2.407,1.6,6.294,6.294,0,0,1,1.481,2.468,9.8,9.8,0,0,1,.494,3.086v.37a2.672,2.672,0,0,1-.062.309c0,.123-.062.185-.062.309h-11.6a3.786,3.786,0,0,0,.494,1.543,4.259,4.259,0,0,0,.987,1.111,3.159,3.159,0,0,0,1.3.617,5.26,5.26,0,0,0,1.419.185,4.029,4.029,0,0,0,2.345-.617,5.035,5.035,0,0,0,1.481-1.543Zm-3.764-5.739a2.65,2.65,0,0,0-.247-.864,4.422,4.422,0,0,0-.679-.926,3.36,3.36,0,0,0-1.111-.679,4.18,4.18,0,0,0-1.6-.247,3.927,3.927,0,0,0-2.345.74,3.733,3.733,0,0,0-1.419,2.036h7.405Z" transform="translate(-738.2 -313.796)"/>
          </g>
        </g>
        <ellipse id="Ellipse_1" data-name="Ellipse 1" class="cls-1" cx="4.135" cy="4.011" rx="4.135" ry="4.011" transform="translate(43.135 11.355)"/>
        <ellipse id="Ellipse_2" data-name="Ellipse 2" class="cls-1" cx="4.135" cy="4.011" rx="4.135" ry="4.011" transform="translate(102.561 11.355)"/>
      </g>
      <g id="Group_12" data-name="Group 12" transform="translate(0 0.247)">
        <g id="Group_11" data-name="Group 11">
          <g id="Group_10" data-name="Group 10">
            <g id="Group_7" data-name="Group 7">
              <g id="Group_6" data-name="Group 6">
                <g id="Group_4" data-name="Group 4">
                  <path id="Path_15" data-name="Path 15" class="cls-1" d="M0,.4H22.215a40.546,40.546,0,0,1,14.07,2.283A30.685,30.685,0,0,1,46.9,9.163a27.256,27.256,0,0,1,6.726,10,34.339,34.339,0,0,1,2.345,12.774,34.2,34.2,0,0,1-2.345,12.836,28.035,28.035,0,0,1-6.726,10,31.138,31.138,0,0,1-10.614,6.418,40.061,40.061,0,0,1-14.07,2.283H0ZM21.66,52.174a28.565,28.565,0,0,0,9.565-1.481,19.541,19.541,0,0,0,6.911-4.073A16.694,16.694,0,0,0,42.271,40.2a23.6,23.6,0,0,0,1.358-8.331,24.081,24.081,0,0,0-1.358-8.331,17.17,17.17,0,0,0-4.135-6.418,17.875,17.875,0,0,0-6.911-4.073,28.311,28.311,0,0,0-9.565-1.481H12.4V52.113H21.66Z" transform="translate(0 -0.4)"/>
                  <path id="Path_16" data-name="Path 16" class="cls-1" d="M143.271,64.449a25.351,25.351,0,0,1-8.393,8.578,24.261,24.261,0,0,1-12.9,3.271,25.04,25.04,0,0,1-9.5-1.728,23.071,23.071,0,0,1-7.59-4.813,21.318,21.318,0,0,1-5-7.282,23.489,23.489,0,0,1-1.79-9.195,22.821,22.821,0,0,1,6.6-16.23,23.748,23.748,0,0,1,7.405-5,23.346,23.346,0,0,1,9.38-1.851,24.8,24.8,0,0,1,9.627,1.728,19.94,19.94,0,0,1,7.1,4.752,20.594,20.594,0,0,1,4.32,7.158,26.535,26.535,0,0,1,1.481,9.01V53.9a5.644,5.644,0,0,0-.062.987,4.988,4.988,0,0,0-.062.987H110.01a11.425,11.425,0,0,0,1.543,4.567,10.715,10.715,0,0,0,2.839,3.147,10.452,10.452,0,0,0,3.7,1.851,15.532,15.532,0,0,0,4.135.555,12.275,12.275,0,0,0,6.85-1.79,13.124,13.124,0,0,0,4.258-4.567ZM132.349,47.726a6.618,6.618,0,0,0-.8-2.53,8.743,8.743,0,0,0-2.036-2.654,10.916,10.916,0,0,0-3.332-2.036,12.154,12.154,0,0,0-4.752-.8A11.028,11.028,0,0,0,110.5,47.726h21.845Z" transform="translate(-37.563 -11.811)"/>
                  <path id="Path_17" data-name="Path 17" class="cls-1" d="M175.8,32.6h13.7l11.169,27.523h.617L212.579,32.6h13.576L206.778,75.8H194.93Z" transform="translate(-67.314 -12.729)"/>
                  <path id="Path_18" data-name="Path 18" class="cls-1" d="M268.7.4h41.654V11.693H281.1V27h26.35V38.29H281.1V63.467H268.7Z" transform="translate(-102.886 -0.4)"/>
                  <path id="Path_19" data-name="Path 19" class="cls-1" d="M385.871,64.449a25.351,25.351,0,0,1-8.393,8.578,24.261,24.261,0,0,1-12.9,3.271,25.039,25.039,0,0,1-9.5-1.728,23.071,23.071,0,0,1-7.59-4.813,21.318,21.318,0,0,1-5-7.282,23.489,23.489,0,0,1-1.79-9.195,22.82,22.82,0,0,1,6.6-16.23,23.748,23.748,0,0,1,7.405-5,23.346,23.346,0,0,1,9.38-1.851,24.8,24.8,0,0,1,9.627,1.728,19.94,19.94,0,0,1,7.1,4.752,20.594,20.594,0,0,1,4.32,7.158,26.534,26.534,0,0,1,1.481,9.01V53.9a5.644,5.644,0,0,0-.062.987,4.986,4.986,0,0,0-.062.987H352.61a11.424,11.424,0,0,0,1.543,4.567,10.716,10.716,0,0,0,2.839,3.147,10.452,10.452,0,0,0,3.7,1.851,15.532,15.532,0,0,0,4.135.555,12.275,12.275,0,0,0,6.85-1.79,13.124,13.124,0,0,0,4.258-4.567ZM374.949,47.726a6.618,6.618,0,0,0-.8-2.53,8.743,8.743,0,0,0-2.036-2.654,10.916,10.916,0,0,0-3.332-2.036,12.154,12.154,0,0,0-4.752-.8A11.028,11.028,0,0,0,353.1,47.726h21.845Z" transform="translate(-130.455 -11.811)"/>
                  <path id="Path_20" data-name="Path 20" class="cls-1" d="M444.234,76.374a27.379,27.379,0,0,1-7.837-1.049,21.4,21.4,0,0,1-5.986-2.777,20.1,20.1,0,0,1-4.258-3.949,18.263,18.263,0,0,1-2.654-4.567l10.737-4.381a11.3,11.3,0,0,0,4.2,5,10.545,10.545,0,0,0,5.8,1.6,9.865,9.865,0,0,0,5.245-1.172,3.173,3.173,0,0,0,1.913-2.715,3.356,3.356,0,0,0-1.6-2.839,15.857,15.857,0,0,0-5.554-1.975l-6.356-1.3a22.529,22.529,0,0,1-4.381-1.419,17.089,17.089,0,0,1-4.073-2.468,12.387,12.387,0,0,1-3.024-3.641,9.744,9.744,0,0,1-1.173-4.937,11.161,11.161,0,0,1,1.419-5.616,12.574,12.574,0,0,1,3.888-4.2,18.546,18.546,0,0,1,5.8-2.654,26.9,26.9,0,0,1,7.22-.926,26.533,26.533,0,0,1,11.478,2.407,14.825,14.825,0,0,1,7.405,7.714l-10.367,4.073a7.573,7.573,0,0,0-3.764-3.7,12.271,12.271,0,0,0-4.937-1.172,9.506,9.506,0,0,0-4.5.987,2.949,2.949,0,0,0-1.913,2.592,2.777,2.777,0,0,0,1.6,2.407,18.358,18.358,0,0,0,4.381,1.6l6.912,1.6c4.566,1.049,8.022,2.777,10.244,5.06a11.563,11.563,0,0,1,3.332,8.269,11.018,11.018,0,0,1-1.358,5.369,15.055,15.055,0,0,1-3.888,4.567,20.728,20.728,0,0,1-6.048,3.147A28.78,28.78,0,0,1,444.234,76.374Z" transform="translate(-162.16 -11.887)"/>
                  <path id="Path_21" data-name="Path 21" class="cls-1" d="M502.5,34.279h-7.9V24.406h7.9V11.2h12.033V24.406h10.984v9.874H514.532V51.558a13.333,13.333,0,0,0,.308,2.839,4.421,4.421,0,0,0,1.234,2.222,4.61,4.61,0,0,0,3.641,1.481,8.61,8.61,0,0,0,2.468-.309,6.477,6.477,0,0,0,1.728-.864l3.394,10.12a24.748,24.748,0,0,1-4.566,1.481,28.4,28.4,0,0,1-5.369.494,17.126,17.126,0,0,1-6.109-1.049,12.735,12.735,0,0,1-4.567-2.839c-2.9-2.715-4.32-6.541-4.32-11.54V34.279Z" transform="translate(-189.384 -4.535)"/>
                </g>
                <g id="Group_5" data-name="Group 5" transform="translate(0 84.912)">
                  <path id="Path_22" data-name="Path 22" class="cls-1" d="M8.084,199.7H0V139.1H8.084L30.053,176h.37l21.969-36.9h8.084v60.6H52.33V163.722l.37-10.182h-.37L32.583,186.8H27.831L8.084,153.54h-.37l.37,10.182V199.7Z" transform="translate(0 -138.421)"/>
                  <path id="Path_23" data-name="Path 23" class="cls-1" d="M134.145,212.084c-6.356,0-11.6-2.1-15.674-6.294a21.537,21.537,0,0,1-6.171-15.8,22,22,0,0,1,5.986-15.8,20.329,20.329,0,0,1,15.366-6.294c6.418,0,11.478,1.975,15.3,5.986,3.764,3.949,5.677,9.565,5.677,16.723l-.062.864h-33.94a13.2,13.2,0,0,0,4.258,9.812,13.881,13.881,0,0,0,9.688,3.7c5.184,0,9.195-2.468,12.157-7.467l7.22,3.394a20.685,20.685,0,0,1-8.084,8.207A23.316,23.316,0,0,1,134.145,212.084Zm-12.959-27.091h24.746a10.391,10.391,0,0,0-3.641-7.158c-2.222-1.913-5.184-2.839-8.886-2.839a12.15,12.15,0,0,0-7.9,2.715A12.9,12.9,0,0,0,121.186,184.994Z" transform="translate(-43 -149.449)"/>
                  <path id="Path_24" data-name="Path 24" class="cls-1" d="M210.049,201.095a19.529,19.529,0,0,1-14.564-6.418,23.515,23.515,0,0,1,0-31.348,19.877,19.877,0,0,1,23.265-4.443,15.156,15.156,0,0,1,6.048,5.184h.37l-.37-5.739V139.2h8.084v60.6h-7.775V194h-.37a14.749,14.749,0,0,1-6.048,5.184A19.54,19.54,0,0,1,210.049,201.095Zm1.358-7.1a12.64,12.64,0,0,0,9.812-4.135c2.654-2.777,3.949-6.356,3.949-10.861a15.085,15.085,0,0,0-3.949-10.737,12.716,12.716,0,0,0-9.812-4.258,12.9,12.9,0,0,0-9.812,4.258A15.085,15.085,0,0,0,197.646,179,14.883,14.883,0,0,0,201.6,189.74,12.9,12.9,0,0,0,211.407,194Z" transform="translate(-72.56 -138.459)"/>
                  <path id="Path_25" data-name="Path 25" class="cls-1" d="M285.678,143.492a5.134,5.134,0,0,1-1.666,3.888,5.972,5.972,0,0,1-8.146,0,5.369,5.369,0,0,1,0-7.775,5.972,5.972,0,0,1,8.146,0A5.134,5.134,0,0,1,285.678,143.492Zm-1.666,14.317v41.469h-8.084V157.809Z" transform="translate(-104.992 -138)"/>
                  <path id="Path_26" data-name="Path 26" class="cls-1" d="M321.871,204.36a12.515,12.515,0,0,1-8.763-3.147c-2.345-2.1-3.517-5-3.579-8.7v-23.2H302v-7.1h7.59V149.5h8.084v12.712h10.552v7.1H317.674v20.673c0,2.777.555,4.628,1.666,5.616a5.591,5.591,0,0,0,3.764,1.481,10.049,10.049,0,0,0,1.913-.185,8.074,8.074,0,0,0,1.728-.555l2.53,6.911A22.266,22.266,0,0,1,321.871,204.36Z" transform="translate(-115.637 -142.403)"/>
                  <path id="Path_27" data-name="Path 27" class="cls-1" d="M374.245,212.084c-6.356,0-11.6-2.1-15.674-6.294a21.537,21.537,0,0,1-6.171-15.8,22,22,0,0,1,5.986-15.8,20.329,20.329,0,0,1,15.366-6.294c6.418,0,11.478,1.975,15.3,5.986,3.764,3.949,5.677,9.565,5.677,16.723l-.062.864h-33.94a13.2,13.2,0,0,0,4.258,9.812,13.881,13.881,0,0,0,9.688,3.7c5.184,0,9.195-2.468,12.157-7.467l7.22,3.394a20.685,20.685,0,0,1-8.084,8.207A23.153,23.153,0,0,1,374.245,212.084Zm-12.959-27.091h24.746a10.39,10.39,0,0,0-3.641-7.158c-2.222-1.913-5.184-2.839-8.886-2.839a12.15,12.15,0,0,0-7.9,2.715A13.249,13.249,0,0,0,361.286,184.994Z" transform="translate(-134.935 -149.449)"/>
                  <path id="Path_28" data-name="Path 28" class="cls-1" d="M441.084,210.841H433V169.372h7.775v6.788h.37a11.241,11.241,0,0,1,5.06-5.616,14.488,14.488,0,0,1,7.529-2.345,15.8,15.8,0,0,1,5.986.987l-2.468,7.529a14.423,14.423,0,0,0-4.752-.617,10.436,10.436,0,0,0-7.961,3.579,11.471,11.471,0,0,0-3.394,8.269v22.894Z" transform="translate(-165.797 -149.564)"/>
                  <path id="Path_29" data-name="Path 29" class="cls-1" d="M492.884,210.841H484.8V169.372h7.776v6.788h.37a11.241,11.241,0,0,1,5.06-5.616,14.488,14.488,0,0,1,7.529-2.345,15.8,15.8,0,0,1,5.986.987l-2.468,7.529a14.423,14.423,0,0,0-4.752-.617,10.436,10.436,0,0,0-7.961,3.579,11.471,11.471,0,0,0-3.394,8.269v22.894Z" transform="translate(-185.631 -149.564)"/>
                  <path id="Path_30" data-name="Path 30" class="cls-1" d="M548.645,167.9c5.986,0,10.737,1.543,14.193,4.628s5.184,7.282,5.184,12.65v25.548h-7.775v-5.739h-.37a15.594,15.594,0,0,1-13.391,7.1,17.933,17.933,0,0,1-11.972-4.073,12.8,12.8,0,0,1-4.813-10.182,12.14,12.14,0,0,1,5.06-10.244c3.394-2.53,7.9-3.826,13.514-3.826a25.227,25.227,0,0,1,11.91,2.53V184.5a8.789,8.789,0,0,0-3.332-6.911,11.677,11.677,0,0,0-7.837-2.839,12.637,12.637,0,0,0-10.737,5.492l-7.158-4.32C535.13,170.615,540.931,167.9,548.645,167.9Zm-10.491,30.114a6.142,6.142,0,0,0,2.715,5.06,10.12,10.12,0,0,0,6.294,2.036,13.306,13.306,0,0,0,9.133-3.641,11.21,11.21,0,0,0,4.011-8.578c-2.53-1.913-6.047-2.9-10.552-2.9a14.183,14.183,0,0,0-8.269,2.283C539.2,193.88,538.154,195.793,538.154,198.014Z" transform="translate(-202.824 -149.449)"/>
                  <path id="Path_31" data-name="Path 31" class="cls-1" d="M606.6,169.258h7.775V175h.37a14.3,14.3,0,0,1,5.677-5.06,16.786,16.786,0,0,1,7.961-2.036c5.307,0,9.38,1.481,12.219,4.381s4.258,7.035,4.258,12.4v26.041h-8.084V185.179c-.185-6.788-3.7-10.182-10.676-10.182a10.2,10.2,0,0,0-8.084,3.764,13.378,13.378,0,0,0-3.271,9.01v22.956h-8.084V169.258Z" transform="translate(-232.269 -149.449)"/>
                  <path id="Path_32" data-name="Path 32" class="cls-1" d="M701.945,212.084c-6.356,0-11.6-2.1-15.674-6.294a21.537,21.537,0,0,1-6.171-15.8,22,22,0,0,1,5.986-15.8,20.329,20.329,0,0,1,15.366-6.294c6.418,0,11.478,1.975,15.3,5.986,3.764,3.949,5.677,9.565,5.677,16.723l-.062.864h-33.94a13.2,13.2,0,0,0,4.258,9.812,13.881,13.881,0,0,0,9.688,3.7c5.184,0,9.195-2.468,12.157-7.467l7.22,3.394a20.686,20.686,0,0,1-8.084,8.207A23.481,23.481,0,0,1,701.945,212.084Zm-12.959-27.091h24.746a10.39,10.39,0,0,0-3.641-7.158c-2.222-1.913-5.184-2.839-8.886-2.839a12.15,12.15,0,0,0-7.9,2.715A12.9,12.9,0,0,0,688.986,184.994Z" transform="translate(-260.413 -149.449)"/>
                  <path id="Path_33" data-name="Path 33" class="cls-1" d="M776.145,167.9c5.986,0,10.738,1.543,14.193,4.628s5.184,7.282,5.184,12.65v25.548h-7.775v-5.739h-.37a15.594,15.594,0,0,1-13.391,7.1,17.933,17.933,0,0,1-11.972-4.073,12.8,12.8,0,0,1-4.813-10.182,12.14,12.14,0,0,1,5.06-10.244c3.394-2.53,7.9-3.826,13.514-3.826a25.226,25.226,0,0,1,11.91,2.53V184.5a8.789,8.789,0,0,0-3.332-6.911,11.677,11.677,0,0,0-7.837-2.839,12.637,12.637,0,0,0-10.737,5.492l-7.158-4.32C762.63,170.615,768.431,167.9,776.145,167.9Zm-10.491,30.114a6.143,6.143,0,0,0,2.715,5.06,10.121,10.121,0,0,0,6.294,2.036,13.306,13.306,0,0,0,9.133-3.641,11.21,11.21,0,0,0,4.011-8.578c-2.53-1.913-6.048-2.9-10.552-2.9a14.183,14.183,0,0,0-8.269,2.283A6.894,6.894,0,0,0,765.654,198.014Z" transform="translate(-289.934 -149.449)"/>
                  <path id="Path_34" data-name="Path 34" class="cls-1" d="M834.2,169.258h7.775V175h.37a14.3,14.3,0,0,1,5.677-5.06,16.787,16.787,0,0,1,7.961-2.036c5.307,0,9.38,1.481,12.219,4.381s4.258,7.035,4.258,12.4v26.041h-8.146V185.179c-.185-6.788-3.7-10.182-10.676-10.182a10.2,10.2,0,0,0-8.084,3.764,13.378,13.378,0,0,0-3.271,9.01v22.956H834.2Z" transform="translate(-319.418 -149.449)"/>
                </g>
              </g>
            </g>
            <g id="Group_9" data-name="Group 9" transform="translate(1.296 174.577)">
              <g id="Group_8" data-name="Group 8">
                <path id="Path_35" data-name="Path 35" class="cls-1" d="M2.717,345.642V335.089c3.641-3.456,6.973-6.665,10.059-9.627,1.3-1.234,2.592-2.53,3.949-3.826s2.592-2.53,3.764-3.641,2.222-2.16,3.147-3.085,1.6-1.666,2.1-2.16c.987-1.111,1.851-2.16,2.654-3.024a20.481,20.481,0,0,0,1.851-2.592,11.427,11.427,0,0,0,1.049-2.592,10.068,10.068,0,0,0,.37-2.777,6.729,6.729,0,0,0-2.407-5.122,9.208,9.208,0,0,0-6.541-2.16,8.745,8.745,0,0,0-6.48,2.283,11.482,11.482,0,0,0-3.147,5.122L2.1,297.508a19.117,19.117,0,0,1,2.407-4.937,18.35,18.35,0,0,1,4.258-4.5,21.668,21.668,0,0,1,6.171-3.271,23.274,23.274,0,0,1,8.022-1.3,25.751,25.751,0,0,1,8.7,1.358,19.369,19.369,0,0,1,6.541,3.764,17.871,17.871,0,0,1,4.2,5.616,16.639,16.639,0,0,1,1.481,6.973,19.823,19.823,0,0,1-2.9,10.429,45.451,45.451,0,0,1-7.1,8.824l-7.961,7.652c-2.1,2.036-4.5,4.258-7.1,6.726l.37.555H44.8v10.244Z" transform="translate(-2.1 -283.377)"/>
                <path id="Path_36" data-name="Path 36" class="cls-1" d="M111.035,346.984a23.772,23.772,0,0,1-10.984-2.468,25.3,25.3,0,0,1-8.393-6.726,30.129,30.129,0,0,1-5.307-10.059,43.727,43.727,0,0,1,0-25.178,30.659,30.659,0,0,1,5.307-10.059,25.451,25.451,0,0,1,8.393-6.726,24.57,24.57,0,0,1,10.984-2.468,23.773,23.773,0,0,1,10.984,2.468,25.3,25.3,0,0,1,8.392,6.726,31.29,31.29,0,0,1,5.307,10.059,43.728,43.728,0,0,1,0,25.178,30.658,30.658,0,0,1-5.307,10.059,26.092,26.092,0,0,1-8.392,6.726A23.594,23.594,0,0,1,111.035,346.984Zm0-11.046a11.542,11.542,0,0,0,5.986-1.543,13.428,13.428,0,0,0,4.567-4.381,20.746,20.746,0,0,0,2.839-6.6,34.907,34.907,0,0,0,.987-8.269,32.134,32.134,0,0,0-.987-8.331,21.369,21.369,0,0,0-2.839-6.6,14.665,14.665,0,0,0-4.567-4.381,11.541,11.541,0,0,0-5.986-1.543,11.835,11.835,0,0,0-6.109,1.543,12.734,12.734,0,0,0-4.5,4.381,22.23,22.23,0,0,0-2.839,6.6,35.044,35.044,0,0,0-.987,8.331,31.981,31.981,0,0,0,.987,8.269,20.746,20.746,0,0,0,2.839,6.6,13.855,13.855,0,0,0,4.5,4.381A11.835,11.835,0,0,0,111.035,335.938Z" transform="translate(-33.651 -283.3)"/>
                <path id="Path_37" data-name="Path 37" class="cls-1" d="M197.313,346.484V299.4l-11.169,4.5-4.443-9.874,18.575-8.331h9.133v60.784Z" transform="translate(-70.869 -284.219)"/>
                <path id="Path_38" data-name="Path 38" class="cls-1" d="M248.324,342.435l26.35-45.233-.247-.555H245.3l.185-11.046h42.95v11.54L258.568,347.8Z" transform="translate(-95.222 -284.181)"/>
              </g>
            </g>
          </g>
        </g>
      </g>
      <rect id="Rectangle_1" data-name="Rectangle 1" class="cls-2" width="138.847" height="30.361" transform="translate(411.85)"/>
      <rect id="Rectangle_2" data-name="Rectangle 2" class="cls-2" width="138.847" height="30.361" transform="translate(411.85 37.149)"/>
      <g id="Group_13" data-name="Group 13" transform="translate(425.426 5.06)">
        <path id="Path_39" data-name="Path 39" class="cls-3" d="M706.432,23.627a9.354,9.354,0,0,1-3.209,2.407,10.655,10.655,0,0,1-7.961.062,9.442,9.442,0,0,1-3.086-1.975,8.46,8.46,0,0,1-2.036-2.962,9.147,9.147,0,0,1-.741-3.641,8.933,8.933,0,0,1,.741-3.641,9.765,9.765,0,0,1,2.036-2.962A10.058,10.058,0,0,1,699.088,8.2a9.5,9.5,0,0,1,3.888.741A10.108,10.108,0,0,1,706,11.1l-2.468,2.283a6.384,6.384,0,0,0-1.913-1.481,5.461,5.461,0,0,0-2.53-.555,6.18,6.18,0,0,0-2.407.432,5.936,5.936,0,0,0-1.975,1.234,7.156,7.156,0,0,0-1.358,1.913,5.622,5.622,0,0,0-.494,2.53,6.6,6.6,0,0,0,.494,2.53,4.723,4.723,0,0,0,1.358,1.913,8.166,8.166,0,0,0,1.975,1.234,6.18,6.18,0,0,0,2.407.432,5.356,5.356,0,0,0,2.715-.617,6.985,6.985,0,0,0,2.1-1.728Z" transform="translate(-689.4 -8.2)"/>
        <path id="Path_40" data-name="Path 40" class="cls-3" d="M726.011,9.1h3.949l6.973,17.711h-3.826l-1.543-4.258h-7.1l-1.543,4.258H719.1Zm4.381,10.429-1.666-4.443-.679-2.16h-.185l-.679,2.16-1.666,4.443Z" transform="translate(-700.772 -8.545)"/>
        <path id="Path_41" data-name="Path 41" class="cls-3" d="M751.5,26.811V9.1h6.48a6.713,6.713,0,0,1,2.468.432,5.788,5.788,0,0,1,1.975,1.172,6.531,6.531,0,0,1,1.358,1.79,5.527,5.527,0,0,1,0,4.567,5.509,5.509,0,0,1-1.358,1.79,6.974,6.974,0,0,1-1.975,1.172,7.96,7.96,0,0,1-2.468.432h-3.024v6.48H751.5Zm6.541-9.627a2.569,2.569,0,0,0,2.036-.741,2.278,2.278,0,0,0,.679-1.728,2.477,2.477,0,0,0-.185-.926,3.5,3.5,0,0,0-.494-.8,2.979,2.979,0,0,0-.864-.555,3.71,3.71,0,0,0-1.234-.185h-3.086v4.875h3.147Z" transform="translate(-713.178 -8.545)"/>
        <path id="Path_42" data-name="Path 42" class="cls-3" d="M785.622,27.308l.741-4.752H783.4l.432-2.53h2.962l.37-2.592H784.2l.432-2.53H787.6l.741-4.5h2.839l-.741,4.5h2.9l.741-4.5h2.839l-.679,4.5H799.2l-.432,2.53H795.8l-.432,2.592H798.4l-.432,2.53H795l-.74,4.752h-2.839l.741-4.752h-2.9l-.741,4.752Zm3.888-7.22h2.962l.432-2.715h-2.962Z" transform="translate(-725.393 -9.042)"/>
        <path id="Path_43" data-name="Path 43" class="cls-3" d="M811.623,27V24.04c.987-.987,1.975-1.851,2.839-2.654.37-.37.741-.679,1.111-1.049s.74-.679,1.049-.987l.864-.864.617-.617a10.769,10.769,0,0,1,.741-.864,5.148,5.148,0,0,0,.494-.741,3.771,3.771,0,0,0,.309-.741,3.127,3.127,0,0,0,.123-.8,1.845,1.845,0,0,0-.679-1.419,2.493,2.493,0,0,0-1.851-.617,2.343,2.343,0,0,0-1.79.617,3.162,3.162,0,0,0-.864,1.419L811.5,13.488a4.663,4.663,0,0,1,.679-1.358,4.448,4.448,0,0,1,1.173-1.234,6.555,6.555,0,0,1,1.728-.926A6.455,6.455,0,0,1,817.3,9.6a7.3,7.3,0,0,1,2.407.37,5.38,5.38,0,0,1,1.851,1.049,5.679,5.679,0,0,1,1.173,1.543,5.089,5.089,0,0,1,.432,1.913,5.273,5.273,0,0,1-.8,2.9,12.4,12.4,0,0,1-1.975,2.468l-2.221,2.1c-.556.555-1.234,1.172-1.975,1.851l.123.123h7.158v2.839H811.623Z" transform="translate(-736.152 -8.736)"/>
        <path id="Path_44" data-name="Path 44" class="cls-3" d="M706.432,83.827a9.355,9.355,0,0,1-3.209,2.407,10.655,10.655,0,0,1-7.961.062,9.442,9.442,0,0,1-3.086-1.975,8.46,8.46,0,0,1-2.036-2.962,9.147,9.147,0,0,1-.741-3.641,8.933,8.933,0,0,1,.741-3.641,9.731,9.731,0,0,1,8.948-5.677,9.5,9.5,0,0,1,3.888.741A10.108,10.108,0,0,1,706,71.3l-2.468,2.283a6.384,6.384,0,0,0-1.913-1.481,5.461,5.461,0,0,0-2.53-.555,6.18,6.18,0,0,0-2.407.432,5.936,5.936,0,0,0-1.975,1.234,7.156,7.156,0,0,0-1.358,1.913,5.622,5.622,0,0,0-.494,2.53,6.6,6.6,0,0,0,.494,2.53,4.723,4.723,0,0,0,1.358,1.913,8.166,8.166,0,0,0,1.975,1.234,6.18,6.18,0,0,0,2.407.432,5.356,5.356,0,0,0,2.715-.617,6.985,6.985,0,0,0,2.1-1.728Z" transform="translate(-689.4 -31.251)"/>
        <path id="Path_45" data-name="Path 45" class="cls-3" d="M726.011,69.3h3.949l6.973,17.711h-3.826l-1.543-4.258h-7.1l-1.543,4.258H719.1Zm4.381,10.429-1.666-4.443-.679-2.16h-.185l-.679,2.16-1.666,4.443Z" transform="translate(-700.772 -31.595)"/>
        <path id="Path_46" data-name="Path 46" class="cls-3" d="M751.884,87.011V72.447H746.7V69.3h13.761v3.147h-5.184V87.011Z" transform="translate(-711.34 -31.595)"/>
        <path id="Path_47" data-name="Path 47" class="cls-3" d="M774.811,69.3h3.949l6.973,17.711h-3.826l-1.543-4.258h-7.1l-1.543,4.258H767.9Zm4.443,10.429-1.666-4.443-.679-2.16h-.185l-.679,2.16-1.666,4.443Z" transform="translate(-719.458 -31.595)"/>
        <path id="Path_48" data-name="Path 48" class="cls-3" d="M800.3,69.3h4.073l7.405,11.91h.185l-.185-3.394V69.3h3.456V87.011h-3.641l-7.837-12.527h-.185l.185,3.394v9.133H800.3Z" transform="translate(-731.864 -31.595)"/>
        <path id="Path_49" data-name="Path 49" class="cls-3" d="M830.5,69.3h3.456V87.011H830.5Z" transform="translate(-743.428 -31.595)"/>
        <path id="Path_50" data-name="Path 50" class="cls-3" d="M846.612,69.3h3.949l6.973,17.711h-3.826l-1.543-4.258h-7.1l-1.543,4.258H839.7Zm4.381,10.429-1.666-4.443-.679-2.16h-.185l-.679,2.16-1.666,4.443Z" transform="translate(-746.95 -31.595)"/>
      </g>
    </g>
  </g>
  <g id="Group_310" data-name="Group 310" transform="translate(636.33 426.845)">
    <g id="Group_308" data-name="Group 308" transform="translate(-0.024 47)">
      <path id="Path_3934" data-name="Path 3934" class="cls-2" d="M2.19,16.319l.643-4.5H.1L.422,9.4H3.155l.322-2.412H.9l.322-2.412H3.959L4.6.4H7.175L6.532,4.742H9.1L9.748.561h2.573l-.643,4.181h2.734l-.482,2.412H11.356l-.482,2.412h2.734l-.322,2.412H10.552l-.643,4.5H7.336l.643-4.5H5.406l-.643,4.342ZM5.728,9.566H8.462l.322-2.573H6.05Z" transform="translate(-0.1 0.243)"/>
      <path id="Path_3935" data-name="Path 3935" class="cls-4" d="M10.3,16.562V0h5.146a8.657,8.657,0,0,1,6.11,2.251A7.874,7.874,0,0,1,23.807,8.2a8.26,8.26,0,0,1-2.251,5.95,8.657,8.657,0,0,1-6.11,2.251H10.3ZM12.39,2.09V14.633h2.894a5.958,5.958,0,0,0,4.5-1.608A6.1,6.1,0,0,0,21.4,8.362,6.344,6.344,0,0,0,19.787,3.7a5.958,5.958,0,0,0-4.5-1.608H12.39Z" transform="translate(6.102)"/>
      <path id="Path_3936" data-name="Path 3936" class="cls-4" d="M25.189,15.221A5.779,5.779,0,0,1,19.4,9.11a5.821,5.821,0,0,1,1.608-4.342A5.48,5.48,0,0,1,25.028,3a5.1,5.1,0,0,1,4.02,1.608A6.587,6.587,0,0,1,30.5,9.11v.161H21.651A3.527,3.527,0,0,0,22.777,12a3.652,3.652,0,0,0,2.573.965,3.583,3.583,0,0,0,3.216-2.09l1.93.965A5.679,5.679,0,0,1,28.4,14.1,5.225,5.225,0,0,1,25.189,15.221ZM21.812,7.663H28.4a2.292,2.292,0,0,0-.965-1.93,3.486,3.486,0,0,0-2.251-.8,3.387,3.387,0,0,0-2.09.8A3.2,3.2,0,0,0,21.812,7.663Z" transform="translate(11.635 1.824)"/>
      <path id="Path_3937" data-name="Path 3937" class="cls-4" d="M33.354,14.617h-2.09L26.6,3.2h2.251l3.377,8.844h0L35.6,3.2h2.251Z" transform="translate(16.012 1.946)"/>
      <path id="Path_3938" data-name="Path 3938" class="cls-4" d="M36.89,9.487v7.075H34.8V0h9.648V2.09H36.89V7.558h6.754v1.93H36.89Z" transform="translate(20.998)"/>
      <path id="Path_3939" data-name="Path 3939" class="cls-4" d="M46.989,15.221A5.779,5.779,0,0,1,41.2,9.11a5.821,5.821,0,0,1,1.608-4.342A5.575,5.575,0,0,1,46.989,3a5.1,5.1,0,0,1,4.02,1.608,6.587,6.587,0,0,1,1.447,4.5v.161H43.612A3.527,3.527,0,0,0,44.738,12a3.652,3.652,0,0,0,2.573.965,3.583,3.583,0,0,0,3.216-2.09l1.93.965a5.679,5.679,0,0,1-2.09,2.251A5.341,5.341,0,0,1,46.989,15.221ZM43.612,7.663H50.2a2.292,2.292,0,0,0-.965-1.93,3.486,3.486,0,0,0-2.251-.8,3.387,3.387,0,0,0-2.09.8A3.2,3.2,0,0,0,43.612,7.663Z" transform="translate(24.889 1.824)"/>
      <path id="Path_3940" data-name="Path 3940" class="cls-4" d="M58.487,11.683A3.625,3.625,0,0,1,57.2,14.256a5.1,5.1,0,0,1-3.216.965,5.294,5.294,0,0,1-3.055-.965A7.119,7.119,0,0,1,49,11.844l1.93-.8a3.211,3.211,0,0,0,1.286,1.608,3.372,3.372,0,0,0,1.769.643,3.241,3.241,0,0,0,1.769-.482,1.163,1.163,0,0,0,.643-.965c0-.8-.482-1.286-1.608-1.608l-1.93-.482c-2.251-.482-3.377-1.608-3.377-3.216a2.835,2.835,0,0,1,1.286-2.412A3.783,3.783,0,0,1,53.824,3a5.285,5.285,0,0,1,2.734.643,4.092,4.092,0,0,1,1.769,1.93l-1.93.8a2.533,2.533,0,0,0-1.126-1.126,2.717,2.717,0,0,0-1.608-.482,2.245,2.245,0,0,0-1.447.482,1.163,1.163,0,0,0-.643.965c0,.643.643,1.126,1.769,1.447l1.769.482C57.362,8.789,58.487,9.914,58.487,11.683Z" transform="translate(29.632 1.824)"/>
      <path id="Path_3941" data-name="Path 3941" class="cls-4" d="M60.746,16.054a3.181,3.181,0,0,1-2.251-.8,3.273,3.273,0,0,1-.965-2.412V6.567H55.6V4.638h1.93V1.1h2.09V4.638h2.734v1.93H59.62V12.2A2.134,2.134,0,0,0,60.1,13.8a1.39,1.39,0,0,0,.965.482h.482c.161,0,.322-.161.482-.161l.643,1.93Z" transform="translate(33.644 0.669)"/>
      <path id="Path_3942" data-name="Path 3942" class="cls-4" d="M66.85.561V16.48h-2.09V3.134L61.7,4.42l-.8-1.769L65.563.4H66.85Z" transform="translate(36.867 0.243)"/>
      <path id="Path_3943" data-name="Path 3943" class="cls-4" d="M76.691,2.59l-7.718,14.15-1.93-.965L74.44,2.59H66.4V.5H76.691Z" transform="translate(40.211 0.304)"/>
    </g>
    <g id="g10828_2_" transform="translate(-0.127 22.057)">
      <g id="Group_309" data-name="Group 309">
        <path id="Path_3944" data-name="Path 3944" class="cls-2" d="M-989.988,310.995l.588-4.507h-2.743l.392-2.352h2.744l.392-2.548h-2.744l.392-2.352h2.743l.588-4.311h2.548l-.588,4.311h2.547l.588-4.311h2.548l-.588,4.311h2.744l-.392,2.352h-2.744l-.392,2.548h2.744l-.392,2.352h-2.743l-.588,4.507h-2.548l.588-4.507h-2.547l-.588,4.507Zm3.527-6.859h2.744l.392-2.548h-2.744Z" transform="translate(992.144 -294.337)"/>
        <path id="Path_3945" data-name="Path 3945" class="cls-4" d="M-981.785,311.217V294.56h5.1a8.119,8.119,0,0,1,6.075,2.352,8.119,8.119,0,0,1,2.352,6.075,8.119,8.119,0,0,1-2.352,6.075,8.119,8.119,0,0,1-6.075,2.352h-5.1Zm2.156-14.7v12.542h2.939a5.623,5.623,0,0,0,4.507-1.764,6.357,6.357,0,0,0,1.764-4.7,6.357,6.357,0,0,0-1.764-4.7,6.209,6.209,0,0,0-4.507-1.764h-2.939Z" transform="translate(998.442 -294.56)"/>
        <path id="Path_3946" data-name="Path 3946" class="cls-4" d="M-966.839,309.757a5.061,5.061,0,0,1-4.115-1.764,5.614,5.614,0,0,1-1.568-4.311,6.456,6.456,0,0,1,1.568-4.311,5.062,5.062,0,0,1,4.115-1.764,5.613,5.613,0,0,1,4.115,1.568,6.788,6.788,0,0,1,1.568,4.7v.2h-9.014A3.558,3.558,0,0,0-969,306.817a3.245,3.245,0,0,0,2.547.98,3.361,3.361,0,0,0,3.136-1.96l1.96.98a6.229,6.229,0,0,1-2.156,2.352A19.8,19.8,0,0,1-966.839,309.757Zm-3.332-7.447h6.467a2.721,2.721,0,0,0-.98-1.96,3.123,3.123,0,0,0-2.352-.784,2.947,2.947,0,0,0-2.156.784A2.162,2.162,0,0,0-970.171,302.31Z" transform="translate(1004.073 -292.707)"/>
        <path id="Path_3947" data-name="Path 3947" class="cls-4" d="M-958.473,309.216h-2.156l-4.7-11.366h2.352l3.332,8.819h0l3.332-8.819h2.352Z" transform="translate(1008.445 -292.559)"/>
        <path id="Path_3948" data-name="Path 3948" class="cls-4" d="M-954.889,303.966v7.251h-2.156V294.56h9.8v1.96h-7.643v5.487h6.859v1.96Z" transform="translate(1013.484 -294.56)"/>
        <path id="Path_3949" data-name="Path 3949" class="cls-4" d="M-944.781,309.757a5.062,5.062,0,0,1-4.115-1.764,5.614,5.614,0,0,1-1.568-4.311,6.456,6.456,0,0,1,1.568-4.311,5.062,5.062,0,0,1,4.115-1.764,5.613,5.613,0,0,1,4.115,1.568,6.788,6.788,0,0,1,1.568,4.7v.2h-9.015a3.558,3.558,0,0,0,1.176,2.743,3.245,3.245,0,0,0,2.548.98,3.361,3.361,0,0,0,3.135-1.96l1.96.98a6.229,6.229,0,0,1-2.156,2.352A19.8,19.8,0,0,1-944.781,309.757Zm-3.527-7.447h6.467a2.721,2.721,0,0,0-.98-1.96,3.123,3.123,0,0,0-2.352-.784,2.947,2.947,0,0,0-2.155.784A3.131,3.131,0,0,0-948.309,302.31Z" transform="translate(1017.485 -292.707)"/>
        <path id="Path_3950" data-name="Path 3950" class="cls-4" d="M-933.184,306.229a3.085,3.085,0,0,1-1.372,2.548,5.6,5.6,0,0,1-3.331.98,4.813,4.813,0,0,1-2.939-.98,5.761,5.761,0,0,1-1.96-2.352l1.96-.784a3.321,3.321,0,0,0,1.176,1.568,3.161,3.161,0,0,0,1.764.588,5.724,5.724,0,0,0,1.764-.392c.392-.392.784-.588.784-.98,0-.784-.588-1.176-1.764-1.568l-1.96-.588c-2.156-.588-3.332-1.568-3.332-3.135a3.161,3.161,0,0,1,1.176-2.548,5.605,5.605,0,0,1,3.332-.98,4.5,4.5,0,0,1,2.743.784,4.289,4.289,0,0,1,1.764,1.96l-1.96.784a5.192,5.192,0,0,0-.98-1.176,4.609,4.609,0,0,0-1.568-.392,4.612,4.612,0,0,0-1.568.392,1.078,1.078,0,0,0-.588.98c0,.588.588,1.176,1.764,1.372l1.764.392C-934.36,303.29-933.184,304.465-933.184,306.229Z" transform="translate(1022.153 -292.707)"/>
        <path id="Path_3951" data-name="Path 3951" class="cls-4" d="M-930.914,310.746a3.124,3.124,0,0,1-2.351-.784,3.245,3.245,0,0,1-.98-2.352v-6.467h-1.96v-1.96h1.96v-3.527h2.156v3.527h2.744v1.96h-2.744v5.683a2.533,2.533,0,0,0,.392,1.568c.392.2.588.392.98.392h.588c.2,0,.392,0,.392-.2l.588,1.96C-929.542,310.55-930.13,310.746-930.914,310.746Z" transform="translate(1026.155 -293.893)"/>
        <path id="Path_3952" data-name="Path 3952" class="cls-4" d="M-928.2,311.217h-2.156V294.56h2.156l5.879,10.19h0l5.879-10.19h2.155v16.657h-2.155V298.479h0l-5.291,9.211h-1.176l-5.291-9.211h0v12.738Z" transform="translate(1029.711 -294.56)"/>
        <path id="Path_3953" data-name="Path 3953" class="cls-4" d="M-913.217,309.757a5.061,5.061,0,0,1-4.115-1.764,5.614,5.614,0,0,1-1.568-4.311,6.457,6.457,0,0,1,1.568-4.311,5.062,5.062,0,0,1,4.115-1.764,5.613,5.613,0,0,1,4.115,1.568,6.788,6.788,0,0,1,1.568,4.7v.2h-9.014a3.558,3.558,0,0,0,1.176,2.743,3.245,3.245,0,0,0,2.548.98,3.361,3.361,0,0,0,3.135-1.96l1.96.98a6.229,6.229,0,0,1-2.156,2.352A19.8,19.8,0,0,1-913.217,309.757Zm-3.527-7.447h6.467a2.721,2.721,0,0,0-.98-1.96,3.124,3.124,0,0,0-2.352-.784,2.947,2.947,0,0,0-2.156.784A3.132,3.132,0,0,0-916.744,302.31Z" transform="translate(1036.677 -292.707)"/>
        <path id="Path_3954" data-name="Path 3954" class="cls-4" d="M-905.613,311.609a5.223,5.223,0,0,1-3.919-1.764,6.456,6.456,0,0,1-1.568-4.311,6.456,6.456,0,0,1,1.568-4.311,4.934,4.934,0,0,1,3.919-1.764,5.218,5.218,0,0,1,2.352.588,3.63,3.63,0,0,1,1.568,1.372h0V294.56h2.156v16.657h-1.96v-1.568h0a5.285,5.285,0,0,1-1.568,1.372A6.766,6.766,0,0,1-905.613,311.609Zm.2-1.96a3.16,3.16,0,0,0,2.548-1.176,3.848,3.848,0,0,0,.98-2.939,4.814,4.814,0,0,0-.98-2.94,3.45,3.45,0,0,0-2.548-1.176,3.16,3.16,0,0,0-2.548,1.176,3.849,3.849,0,0,0-.98,2.94,4.814,4.814,0,0,0,.98,2.939A3.45,3.45,0,0,0-905.417,309.649Z" transform="translate(1041.419 -294.56)"/>
      </g>
    </g>
  </g>
</svg>
